{
.appVersion = "3179";
.formatVersion = 3;
DisplayStrings = (
"𑼄𑼨𑼗𑼕𑼲𑼙𑼚𑼒𑼓𑼪𑼦𑼧𑼬𑼱𑼰/ra-kawi.post 𑼡𑼴𑼾𑼮/ssa-kawi.post"
);
axes = (
{
name = Weight;
tag = wght;
}
);
customParameters = (
{
name = "Use Typo Metrics";
value = 1;
},
{
name = "Write lastChange";
value = 0;
}
);
date = "2022-04-03 17:04:08 +0000";
familyName = "Noto Sans Kawi";
featurePrefixes = (
{
automatic = 1;
code = "languagesystem DFLT dflt;
";
name = Languagesystems;
}
);
features = (
{
automatic = 1;
code = "feature blws;
";
tag = aalt;
},
{
code = "lookup belowForm {
	sub virama-kawi ka-kawi by ka-kawi.below;
} belowForm;

script kawi;
lookup belowForm;
";
tag = blws;
},
{
code = "lookup postForms {
	sub virama-kawi ssa-kawi by ssa-kawi.post;
} postForms;

script kawi;
lookup postForms;
";
tag = pstf;
},
{
code = "lookup raConjunct {
	sub virama-kawi ra-kawi by ra-kawi.post;
} raConjunct;

script kawi;
lookup raConjunct;";
tag = pref;
}
);
fontMaster = (
{
axesValues = (
400
);
customParameters = (
{
name = "Preview Ascender";
value = 1000;
},
{
name = "Preview Descender";
value = 1000;
}
);
guides = (
{
pos = (183,-106);
},
{
pos = (183,-570);
},
{
pos = (183,544);
},
{
pos = (183,554);
}
);
id = m01;
metricValues = (
{
over = 16;
pos = 800;
},
{
over = 16;
pos = 700;
},
{
over = 16;
pos = 500;
},
{
over = -16;
},
{
over = -16;
pos = -200;
},
{
over = -16;
}
);
name = Regular;
userData = {
GSCornerRadius = 115;
};
visible = 1;
},
{
axesValues = (
700
);
customParameters = (
{
name = "Preview Ascender";
value = 1000;
},
{
name = "Preview Descender";
value = 1000;
}
);
iconName = Bold;
id = "FD202070-6699-4318-8E83-95414ED89137";
metricValues = (
{
pos = 800;
},
{
pos = 700;
},
{
pos = 500;
},
{
},
{
pos = -200;
},
{
}
);
name = Bold;
}
);
glyphs = (
{
glyphname = "a-kawi";
layers = (
{
background = {
shapes = (
{
closed = 1;
nodes = (
(329,-10,o),
(413,37,o),
(413,146,cs),
(413,245,o),
(343,291,o),
(237,291,c),
(237,275,l),
(343,275,o),
(398,324,o),
(398,409,cs),
(398,489,o),
(350,554,o),
(224,554,cs),
(141,554,o),
(84,524,o),
(54,460,c),
(126,423,l),
(145,465,o),
(182,478,o),
(221,478,cs),
(277,478,o),
(306,453,o),
(306,400,cs),
(306,337,o),
(266,321,o),
(232,321,cs),
(171,321,l),
(171,245,l),
(232,245,ls),
(272,245,o),
(321,222,o),
(321,156,cs),
(321,95,o),
(279,66,o),
(226,66,cs),
(180,66,o),
(135,87,o),
(116,131,c),
(44,94,l),
(77,23,o),
(145,-10,o),
(229,-10,cs)
);
},
{
closed = 1;
nodes = (
(620,208,l),
(620,284,l),
(291,284,l),
(341,208,l)
);
},
{
closed = 1;
nodes = (
(661,0,l),
(661,384,l),
(554,488,l),
(480,468,l),
(574,374,l),
(574,0,l)
);
},
{
closed = 1;
nodes = (
(722,468,l),
(722,544,l),
(480,544,l),
(480,468,l)
);
}
);
};
layerId = m01;
shapes = (
{
closed = 1;
nodes = (
(329,-10,o),
(413,37,o),
(413,146,cs),
(413,245,o),
(343,291,o),
(237,291,c),
(237,275,l),
(343,275,o),
(398,324,o),
(398,409,cs),
(398,489,o),
(350,554,o),
(224,554,cs),
(141,554,o),
(84,524,o),
(54,460,c),
(126,423,l),
(145,465,o),
(182,478,o),
(221,478,cs),
(277,478,o),
(306,453,o),
(306,400,cs),
(306,337,o),
(266,321,o),
(232,321,cs),
(171,321,l),
(171,245,l),
(232,245,ls),
(272,245,o),
(321,222,o),
(321,156,cs),
(321,95,o),
(279,66,o),
(226,66,cs),
(180,66,o),
(135,87,o),
(116,131,c),
(44,94,l),
(77,23,o),
(145,-10,o),
(229,-10,cs)
);
},
{
closed = 1;
nodes = (
(620,208,l),
(620,284,l),
(291,284,l),
(341,208,l)
);
},
{
closed = 1;
nodes = (
(661,0,l),
(661,369,ls),
(661,442,o),
(627,488,o),
(554,488,c),
(480,468,l),
(569,468,o),
(574,426,o),
(574,369,cs),
(574,0,l)
);
},
{
closed = 1;
nodes = (
(722,468,l),
(722,544,l),
(480,544,l),
(480,468,l)
);
}
);
width = 758;
},
{
layerId = "FD202070-6699-4318-8E83-95414ED89137";
width = 1032;
},
{
associatedMasterId = m01;
background = {
shapes = (
{
closed = 1;
nodes = (
(329,-10,o),
(413,37,o),
(413,146,cs),
(413,245,o),
(343,291,o),
(237,291,c),
(237,275,l),
(343,275,o),
(398,324,o),
(398,409,cs),
(398,489,o),
(350,554,o),
(224,554,cs),
(141,554,o),
(84,524,o),
(54,460,c),
(126,423,l),
(145,465,o),
(182,478,o),
(221,478,cs),
(277,478,o),
(306,453,o),
(306,400,cs),
(306,337,o),
(266,321,o),
(232,321,cs),
(171,321,l),
(171,245,l),
(232,245,ls),
(272,245,o),
(321,222,o),
(321,156,cs),
(321,95,o),
(279,66,o),
(226,66,cs),
(180,66,o),
(135,87,o),
(116,131,c),
(44,94,l),
(77,23,o),
(145,-10,o),
(229,-10,cs)
);
},
{
closed = 1;
nodes = (
(620,208,l),
(620,284,l),
(291,284,l),
(341,208,l)
);
},
{
closed = 1;
nodes = (
(661,0,l),
(661,384,l),
(554,488,l),
(480,468,l),
(574,374,l),
(574,0,l)
);
},
{
closed = 1;
nodes = (
(722,468,l),
(722,544,l),
(480,544,l),
(480,468,l)
);
}
);
};
layerId = "5CB73C68-DB72-4862-A9E4-E3A224B11D59";
name = "10 Feb 23 02.34";
shapes = (
{
closed = 1;
nodes = (
(329,-10,o),
(413,37,o),
(413,146,cs),
(413,245,o),
(343,291,o),
(237,291,c),
(237,275,l),
(343,275,o),
(398,324,o),
(398,409,cs),
(398,489,o),
(350,554,o),
(224,554,cs),
(141,554,o),
(84,524,o),
(54,460,c),
(126,423,l),
(145,465,o),
(182,478,o),
(221,478,cs),
(277,478,o),
(306,453,o),
(306,400,cs),
(306,337,o),
(266,321,o),
(232,321,cs),
(171,321,l),
(171,245,l),
(232,245,ls),
(272,245,o),
(321,222,o),
(321,156,cs),
(321,95,o),
(279,66,o),
(226,66,cs),
(180,66,o),
(135,87,o),
(116,131,c),
(44,94,l),
(77,23,o),
(145,-10,o),
(229,-10,cs)
);
},
{
closed = 1;
nodes = (
(620,208,l),
(620,284,l),
(291,284,l),
(341,208,l)
);
},
{
closed = 1;
nodes = (
(661,0,l),
(661,384,l),
(554,488,l),
(480,468,l),
(574,374,l),
(574,0,l)
);
},
{
closed = 1;
nodes = (
(722,468,l),
(722,544,l),
(480,544,l),
(480,468,l)
);
}
);
width = 757;
}
);
metricRight = "ra-kawi";
unicode = 73476;
},
{
glyphname = "aa-kawi";
layers = (
{
layerId = m01;
shapes = (
{
closed = 1;
nodes = (
(865,0,l),
(865,396,ls),
(865,491,o),
(809,544,o),
(695,544,cs),
(480,544,l),
(480,468,l),
(700,468,ls),
(750,468,o),
(778,440,o),
(778,390,cs),
(778,0,l)
);
},
{
closed = 1;
nodes = (
(329,-10,o),
(413,37,o),
(413,146,cs),
(413,245,o),
(343,291,o),
(237,291,c),
(237,275,l),
(343,275,o),
(398,324,o),
(398,409,cs),
(398,489,o),
(350,554,o),
(224,554,cs),
(141,554,o),
(84,524,o),
(54,460,c),
(126,423,l),
(145,465,o),
(182,478,o),
(221,478,cs),
(277,478,o),
(306,453,o),
(306,400,cs),
(306,337,o),
(266,321,o),
(232,321,cs),
(171,321,l),
(171,245,l),
(232,245,ls),
(272,245,o),
(321,222,o),
(321,156,cs),
(321,95,o),
(279,66,o),
(226,66,cs),
(180,66,o),
(135,87,o),
(116,131,c),
(44,94,l),
(77,23,o),
(145,-10,o),
(229,-10,cs)
);
},
{
closed = 1;
nodes = (
(620,208,l),
(620,284,l),
(291,284,l),
(341,208,l)
);
},
{
closed = 1;
nodes = (
(661,0,l),
(661,369,ls),
(661,442,o),
(627,488,o),
(554,488,c),
(480,468,l),
(569,468,o),
(574,426,o),
(574,369,cs),
(574,0,l)
);
}
);
width = 940;
},
{
layerId = "FD202070-6699-4318-8E83-95414ED89137";
width = 847;
}
);
metricLeft = "a-kawi";
metricRight = "ka-kawi";
unicode = 73477;
},
{
glyphname = "ai-kawi";
layers = (
{
layerId = m01;
shapes = (
{
closed = 1;
nodes = (
(288,-580,o),
(345,-531,o),
(365,-422,c),
(338,-427,l),
(351,-536,o),
(405,-580,o),
(488,-580,cs),
(596,-580,o),
(638,-507,o),
(638,-426,cs),
(638,-346,o),
(597,-298,o),
(520,-274,c),
(493,-330,l),
(526,-350,o),
(549,-372,o),
(549,-421,cs),
(549,-461,o),
(534,-499,o),
(479,-499,cs),
(429,-499,o),
(398,-467,o),
(382,-370,c),
(328,-370,l),
(314,-458,o),
(285,-499,o),
(229,-499,cs),
(188,-499,o),
(160,-477,o),
(160,-410,cs),
(160,-387,ls),
(160,-75,o),
(610,-267,o),
(610,118,cs),
(610,426,ls),
(610,507,o),
(570,554,o),
(494,554,cs),
(417,554,o),
(358,506,o),
(324,396,c),
(351,401,l),
(340,504,o),
(283,554,o),
(202,554,cs),
(105,554,o),
(64,483,o),
(64,388,cs),
(64,145,ls),
(64,35,o),
(113,7,o),
(189,-10,c),
(218,64,l),
(172,79,o),
(151,93,o),
(151,143,cs),
(151,388,ls),
(151,441,o),
(170,473,o),
(213,473,cs),
(259,473,o),
(292,435,o),
(307,344,c),
(361,344,l),
(388,432,o),
(420,473,o),
(472,473,cs),
(503,473,o),
(523,460,o),
(523,417,cs),
(523,118,ls),
(523,-193,o),
(73,-17,o),
(73,-387,cs),
(73,-410,ls),
(73,-518,o),
(119,-580,o),
(208,-580,cs)
);
}
);
width = 690;
},
{
layerId = "FD202070-6699-4318-8E83-95414ED89137";
width = 600;
}
);
unicode = 73487;
},
{
glyphname = "ba-kawi";
layers = (
{
background = {
shapes = (
{
closed = 1;
nodes = (
(403,0,ls),
(541,0,o),
(655,72,o),
(655,298,cs),
(655,438,o),
(611,554,o),
(478,554,cs),
(405,554,o),
(334,520,o),
(334,388,c),
(360,388,l),
(360,520,o),
(289,554,o),
(217,554,cs),
(113,554,o),
(64,483,o),
(64,388,cs),
(64,148,ls),
(64,53,o),
(120,0,o),
(234,0,cs)
);
},
{
closed = 1;
nodes = (
(179,76,o),
(151,104,o),
(151,154,cs),
(151,397,ls),
(151,454,o),
(178,478,o),
(225,478,cs),
(269,478,o),
(309,457,o),
(309,388,cs),
(309,339,l),
(386,339,l),
(386,388,ls),
(386,448,o),
(424,478,o),
(470,478,cs),
(537,478,o),
(563,414,o),
(563,300,cs),
(563,126,o),
(502,76,o),
(408,76,cs),
(229,76,ls)
);
}
);
};
layerId = m01;
shapes = (
{
closed = 1;
nodes = (
(371,383,l),
(358,513,o),
(295,554,o),
(216,554,cs),
(113,554,o),
(64,483,o),
(64,388,cs),
(64,148,ls),
(64,53,o),
(120,0,o),
(234,0,cs),
(403,0,ls),
(541,0,o),
(675,60,o),
(675,300,cs),
(675,469,o),
(608,554,o),
(505,554,cs),
(426,554,o),
(369,505,o),
(331,380,c)
);
},
{
closed = 1;
nodes = (
(407,436,o),
(440,478,o),
(489,478,cs),
(534,478,o),
(583,444,o),
(583,300,cs),
(583,116,o),
(503,76,o),
(408,76,cs),
(229,76,ls),
(179,76,o),
(151,104,o),
(151,154,cs),
(151,397,ls),
(151,456,o),
(174,478,o),
(220,478,cs),
(272,478,o),
(305,449,o),
(324,344,c),
(378,344,l)
);
}
);
width = 717;
},
{
layerId = "FD202070-6699-4318-8E83-95414ED89137";
shapes = (
{
closed = 1;
nodes = (
(403,338,l),
(386,501,o),
(325,554,o),
(229,554,cs),
(117,554,o),
(58,483,o),
(58,388,cs),
(58,168,ls),
(58,50,o),
(124,0,o),
(258,0,cs),
(447,0,ls),
(587,0,o),
(720,73,o),
(720,300,cs),
(720,468,o),
(647,554,o),
(533,554,cs),
(443,554,o),
(375,497,o),
(343,335,c)
);
},
{
closed = 1;
nodes = (
(439,396,o),
(466,428,o),
(504,428,cs),
(537,428,o),
(568,403,o),
(568,301,cs),
(568,168,o),
(516,126,o),
(452,126,cs),
(257,126,ls),
(219,126,o),
(205,145,o),
(205,179,cs),
(205,372,ls),
(205,412,o),
(222,428,o),
(252,428,cs),
(290,428,o),
(310,404,o),
(323,319,c),
(423,319,l)
);
}
);
width = 770;
},
{
associatedMasterId = m01;
background = {
shapes = (
{
closed = 1;
nodes = (
(407,0,ls),
(550,0,o),
(662,76,o),
(662,303,cs),
(662,433,o),
(625,554,o),
(491,554,cs),
(414,554,o),
(338,514,o),
(338,358,c),
(400,358,l),
(400,460,o),
(448,478,o),
(483,478,cs),
(551,478,o),
(570,399,o),
(570,303,cs),
(570,95,o),
(479,76,o),
(412,76,cs),
(243,76,ls),
(193,76,o),
(165,104,o),
(165,154,cs),
(165,397,ls),
(165,453,o),
(192,478,o),
(239,478,cs),
(279,478,o),
(320,460,o),
(338,358,c),
(388,358,l),
(375,521,o),
(306,554,o),
(234,554,cs),
(128,554,o),
(78,483,o),
(78,388,cs),
(78,148,ls),
(78,53,o),
(134,0,o),
(248,0,cs)
);
}
);
};
layerId = "FAF141F9-3205-4875-8D86-271C40D79808";
name = "8 Feb 23 01.17";
shapes = (
{
closed = 1;
nodes = (
(407,0,ls),
(550,0,o),
(662,76,o),
(662,303,cs),
(662,433,o),
(625,554,o),
(491,554,cs),
(414,554,o),
(338,514,o),
(338,358,c),
(400,358,l),
(400,460,o),
(448,478,o),
(483,478,cs),
(551,478,o),
(570,399,o),
(570,303,cs),
(570,95,o),
(479,76,o),
(412,76,cs),
(243,76,ls),
(193,76,o),
(165,104,o),
(165,154,cs),
(165,397,ls),
(165,453,o),
(192,478,o),
(239,478,cs),
(279,478,o),
(320,460,o),
(338,358,c),
(388,358,l),
(375,521,o),
(306,554,o),
(234,554,cs),
(128,554,o),
(78,483,o),
(78,388,cs),
(78,148,ls),
(78,53,o),
(134,0,o),
(248,0,cs)
);
}
);
width = 700;
},
{
associatedMasterId = m01;
background = {
shapes = (
{
closed = 1;
nodes = (
(407,0,ls),
(550,0,o),
(662,76,o),
(662,303,cs),
(662,433,o),
(625,554,o),
(491,554,cs),
(414,554,o),
(338,514,o),
(338,358,c),
(400,358,l),
(400,460,o),
(448,478,o),
(483,478,cs),
(551,478,o),
(570,399,o),
(570,303,cs),
(570,95,o),
(479,76,o),
(412,76,cs),
(243,76,ls),
(193,76,o),
(165,104,o),
(165,154,cs),
(165,397,ls),
(165,453,o),
(192,478,o),
(239,478,cs),
(279,478,o),
(320,460,o),
(338,358,c),
(388,358,l),
(375,521,o),
(306,554,o),
(234,554,cs),
(128,554,o),
(78,483,o),
(78,388,cs),
(78,148,ls),
(78,53,o),
(134,0,o),
(248,0,cs)
);
}
);
};
layerId = "1D292864-30A3-4751-A6A7-201A2AA6D1DE";
name = "10 Feb 23 02.04";
shapes = (
{
closed = 1;
nodes = (
(417,0,ls),
(555,0,o),
(669,72,o),
(669,298,cs),
(669,438,o),
(625,554,o),
(492,554,cs),
(419,554,o),
(348,520,o),
(348,388,c),
(374,388,l),
(374,520,o),
(303,554,o),
(231,554,cs),
(127,554,o),
(78,483,o),
(78,388,cs),
(78,148,ls),
(78,53,o),
(134,0,o),
(248,0,cs)
);
},
{
closed = 1;
nodes = (
(193,76,o),
(165,104,o),
(165,154,cs),
(165,397,ls),
(165,454,o),
(192,478,o),
(239,478,cs),
(283,478,o),
(323,457,o),
(323,388,cs),
(323,339,l),
(400,339,l),
(400,388,ls),
(400,448,o),
(438,478,o),
(484,478,cs),
(551,478,o),
(577,414,o),
(577,300,cs),
(577,126,o),
(516,76,o),
(422,76,cs),
(243,76,ls)
);
}
);
width = 731;
}
);
metricLeft = "ka-kawi";
unicode = 73512;
},
{
glyphname = "bha-kawi";
layers = (
{
background = {
shapes = (
{
closed = 1;
nodes = (
(151,0,l),
(151,379,ls),
(151,436,o),
(179,468,o),
(229,468,cs),
(349,468,ls),
(403,468,o),
(426,453,o),
(452,419,c),
(514,466,l),
(480,516,o),
(441,544,o),
(349,544,cs),
(223,544,ls),
(121,544,o),
(64,488,o),
(64,374,cs),
(64,0,l)
);
},
{
closed = 1;
nodes = (
(146,143,l),
(196,184,o),
(251,198,o),
(295,198,cs),
(352,198,o),
(378,170,o),
(378,120,cs),
(378,0,l),
(465,0,l),
(465,126,ls),
(465,221,o),
(410,274,o),
(312,274,cs),
(241,274,o),
(186,249,o),
(131,197,c)
);
}
);
};
layerId = m01;
shapes = (
{
closed = 1;
nodes = (
(151,0,l),
(151,379,ls),
(151,436,o),
(179,468,o),
(229,468,cs),
(349,468,ls),
(403,468,o),
(426,453,o),
(452,419,c),
(514,466,l),
(480,516,o),
(441,544,o),
(349,544,cs),
(223,544,ls),
(121,544,o),
(64,488,o),
(64,374,cs),
(64,0,l)
);
},
{
closed = 1;
nodes = (
(468,117,ls),
(468,265,o),
(398,314,o),
(190,328,c),
(179,264,l),
(337,251,o),
(376,218,o),
(376,118,cs),
(376,0,l),
(468,0,l)
);
}
);
width = 550;
},
{
layerId = "FD202070-6699-4318-8E83-95414ED89137";
width = 799;
}
);
metricLeft = "ka-kawi";
metricRight = "na-kawi";
unicode = 73513;
},
{
glyphname = "ca-kawi";
layers = (
{
background = {
shapes = (
{
closed = 1;
nodes = (
(355,0,ls),
(490,0,o),
(549,73,o),
(549,169,cs),
(549,314,o),
(416,341,o),
(299,349,c),
(286,292,l),
(400,284,o),
(457,255,o),
(457,174,cs),
(457,104,o),
(415,76,o),
(349,76,cs),
(19,76,l),
(19,0,l)
);
},
{
closed = 1;
nodes = (
(205,56,o),
(240,110,o),
(240,190,cs),
(240,374,ls),
(240,442,o),
(213,488,o),
(154,488,c),
(80,468,l),
(150,468,o),
(153,426,o),
(153,364,cs),
(153,200,ls),
(153,126,o),
(147,76,o),
(58,76,c),
(132,56,l)
);
},
{
closed = 1;
nodes = (
(528,466,l),
(494,516,o),
(455,544,o),
(363,544,cs),
(80,544,l),
(80,468,l),
(363,468,ls),
(417,468,o),
(440,453,o),
(466,419,c)
);
}
);
};
layerId = m01;
shapes = (
{
closed = 1;
nodes = (
(355,0,ls),
(490,0,o),
(549,73,o),
(549,169,cs),
(549,309,o),
(425,340,o),
(299,349,c),
(289,282,l),
(397,275,o),
(457,249,o),
(457,171,cs),
(457,105,o),
(415,76,o),
(349,76,cs),
(39,76,l),
(39,0,l)
);
},
{
closed = 1;
nodes = (
(205,56,o),
(240,110,o),
(240,190,cs),
(240,544,l),
(153,544,l),
(153,200,ls),
(153,126,o),
(148,76,o),
(78,76,c),
(132,56,l)
);
},
{
closed = 1;
nodes = (
(538,466,l),
(504,516,o),
(465,544,o),
(373,544,cs),
(153,544,l),
(153,468,l),
(373,468,ls),
(427,468,o),
(450,453,o),
(476,419,c)
);
}
);
width = 600;
},
{
layerId = "FD202070-6699-4318-8E83-95414ED89137";
width = 600;
},
{
associatedMasterId = m01;
layerId = "A7970482-13CB-411B-90FC-491DB68747F5";
name = "8 Feb 23 02.14";
shapes = (
{
closed = 1;
nodes = (
(487,-10,o),
(549,70,o),
(549,179,cs),
(549,345,o),
(407,359,o),
(341,359,cs),
(203,359,l),
(203,283,l),
(341,283,ls),
(397,283,o),
(457,262,o),
(457,177,cs),
(457,103,o),
(413,66,o),
(348,66,cs),
(301,66,o),
(269,86,o),
(246,144,c),
(194,117,l),
(227,28,o),
(272,-10,o),
(360,-10,cs)
);
},
{
closed = 1;
nodes = (
(192,0,o),
(248,61,o),
(248,156,cs),
(248,520,l),
(161,520,l),
(161,162,ls),
(161,105,o),
(133,76,o),
(81,76,c),
(81,0,l)
);
},
{
closed = 1;
nodes = (
(558,466,l),
(524,516,o),
(485,544,o),
(393,544,cs),
(94,544,l),
(94,468,l),
(393,468,ls),
(447,468,o),
(470,453,o),
(496,419,c)
);
}
);
width = 600;
},
{
associatedMasterId = m01;
background = {
shapes = (
{
closed = 1;
nodes = (
(467,-10,o),
(529,70,o),
(529,179,cs),
(529,345,o),
(387,359,o),
(321,359,cs),
(183,359,l),
(183,283,l),
(321,283,ls),
(377,283,o),
(437,262,o),
(437,177,cs),
(437,103,o),
(393,66,o),
(328,66,cs),
(281,66,o),
(249,86,o),
(226,144,c),
(174,117,l),
(207,28,o),
(252,-10,o),
(340,-10,cs)
);
},
{
closed = 1;
nodes = (
(172,0,o),
(228,61,o),
(228,156,cs),
(228,520,l),
(141,520,l),
(141,162,ls),
(141,105,o),
(113,76,o),
(61,76,c),
(61,0,l)
);
},
{
closed = 1;
nodes = (
(513,544,l),
(141,544,l),
(141,468,l),
(513,468,l)
);
}
);
};
layerId = "69FC7F42-0A4F-4C55-90B8-2C40ED28C8C5";
name = "8 Feb 23 02.18";
shapes = (
{
closed = 1;
nodes = (
(490,-10,o),
(549,67,o),
(549,167,cs),
(549,331,o),
(391,359,o),
(251,368,c),
(235,292,l),
(381,283,o),
(457,260,o),
(457,168,cs),
(457,100,o),
(415,66,o),
(343,66,cs),
(284,66,o),
(238,89,o),
(206,157,c),
(154,130,l),
(194,32,o),
(255,-10,o),
(355,-10,cs)
);
},
{
closed = 1;
nodes = (
(129,153,ls),
(118,105,o),
(103,76,o),
(51,76,c),
(51,0,l),
(160,0,o),
(197,62,o),
(216,147,cs),
(275,409,ls),
(282,440,o),
(295,468,o),
(339,468,cs),
(393,468,ls),
(447,468,o),
(470,453,o),
(496,419,c),
(558,466,l),
(524,516,o),
(485,544,o),
(393,544,cs),
(344,544,ls),
(237,544,o),
(205,490,o),
(188,415,cs)
);
}
);
width = 600;
},
{
associatedMasterId = m01;
background = {
shapes = (
{
closed = 1;
nodes = (
(490,-10,o),
(549,67,o),
(549,167,cs),
(549,331,o),
(391,359,o),
(251,368,c),
(235,292,l),
(381,283,o),
(457,260,o),
(457,168,cs),
(457,100,o),
(415,66,o),
(343,66,cs),
(284,66,o),
(238,89,o),
(206,157,c),
(154,130,l),
(194,32,o),
(255,-10,o),
(355,-10,cs)
);
},
{
closed = 1;
nodes = (
(129,153,ls),
(118,105,o),
(103,76,o),
(51,76,c),
(51,0,l),
(160,0,o),
(197,62,o),
(216,147,cs),
(275,409,ls),
(282,440,o),
(295,468,o),
(339,468,cs),
(393,468,ls),
(447,468,o),
(470,453,o),
(496,419,c),
(558,466,l),
(524,516,o),
(485,544,o),
(393,544,cs),
(344,544,ls),
(237,544,o),
(205,490,o),
(188,415,cs)
);
}
);
};
layerId = "50CA73F2-AFF8-4A82-BDB1-00850000DBEE";
name = "9 Feb 23 21.09";
shapes = (
{
closed = 1;
nodes = (
(490,-10,o),
(549,67,o),
(549,167,cs),
(549,331,o),
(391,359,o),
(251,368,c),
(235,292,l),
(381,283,o),
(457,260,o),
(457,168,cs),
(457,100,o),
(415,66,o),
(343,66,cs),
(284,66,o),
(238,89,o),
(206,157,c),
(154,130,l),
(194,32,o),
(255,-10,o),
(355,-10,cs)
);
},
{
closed = 1;
nodes = (
(129,153,ls),
(118,105,o),
(103,76,o),
(51,76,c),
(51,0,l),
(160,0,o),
(197,62,o),
(216,147,cs),
(275,409,ls),
(282,440,o),
(295,468,o),
(339,468,cs),
(543,468,l),
(543,544,l),
(344,544,ls),
(237,544,o),
(205,490,o),
(188,415,cs)
);
}
);
width = 600;
},
{
associatedMasterId = m01;
background = {
shapes = (
{
closed = 1;
nodes = (
(490,-10,o),
(549,67,o),
(549,167,cs),
(549,331,o),
(391,359,o),
(251,368,c),
(235,292,l),
(381,283,o),
(457,260,o),
(457,168,cs),
(457,100,o),
(415,66,o),
(343,66,cs),
(284,66,o),
(238,89,o),
(206,157,c),
(154,130,l),
(194,32,o),
(255,-10,o),
(355,-10,cs)
);
},
{
closed = 1;
nodes = (
(129,153,ls),
(118,105,o),
(103,76,o),
(51,76,c),
(51,0,l),
(160,0,o),
(197,62,o),
(216,147,cs),
(275,409,ls),
(282,440,o),
(295,468,o),
(339,468,cs),
(543,468,l),
(543,544,l),
(344,544,ls),
(237,544,o),
(205,490,o),
(188,415,cs)
);
}
);
};
layerId = "9D605323-AC8A-4FA5-9DF9-C5EEB98C7864";
name = "10 Feb 23 01.51";
shapes = (
{
closed = 1;
nodes = (
(160,0,o),
(197,62,o),
(216,147,cs),
(296,500,l),
(277,468,l),
(543,468,l),
(543,544,l),
(213,544,l),
(129,153,ls),
(117,99,o),
(103,66,o),
(41,66,c),
(41,0,l)
);
},
{
closed = 1;
nodes = (
(490,-10,o),
(549,67,o),
(549,167,cs),
(549,331,o),
(391,359,o),
(251,368,c),
(235,292,l),
(381,283,o),
(457,260,o),
(457,168,cs),
(457,100,o),
(415,66,o),
(343,66,cs),
(285,66,o),
(231,85,o),
(219,167,c),
(167,150,l),
(187,25,o),
(257,-10,o),
(355,-10,cs)
);
}
);
width = 600;
},
{
associatedMasterId = m01;
background = {
shapes = (
{
closed = 1;
nodes = (
(160,0,o),
(197,62,o),
(216,147,cs),
(296,500,l),
(277,468,l),
(543,468,l),
(543,544,l),
(213,544,l),
(129,153,ls),
(117,99,o),
(103,66,o),
(41,66,c),
(41,0,l)
);
},
{
closed = 1;
nodes = (
(490,-10,o),
(549,67,o),
(549,167,cs),
(549,331,o),
(391,359,o),
(251,368,c),
(235,292,l),
(381,283,o),
(457,260,o),
(457,168,cs),
(457,100,o),
(415,66,o),
(343,66,cs),
(285,66,o),
(231,85,o),
(219,167,c),
(167,150,l),
(187,25,o),
(257,-10,o),
(355,-10,cs)
);
}
);
};
layerId = "18416CCD-CFA0-41CB-8ECD-615778B05A98";
name = "10 Feb 23 01.51";
shapes = (
{
closed = 1;
nodes = (
(160,0,o),
(197,62,o),
(216,147,cs),
(296,500,l),
(277,468,l),
(543,468,l),
(543,544,l),
(213,544,l),
(129,153,ls),
(117,99,o),
(103,66,o),
(41,66,c),
(41,0,l)
);
},
{
closed = 1;
nodes = (
(490,-10,o),
(549,67,o),
(549,167,cs),
(549,331,o),
(391,359,o),
(251,368,c),
(235,292,l),
(381,283,o),
(457,260,o),
(457,168,cs),
(457,100,o),
(415,66,o),
(343,66,cs),
(285,66,o),
(231,85,o),
(219,167,c),
(167,150,l),
(187,25,o),
(257,-10,o),
(355,-10,cs)
);
}
);
width = 600;
},
{
associatedMasterId = m01;
background = {
shapes = (
{
closed = 1;
nodes = (
(160,0,o),
(197,62,o),
(216,147,cs),
(296,500,l),
(277,468,l),
(543,468,l),
(543,544,l),
(213,544,l),
(129,153,ls),
(117,99,o),
(103,66,o),
(41,66,c),
(41,0,l)
);
},
{
closed = 1;
nodes = (
(490,-10,o),
(549,67,o),
(549,167,cs),
(549,331,o),
(391,359,o),
(251,368,c),
(235,292,l),
(381,283,o),
(457,260,o),
(457,168,cs),
(457,100,o),
(415,66,o),
(343,66,cs),
(285,66,o),
(231,85,o),
(219,167,c),
(167,150,l),
(187,25,o),
(257,-10,o),
(355,-10,cs)
);
}
);
};
layerId = "44910E3D-D12A-494A-8069-6B0723D34EB7";
name = "10 Feb 23 01.54";
shapes = (
{
closed = 1;
nodes = (
(355,0,ls),
(490,0,o),
(549,73,o),
(549,169,cs),
(549,314,o),
(416,341,o),
(299,349,c),
(286,292,l),
(400,284,o),
(457,255,o),
(457,174,cs),
(457,104,o),
(415,76,o),
(349,76,cs),
(19,76,l),
(19,0,l)
);
},
{
closed = 1;
nodes = (
(205,56,o),
(240,110,o),
(240,190,cs),
(240,374,ls),
(240,442,o),
(213,488,o),
(154,488,c),
(80,468,l),
(150,468,o),
(153,426,o),
(153,364,cs),
(153,200,ls),
(153,126,o),
(147,76,o),
(58,76,c),
(132,56,l)
);
},
{
closed = 1;
nodes = (
(528,466,l),
(494,516,o),
(455,544,o),
(363,544,cs),
(80,544,l),
(80,468,l),
(363,468,ls),
(417,468,o),
(440,453,o),
(466,419,c)
);
}
);
width = 600;
}
);
unicode = 73495;
},
{
glyphname = "cha-kawi";
layers = (
{
background = {
shapes = (
{
closed = 1;
nodes = (
(545,70,o),
(587,101,o),
(587,171,cs),
(587,249,o),
(527,275,o),
(419,282,c),
(429,349,l),
(555,340,o),
(679,309,o),
(679,169,cs),
(679,67,o),
(620,-10,o),
(499,-10,cs),
(324,-10,o),
(318,230,o),
(191,230,cs),
(138,230,o),
(116,192,o),
(116,142,cs),
(116,106,o),
(129,70,o),
(185,70,cs),
(255,70,o),
(264,121,o),
(283,310,cs),
(306,544,l),
(393,544,l),
(370,300,ls),
(348,70,o),
(308,-10,o),
(178,-10,cs),
(87,-10,o),
(36,51,o),
(36,138,cs),
(36,230,o),
(97,303,o),
(190,303,cs),
(381,303,o),
(368,70,o),
(503,70,cs)
);
},
{
closed = 1;
nodes = (
(668,466,l),
(634,516,o),
(595,544,o),
(503,544,cs),
(306,544,l),
(341,468,l),
(503,468,ls),
(557,468,o),
(580,453,o),
(606,419,c)
);
}
);
};
layerId = m01;
shapes = (
{
closed = 1;
nodes = (
(299,-10,o),
(348,70,o),
(365,250,cs),
(393,544,l),
(306,544,l),
(277,250,ls),
(264,117,o),
(248,65,o),
(185,65,cs),
(130,65,o),
(111,104,o),
(111,147,cs),
(111,196,o),
(136,234,o),
(189,234,cs),
(230,234,o),
(258,212,o),
(285,172,c),
(302,224,l),
(279,274,o),
(235,303,o),
(175,303,cs),
(78,303,o),
(26,231,o),
(26,145,cs),
(26,53,o),
(82,-10,o),
(184,-10,cs)
);
},
{
closed = 1;
nodes = (
(618,-10,o),
(679,67,o),
(679,167,cs),
(679,309,o),
(555,340,o),
(429,349,c),
(419,282,l),
(527,275,o),
(587,250,o),
(587,167,cs),
(587,101,o),
(550,70,o),
(489,70,cs),
(414,70,o),
(383,116,o),
(351,177,c),
(310,144,l),
(350,52,o),
(399,-10,o),
(503,-10,cs)
);
},
{
closed = 1;
nodes = (
(668,466,l),
(634,516,o),
(595,544,o),
(503,544,cs),
(306,544,l),
(341,468,l),
(503,468,ls),
(557,468,o),
(580,453,o),
(606,419,c)
);
}
);
width = 727;
},
{
layerId = "FD202070-6699-4318-8E83-95414ED89137";
width = 600;
},
{
associatedMasterId = m01;
layerId = "5A6FCD6C-AAA3-4192-B80A-7D46FF5C018B";
name = "19 Feb 23 00.32";
shapes = (
{
closed = 1;
nodes = (
(545,70,o),
(587,101,o),
(587,171,cs),
(587,249,o),
(527,275,o),
(419,282,c),
(429,349,l),
(555,340,o),
(679,309,o),
(679,169,cs),
(679,67,o),
(620,-10,o),
(499,-10,cs),
(324,-10,o),
(318,230,o),
(191,230,cs),
(138,230,o),
(116,192,o),
(116,142,cs),
(116,106,o),
(129,70,o),
(185,70,cs),
(255,70,o),
(264,121,o),
(283,310,cs),
(306,544,l),
(393,544,l),
(370,300,ls),
(348,70,o),
(308,-10,o),
(178,-10,cs),
(87,-10,o),
(36,51,o),
(36,138,cs),
(36,230,o),
(97,303,o),
(190,303,cs),
(381,303,o),
(368,70,o),
(503,70,cs)
);
},
{
closed = 1;
nodes = (
(668,466,l),
(634,516,o),
(595,544,o),
(503,544,cs),
(306,544,l),
(341,468,l),
(503,468,ls),
(557,468,o),
(580,453,o),
(606,419,c)
);
}
);
width = 730;
}
);
unicode = 73496;
},
{
glyphname = "da-kawi";
layers = (
{
background = {
shapes = (
{
closed = 1;
nodes = (
(554,-2,l),
(544,114,o),
(495,168,o),
(416,168,cs),
(310,168,o),
(301,71,o),
(218,71,cs),
(176,71,o),
(149,95,o),
(149,159,cs),
(149,193,ls),
(149,374,o),
(206,467,o),
(356,467,cs),
(416,467,o),
(449,452,o),
(481,415,c),
(542,465,l),
(503,515,o),
(449,543,o),
(356,543,cs),
(159,543,o),
(62,419,o),
(62,198,cs),
(62,159,ls),
(62,55,o),
(119,-11,o),
(215,-11,cs),
(331,-11,o),
(344,89,o),
(414,89,cs),
(444,89,o),
(473,69,o),
(483,-12,c)
);
}
);
};
layerId = m01;
shapes = (
{
closed = 1;
nodes = (
(554,-2,l),
(544,114,o),
(495,172,o),
(416,172,cs),
(310,172,o),
(301,71,o),
(218,71,cs),
(176,71,o),
(149,95,o),
(149,159,cs),
(149,379,ls),
(149,436,o),
(177,468,o),
(227,468,cs),
(390,468,ls),
(444,468,o),
(467,453,o),
(493,419,c),
(555,466,l),
(521,516,o),
(482,544,o),
(390,544,cs),
(221,544,ls),
(119,544,o),
(62,488,o),
(62,374,cs),
(62,159,ls),
(62,55,o),
(119,-11,o),
(215,-11,cs),
(331,-11,o),
(344,89,o),
(414,89,cs),
(444,89,o),
(473,69,o),
(483,-12,c)
);
}
);
width = 600;
},
{
layerId = "FD202070-6699-4318-8E83-95414ED89137";
width = 600;
},
{
associatedMasterId = m01;
background = {
shapes = (
{
closed = 1;
nodes = (
(64,49,o),
(120,-10,o),
(213,-10,cs),
(334,-10,o),
(341,90,o),
(417,90,cs),
(452,90,o),
(475,70,o),
(485,-11,c),
(556,-1,l),
(546,115,o),
(502,169,o),
(422,169,cs),
(315,169,o),
(310,72,o),
(223,72,cs),
(180,72,o),
(151,96,o),
(151,160,cs),
(151,194,ls),
(151,375,o),
(210,468,o),
(360,468,cs),
(420,468,o),
(451,453,o),
(483,416,c),
(544,466,l),
(505,516,o),
(453,544,o),
(360,544,cs),
(163,544,o),
(64,420,o),
(64,199,cs),
(64,160,ls)
);
}
);
};
layerId = "6FEA8CD2-3342-4DA6-ACFF-9B68C9B1B0B2";
name = "19 Feb 23 00.37";
shapes = (
{
closed = 1;
nodes = (
(554,-2,l),
(544,114,o),
(495,168,o),
(416,168,cs),
(310,168,o),
(301,71,o),
(218,71,cs),
(176,71,o),
(149,95,o),
(149,159,cs),
(149,193,ls),
(149,374,o),
(206,467,o),
(356,467,cs),
(416,467,o),
(449,452,o),
(481,415,c),
(542,465,l),
(503,515,o),
(449,543,o),
(356,543,cs),
(159,543,o),
(62,419,o),
(62,198,cs),
(62,159,ls),
(62,55,o),
(119,-11,o),
(215,-11,cs),
(331,-11,o),
(344,89,o),
(414,89,cs),
(444,89,o),
(473,69,o),
(483,-12,c)
);
}
);
width = 600;
}
);
unicode = 73507;
},
{
glyphname = "dda-kawi";
layers = (
{
background = {
shapes = (
{
closed = 1;
nodes = (
(281,-10,o),
(345,39,o),
(367,148,c),
(340,143,l),
(353,34,o),
(408,-10,o),
(498,-10,cs),
(612,-10,o),
(659,62,o),
(659,149,cs),
(659,233,o),
(616,289,o),
(535,316,c),
(508,260,l),
(544,235,o),
(570,206,o),
(570,154,cs),
(570,108,o),
(550,71,o),
(489,71,cs),
(432,71,o),
(401,103,o),
(384,200,c),
(330,200,l),
(313,112,o),
(281,71,o),
(216,71,cs),
(179,71,o),
(151,85,o),
(151,132,cs),
(151,360,ls),
(151,438,o),
(117,488,o),
(44,488,c),
(-20,468,l),
(60,468,o),
(64,423,o),
(64,360,cs),
(64,136,ls),
(64,44,o),
(108,-10,o),
(197,-10,cs)
);
},
{
closed = 1;
nodes = (
(188,468,l),
(188,544,l),
(-20,544,l),
(-20,468,l)
);
}
);
};
layerId = m01;
shapes = (
{
closed = 1;
nodes = (
(281,-10,o),
(345,39,o),
(367,148,c),
(340,143,l),
(353,34,o),
(409,-10,o),
(495,-10,cs),
(605,-10,o),
(649,62,o),
(649,145,cs),
(649,224,o),
(609,273,o),
(533,297,c),
(506,241,l),
(539,218,o),
(560,198,o),
(560,151,cs),
(560,108,o),
(543,71,o),
(486,71,cs),
(433,71,o),
(401,103,o),
(384,200,c),
(330,200,l),
(313,112,o),
(281,71,o),
(216,71,cs),
(179,71,o),
(151,85,o),
(151,132,cs),
(151,379,ls),
(151,436,o),
(179,468,o),
(229,468,cs),
(479,468,ls),
(533,468,o),
(556,453,o),
(582,419,c),
(644,466,l),
(610,516,o),
(571,544,o),
(479,544,cs),
(223,544,ls),
(121,544,o),
(64,488,o),
(64,374,cs),
(64,136,ls),
(64,44,o),
(108,-10,o),
(197,-10,cs)
);
},
{
closed = 1;
nodes = (
(288,-580,o),
(347,-531,o),
(367,-422,c),
(340,-427,l),
(353,-536,o),
(409,-580,o),
(495,-580,cs),
(605,-580,o),
(649,-507,o),
(649,-428,cs),
(649,-345,o),
(600,-295,o),
(523,-276,c),
(496,-332,l),
(539,-353,o),
(560,-379,o),
(560,-422,cs),
(560,-463,o),
(543,-499,o),
(486,-499,cs),
(433,-499,o),
(401,-467,o),
(384,-370,c),
(330,-370,l),
(314,-458,o),
(285,-499,o),
(226,-499,cs),
(182,-499,o),
(151,-475,o),
(151,-388,cs),
(151,-293,o),
(187,-193,o),
(368,-145,c),
(355,-97,l),
(157,-140,o),
(64,-237,o),
(64,-394,cs),
(64,-511,o),
(123,-580,o),
(213,-580,cs)
);
}
);
width = 708;
},
{
layerId = "FD202070-6699-4318-8E83-95414ED89137";
width = 658;
},
{
associatedMasterId = m01;
layerId = "6A47C4C9-638C-414F-87F0-BBDF62F37EA3";
name = "19 Feb 23 00.35";
shapes = (
{
closed = 1;
nodes = (
(343,-10,o),
(407,39,o),
(429,148,c),
(402,143,l),
(415,34,o),
(470,-10,o),
(560,-10,cs),
(674,-10,o),
(721,62,o),
(721,149,cs),
(721,233,o),
(678,289,o),
(597,316,c),
(570,260,l),
(606,235,o),
(632,206,o),
(632,154,cs),
(632,108,o),
(612,71,o),
(551,71,cs),
(494,71,o),
(463,103,o),
(446,200,c),
(392,200,l),
(375,112,o),
(343,71,o),
(278,71,cs),
(241,71,o),
(213,85,o),
(213,132,cs),
(213,360,ls),
(213,438,o),
(179,488,o),
(106,488,c),
(42,468,l),
(122,468,o),
(126,423,o),
(126,360,cs),
(126,136,ls),
(126,44,o),
(170,-10,o),
(259,-10,cs)
);
},
{
closed = 1;
nodes = (
(250,468,l),
(250,544,l),
(42,544,l),
(42,468,l)
);
}
);
width = 780;
}
);
metricLeft = "ka-kawi";
unicode = 73502;
},
{
glyphname = "ddha-kawi";
layers = (
{
background = {
shapes = (
{
closed = 1;
nodes = (
(288,-580,o),
(347,-531,o),
(367,-422,c),
(340,-427,l),
(353,-536,o),
(409,-580,o),
(495,-580,cs),
(605,-580,o),
(649,-507,o),
(649,-428,cs),
(649,-345,o),
(600,-295,o),
(523,-276,c),
(496,-332,l),
(539,-353,o),
(560,-379,o),
(560,-422,cs),
(560,-463,o),
(543,-499,o),
(486,-499,cs),
(433,-499,o),
(401,-467,o),
(384,-370,c),
(330,-370,l),
(314,-458,o),
(285,-499,o),
(226,-499,cs),
(182,-499,o),
(151,-475,o),
(151,-388,cs),
(151,-293,o),
(187,-193,o),
(368,-145,c),
(355,-97,l),
(157,-140,o),
(64,-237,o),
(64,-394,cs),
(64,-511,o),
(123,-580,o),
(213,-580,cs)
);
}
);
};
layerId = m01;
shapes = (
{
closed = 1;
nodes = (
(434,66,o),
(401,99,o),
(384,200,c),
(330,200,l),
(313,112,o),
(281,71,o),
(216,71,cs),
(179,71,o),
(151,85,o),
(151,132,cs),
(151,379,ls),
(151,436,o),
(179,468,o),
(229,468,cs),
(479,468,ls),
(533,468,o),
(556,453,o),
(582,419,c),
(644,466,l),
(610,516,o),
(571,544,o),
(479,544,cs),
(223,544,ls),
(121,544,o),
(64,488,o),
(64,374,cs),
(64,136,ls),
(64,44,o),
(108,-10,o),
(197,-10,cs),
(281,-10,o),
(345,39,o),
(367,148,c),
(340,143,l),
(353,34,o),
(409,-10,o),
(493,-10,cs),
(614,-10,o),
(655,80,o),
(655,186,cs),
(655,306,o),
(602,357,o),
(530,357,cs),
(469,357,o),
(429,320,o),
(429,260,cs),
(429,182,o),
(501,143,o),
(584,178,c),
(589,225,l),
(544,210,o),
(492,219,o),
(492,260,cs),
(492,280,o),
(505,292,o),
(524,292,cs),
(552,292,o),
(573,266,o),
(573,190,cs),
(573,116,o),
(553,66,o),
(486,66,cs)
);
},
{
closed = 1;
nodes = (
(151,-293,o),
(187,-193,o),
(368,-145,c),
(355,-97,l),
(157,-140,o),
(64,-236,o),
(64,-396,cs),
(64,-510,o),
(111,-580,o),
(207,-580,cs),
(286,-580,o),
(346,-531,o),
(367,-422,c),
(340,-427,l),
(353,-536,o),
(409,-580,o),
(493,-580,cs),
(614,-580,o),
(655,-490,o),
(655,-384,cs),
(655,-264,o),
(602,-213,o),
(530,-213,cs),
(469,-213,o),
(429,-250,o),
(429,-310,cs),
(429,-388,o),
(501,-427,o),
(584,-392,c),
(589,-345,l),
(544,-360,o),
(492,-351,o),
(492,-310,cs),
(492,-290,o),
(505,-278,o),
(524,-278,cs),
(552,-278,o),
(573,-304,o),
(573,-380,cs),
(573,-454,o),
(553,-504,o),
(486,-504,cs),
(434,-504,o),
(401,-471,o),
(384,-370,c),
(330,-370,l),
(314,-458,o),
(285,-499,o),
(227,-499,cs),
(183,-499,o),
(151,-475,o),
(151,-387,cs)
);
}
);
width = 700;
},
{
layerId = "FD202070-6699-4318-8E83-95414ED89137";
width = 600;
},
{
associatedMasterId = m01;
layerId = "6E427250-F09B-4A63-B913-EAFB2A9ED0A5";
name = "20 Feb 23 10.42";
shapes = (
{
closed = 1;
nodes = (
(434,66,o),
(401,99,o),
(384,200,c),
(330,200,l),
(313,112,o),
(281,71,o),
(216,71,cs),
(179,71,o),
(151,85,o),
(151,132,cs),
(151,379,ls),
(151,436,o),
(179,468,o),
(229,468,cs),
(479,468,ls),
(533,468,o),
(556,453,o),
(582,419,c),
(644,466,l),
(610,516,o),
(571,544,o),
(479,544,cs),
(223,544,ls),
(121,544,o),
(64,488,o),
(64,374,cs),
(64,136,ls),
(64,44,o),
(108,-10,o),
(197,-10,cs),
(281,-10,o),
(345,39,o),
(367,148,c),
(340,143,l),
(353,34,o),
(409,-10,o),
(493,-10,cs),
(614,-10,o),
(655,80,o),
(655,186,cs),
(655,306,o),
(602,357,o),
(530,357,cs),
(469,357,o),
(429,320,o),
(429,260,cs),
(429,182,o),
(501,143,o),
(584,178,c),
(589,225,l),
(544,210,o),
(492,219,o),
(492,260,cs),
(492,280,o),
(505,292,o),
(524,292,cs),
(552,292,o),
(573,266,o),
(573,190,cs),
(573,116,o),
(553,66,o),
(486,66,cs)
);
},
{
closed = 1;
nodes = (
(288,-580,o),
(347,-531,o),
(367,-422,c),
(340,-427,l),
(353,-536,o),
(409,-580,o),
(495,-580,cs),
(605,-580,o),
(649,-507,o),
(649,-428,cs),
(649,-345,o),
(600,-295,o),
(523,-276,c),
(496,-332,l),
(539,-353,o),
(560,-379,o),
(560,-422,cs),
(560,-463,o),
(543,-499,o),
(486,-499,cs),
(433,-499,o),
(401,-467,o),
(384,-370,c),
(330,-370,l),
(314,-458,o),
(285,-499,o),
(226,-499,cs),
(182,-499,o),
(151,-475,o),
(151,-388,cs),
(151,-293,o),
(187,-193,o),
(368,-145,c),
(355,-97,l),
(157,-140,o),
(64,-237,o),
(64,-394,cs),
(64,-511,o),
(123,-580,o),
(213,-580,cs)
);
}
);
width = 700;
}
);
unicode = 73503;
},
{
glyphname = "dha-kawi";
layers = (
{
background = {
shapes = (
{
closed = 1;
nodes = (
(295,0,o),
(358,41,o),
(371,171,c),
(331,174,l),
(369,49,o),
(426,0,o),
(505,0,cs),
(608,0,o),
(675,84,o),
(675,257,cs),
(675,494,o),
(550,554,o),
(413,554,cs),
(234,554,ls),
(120,554,o),
(64,494,o),
(64,386,cs),
(64,166,ls),
(64,71,o),
(113,0,o),
(216,0,cs)
);
},
{
closed = 1;
nodes = (
(174,76,o),
(151,98,o),
(151,157,cs),
(151,400,ls),
(151,450,o),
(179,478,o),
(229,478,cs),
(418,478,ls),
(512,478,o),
(583,438,o),
(583,258,cs),
(583,109,o),
(534,76,o),
(490,76,cs),
(440,76,o),
(407,118,o),
(378,210,c),
(324,210,l),
(305,105,o),
(272,76,o),
(220,76,cs)
);
}
);
};
layerId = m01;
shapes = (
{
closed = 1;
nodes = (
(280,-10,o),
(345,39,o),
(367,148,c),
(340,143,l),
(351,40,o),
(407,-10,o),
(492,-10,cs),
(627,-10,o),
(675,118,o),
(675,262,cs),
(675,491,o),
(553,554,o),
(413,554,cs),
(234,554,ls),
(120,554,o),
(64,494,o),
(64,386,cs),
(64,146,ls),
(64,44,o),
(107,-10,o),
(196,-10,cs)
);
},
{
closed = 1;
nodes = (
(175,71,o),
(151,88,o),
(151,142,cs),
(151,400,ls),
(151,450,o),
(179,478,o),
(229,478,cs),
(418,478,ls),
(517,478,o),
(583,435,o),
(583,259,cs),
(583,148,o),
(557,71,o),
(484,71,cs),
(433,71,o),
(399,109,o),
(384,200,c),
(330,200,l),
(313,112,o),
(276,71,o),
(215,71,cs)
);
}
);
width = 730;
},
{
layerId = "FD202070-6699-4318-8E83-95414ED89137";
width = 600;
},
{
associatedMasterId = m01;
background = {
shapes = (
{
closed = 1;
nodes = (
(295,0,o),
(358,41,o),
(371,171,c),
(331,174,l),
(369,49,o),
(426,0,o),
(505,0,cs),
(608,0,o),
(675,84,o),
(675,257,cs),
(675,494,o),
(550,554,o),
(413,554,cs),
(234,554,ls),
(120,554,o),
(64,494,o),
(64,386,cs),
(64,166,ls),
(64,71,o),
(113,0,o),
(216,0,cs)
);
},
{
closed = 1;
nodes = (
(174,76,o),
(151,98,o),
(151,157,cs),
(151,400,ls),
(151,450,o),
(179,478,o),
(229,478,cs),
(418,478,ls),
(512,478,o),
(583,438,o),
(583,258,cs),
(583,109,o),
(534,76,o),
(490,76,cs),
(440,76,o),
(407,118,o),
(378,210,c),
(324,210,l),
(305,105,o),
(272,76,o),
(220,76,cs)
);
}
);
};
layerId = "F8BCB532-5FA4-4D26-884E-786EF2567877";
name = "16 Feb 23 01.02";
shapes = (
{
closed = 1;
nodes = (
(280,-10,o),
(345,39,o),
(367,148,c),
(340,143,l),
(351,40,o),
(407,-10,o),
(492,-10,cs),
(627,-10,o),
(675,118,o),
(675,262,cs),
(675,491,o),
(553,554,o),
(413,554,cs),
(234,554,ls),
(120,554,o),
(64,494,o),
(64,386,cs),
(64,146,ls),
(64,44,o),
(107,-10,o),
(196,-10,cs)
);
},
{
closed = 1;
nodes = (
(175,71,o),
(151,88,o),
(151,142,cs),
(151,400,ls),
(151,450,o),
(179,478,o),
(229,478,cs),
(418,478,ls),
(517,478,o),
(583,435,o),
(583,259,cs),
(583,148,o),
(557,71,o),
(484,71,cs),
(433,71,o),
(399,109,o),
(384,200,c),
(330,200,l),
(313,112,o),
(276,71,o),
(215,71,cs)
);
}
);
width = 730;
}
);
unicode = 73508;
},
{
color = 0;
glyphname = "e-kawi";
layers = (
{
background = {
shapes = (
{
closed = 1;
nodes = (
(295,-426,l),
(456,-363,o),
(549,-302,o),
(549,-169,cs),
(549,87,o),
(199,39,o),
(199,299,cs),
(199,396,o),
(247,478,o),
(386,478,cs),
(483,478,o),
(534,438,o),
(534,383,cs),
(534,345,o),
(510,311,o),
(461,311,cs),
(427,311,o),
(403,328,o),
(381,357,c),
(329,320,l),
(350,284,o),
(392,242,o),
(464,242,cs),
(530,242,o),
(613,277,o),
(613,386,cs),
(613,499,o),
(521,554,o),
(390,554,cs),
(202,554,o),
(112,440,o),
(112,288,cs),
(112,-12,o),
(461,21,o),
(461,-175,cs),
(461,-252,o),
(408,-309,o),
(269,-369,c)
);
}
);
};
layerId = m01;
shapes = (
{
closed = 1;
nodes = (
(465,-518,o),
(549,-438,o),
(549,-302,cs),
(549,1,o),
(129,-125,o),
(129,235,cs),
(129,392,o),
(209,478,o),
(353,478,cs),
(493,478,o),
(564,396,o),
(564,275,cs),
(564,206,o),
(541,154,o),
(499,154,cs),
(428,154,o),
(444,302,o),
(324,302,cs),
(242,302,o),
(184,233,o),
(244,82,c),
(305,97,l),
(283,169,o),
(287,227,o),
(329,227,cs),
(396,227,o),
(379,80,o),
(499,80,cs),
(582,80,o),
(643,149,o),
(643,276,cs),
(643,449,o),
(535,554,o),
(353,554,cs),
(163,554,o),
(42,440,o),
(42,230,cs),
(42,-162,o),
(461,-78,o),
(461,-306,cs),
(461,-391,o),
(403,-468,o),
(269,-519,c),
(295,-576,l)
);
}
);
width = 681;
},
{
layerId = "FD202070-6699-4318-8E83-95414ED89137";
width = 600;
},
{
associatedMasterId = m01;
layerId = "21617831-3705-466B-9022-6AD3FEA62540";
name = "19 Feb 23 00.54";
shapes = (
{
closed = 1;
nodes = (
(554,-52,l),
(542,68,o),
(498,118,o),
(408,118,cs),
(321,118,o),
(292,71,o),
(223,71,cs),
(176,71,o),
(149,93,o),
(149,159,cs),
(149,193,ls),
(149,372,o),
(206,478,o),
(344,478,cs),
(449,478,o),
(489,433,o),
(489,409,cs),
(489,398,o),
(463,393,o),
(423,393,cs),
(395,393,o),
(368,436,o),
(359,500,c),
(290,493,l),
(339,430,o),
(342,324,o),
(427,324,cs),
(471,324,o),
(553,351,o),
(553,426,cs),
(553,497,o),
(474,554,o),
(341,554,cs),
(158,554,o),
(62,408,o),
(62,198,cs),
(62,159,ls),
(62,55,o),
(115,-11,o),
(224,-11,cs),
(319,-11,o),
(353,39,o),
(409,39,cs),
(445,39,o),
(473,19,o),
(483,-62,c)
);
}
);
width = 600;
},
{
associatedMasterId = m01;
background = {
shapes = (
{
closed = 1;
nodes = (
(554,-52,l),
(542,68,o),
(498,118,o),
(408,118,cs),
(321,118,o),
(292,71,o),
(223,71,cs),
(176,71,o),
(149,93,o),
(149,159,cs),
(149,193,ls),
(149,372,o),
(206,478,o),
(344,478,cs),
(449,478,o),
(489,433,o),
(489,409,cs),
(489,398,o),
(463,393,o),
(423,393,cs),
(395,393,o),
(368,436,o),
(359,500,c),
(290,493,l),
(339,430,o),
(342,324,o),
(427,324,cs),
(471,324,o),
(553,351,o),
(553,426,cs),
(553,497,o),
(474,554,o),
(341,554,cs),
(158,554,o),
(62,408,o),
(62,198,cs),
(62,159,ls),
(62,55,o),
(115,-11,o),
(224,-11,cs),
(319,-11,o),
(353,39,o),
(409,39,cs),
(445,39,o),
(473,19,o),
(483,-62,c)
);
}
);
};
layerId = "BBE85ECC-A7F4-4BB8-BF91-DCDC8E002849";
name = "19 Feb 23 01.02";
shapes = (
{
closed = 1;
nodes = (
(554,-52,l),
(542,68,o),
(498,118,o),
(408,118,cs),
(321,118,o),
(292,71,o),
(223,71,cs),
(176,71,o),
(149,93,o),
(149,159,cs),
(149,193,ls),
(149,372,o),
(206,478,o),
(344,478,cs),
(449,478,o),
(489,433,o),
(489,389,cs),
(489,346,o),
(453,314,o),
(399,314,cs),
(371,314,o),
(344,331,o),
(334,357,c),
(279,323,l),
(309,276,o),
(326,245,o),
(403,245,cs),
(459,245,o),
(563,293,o),
(563,392,cs),
(563,497,o),
(480,554,o),
(341,554,cs),
(158,554,o),
(62,408,o),
(62,198,cs),
(62,159,ls),
(62,55,o),
(115,-11,o),
(224,-11,cs),
(319,-11,o),
(353,39,o),
(409,39,cs),
(445,39,o),
(473,19,o),
(483,-62,c)
);
}
);
width = 600;
},
{
associatedMasterId = m01;
background = {
shapes = (
{
closed = 1;
nodes = (
(554,-52,l),
(542,68,o),
(498,118,o),
(408,118,cs),
(321,118,o),
(292,71,o),
(223,71,cs),
(176,71,o),
(149,93,o),
(149,159,cs),
(149,193,ls),
(149,372,o),
(206,478,o),
(344,478,cs),
(449,478,o),
(489,433,o),
(489,389,cs),
(489,346,o),
(453,314,o),
(399,314,cs),
(371,314,o),
(344,331,o),
(334,357,c),
(279,323,l),
(309,276,o),
(326,245,o),
(403,245,cs),
(459,245,o),
(563,293,o),
(563,392,cs),
(563,497,o),
(480,554,o),
(341,554,cs),
(158,554,o),
(62,408,o),
(62,198,cs),
(62,159,ls),
(62,55,o),
(115,-11,o),
(224,-11,cs),
(319,-11,o),
(353,39,o),
(409,39,cs),
(445,39,o),
(473,19,o),
(483,-62,c)
);
}
);
};
layerId = "707D2FB1-9E97-418F-BCC5-404C9860FF68";
name = "19 Feb 23 17.42";
shapes = (
{
closed = 1;
nodes = (
(458,-244,l),
(578,141,o),
(149,-6,o),
(149,293,cs),
(149,395,o),
(199,478,o),
(341,478,cs),
(445,478,o),
(484,434,o),
(484,386,cs),
(484,339,o),
(448,314,o),
(404,314,cs),
(371,314,o),
(346,328,o),
(334,357,c),
(279,323,l),
(303,286,o),
(322,245,o),
(398,245,cs),
(464,245,o),
(563,276,o),
(563,392,cs),
(563,497,o),
(483,554,o),
(344,554,cs),
(156,554,o),
(62,450,o),
(62,284,cs),
(62,-61,o),
(509,89,o),
(398,-220,c)
);
}
);
width = 600;
},
{
associatedMasterId = m01;
background = {
shapes = (
{
closed = 1;
nodes = (
(458,-244,l),
(578,141,o),
(149,-6,o),
(149,293,cs),
(149,395,o),
(199,478,o),
(341,478,cs),
(445,478,o),
(484,434,o),
(484,386,cs),
(484,339,o),
(448,314,o),
(404,314,cs),
(371,314,o),
(346,328,o),
(334,357,c),
(279,323,l),
(303,286,o),
(322,245,o),
(398,245,cs),
(464,245,o),
(563,276,o),
(563,392,cs),
(563,497,o),
(483,554,o),
(344,554,cs),
(156,554,o),
(62,450,o),
(62,284,cs),
(62,-61,o),
(509,89,o),
(398,-220,c)
);
}
);
};
layerId = "AE62DA5A-D3A0-4C72-B5B8-F50C25B94E6C";
name = "19 Feb 23 17.43";
shapes = (
{
closed = 1;
nodes = (
(240,-426,l),
(402,-365,o),
(499,-278,o),
(499,-144,cs),
(499,111,o),
(149,11,o),
(149,295,cs),
(149,391,o),
(189,478,o),
(333,478,cs),
(433,478,o),
(484,436,o),
(484,384,cs),
(484,340,o),
(448,314,o),
(404,314,cs),
(371,314,o),
(346,328,o),
(334,357,c),
(279,323,l),
(303,286,o),
(322,245,o),
(398,245,cs),
(464,245,o),
(563,277,o),
(563,390,cs),
(563,498,o),
(472,554,o),
(336,554,cs),
(146,554,o),
(62,446,o),
(62,286,cs),
(62,-39,o),
(411,36,o),
(411,-153,cs),
(411,-225,o),
(361,-309,o),
(219,-369,c)
);
}
);
width = 600;
},
{
associatedMasterId = m01;
background = {
shapes = (
{
closed = 1;
nodes = (
(240,-426,l),
(402,-365,o),
(499,-278,o),
(499,-144,cs),
(499,111,o),
(149,11,o),
(149,295,cs),
(149,391,o),
(189,478,o),
(333,478,cs),
(433,478,o),
(484,436,o),
(484,384,cs),
(484,340,o),
(448,314,o),
(404,314,cs),
(371,314,o),
(346,328,o),
(334,357,c),
(279,323,l),
(303,286,o),
(322,245,o),
(398,245,cs),
(464,245,o),
(563,277,o),
(563,390,cs),
(563,498,o),
(472,554,o),
(336,554,cs),
(146,554,o),
(62,446,o),
(62,286,cs),
(62,-39,o),
(411,36,o),
(411,-153,cs),
(411,-225,o),
(361,-309,o),
(219,-369,c)
);
}
);
};
layerId = "B1F11DF2-B6D8-4F06-990D-F3A6F13152C6";
name = "19 Feb 23 18.35";
shapes = (
{
closed = 1;
nodes = (
(245,-426,l),
(406,-363,o),
(499,-302,o),
(499,-169,cs),
(499,87,o),
(149,39,o),
(149,299,cs),
(149,396,o),
(197,478,o),
(336,478,cs),
(433,478,o),
(484,438,o),
(484,383,cs),
(484,345,o),
(460,311,o),
(411,311,cs),
(377,311,o),
(353,328,o),
(331,357,c),
(279,320,l),
(300,284,o),
(342,242,o),
(414,242,cs),
(480,242,o),
(563,277,o),
(563,386,cs),
(563,499,o),
(471,554,o),
(340,554,cs),
(152,554,o),
(62,440,o),
(62,288,cs),
(62,-12,o),
(411,21,o),
(411,-175,cs),
(411,-252,o),
(358,-309,o),
(219,-369,c)
);
}
);
width = 600;
}
);
unicode = 73486;
},
{
glyphname = "ga-kawi";
layers = (
{
layerId = m01;
shapes = (
{
closed = 1;
nodes = (
(218,64,l),
(172,79,o),
(151,93,o),
(151,143,cs),
(151,390,ls),
(151,440,o),
(179,468,o),
(229,468,cs),
(460,468,ls),
(510,468,o),
(538,440,o),
(538,390,cs),
(538,0,l),
(625,0,l),
(625,396,ls),
(625,491,o),
(569,544,o),
(455,544,cs),
(234,544,ls),
(120,544,o),
(64,491,o),
(64,396,cs),
(64,145,ls),
(64,35,o),
(113,7,o),
(189,-10,c)
);
}
);
width = 700;
},
{
layerId = "FD202070-6699-4318-8E83-95414ED89137";
shapes = (
{
closed = 1;
nodes = (
(245,97,l),
(217,115,o),
(205,131,o),
(205,170,cs),
(205,353,ls),
(205,395,o),
(228,418,o),
(270,418,cs),
(485,418,ls),
(527,418,o),
(550,395,o),
(550,353,cs),
(550,0,l),
(697,0,l),
(697,359,ls),
(697,478,o),
(643,544,o),
(500,544,cs),
(265,544,ls),
(133,544,o),
(58,478,o),
(58,359,cs),
(58,145,ls),
(58,51,o),
(100,24,o),
(174,-10,c)
);
}
);
width = 760;
}
);
metricLeft = "ka-kawi";
metricRight = "ka-kawi";
unicode = 73492;
},
{
glyphname = "gha-kawi";
layers = (
{
background = {
shapes = (
{
closed = 1;
nodes = (
(162,47,l),
(142,64,o),
(133,80,o),
(133,116,cs),
(133,390,ls),
(133,440,o),
(161,468,o),
(211,468,cs),
(260,468,ls),
(310,468,o),
(338,440,o),
(338,390,cs),
(338,148,ls),
(338,53,o),
(394,0,o),
(508,0,cs),
(554,0,ls),
(625,0,o),
(695,32,o),
(695,156,c),
(669,156,l),
(669,32,o),
(742,0,o),
(812,0,cs),
(859,0,ls),
(973,0,o),
(1029,54,o),
(1029,150,cs),
(1029,360,ls),
(1029,438,o),
(995,488,o),
(922,488,c),
(858,468,l),
(938,468,o),
(942,423,o),
(942,360,cs),
(942,156,ls),
(942,105,o),
(914,76,o),
(864,76,cs),
(806,76,ls),
(765,76,o),
(727,96,o),
(727,156,cs),
(727,360,ls),
(727,438,o),
(693,488,o),
(620,488,c),
(556,468,l),
(636,468,o),
(640,423,o),
(640,360,cs),
(640,156,ls),
(640,95,o),
(603,76,o),
(562,76,cs),
(503,76,ls),
(453,76,o),
(425,104,o),
(425,154,cs),
(425,396,ls),
(425,491,o),
(369,544,o),
(255,544,cs),
(216,544,ls),
(102,544,o),
(46,491,o),
(46,396,cs),
(46,105,ls),
(46,41,o),
(69,11,o),
(105,-10,c)
);
},
{
closed = 1;
nodes = (
(764,468,l),
(764,544,l),
(556,544,l),
(556,468,l)
);
},
{
closed = 1;
nodes = (
(1066,468,l),
(1066,544,l),
(858,544,l),
(858,468,l)
);
}
);
};
layerId = m01;
shapes = (
{
closed = 1;
nodes = (
(260,468,ls),
(310,468,o),
(338,440,o),
(338,390,cs),
(338,148,ls),
(338,53,o),
(394,0,o),
(508,0,cs),
(554,0,ls),
(625,0,o),
(695,32,o),
(695,156,c),
(669,156,l),
(669,32,o),
(742,0,o),
(812,0,cs),
(859,0,ls),
(973,0,o),
(1029,54,o),
(1029,150,cs),
(1029,360,ls),
(1029,438,o),
(995,488,o),
(922,488,c),
(858,468,l),
(938,468,o),
(942,423,o),
(942,360,cs),
(942,156,ls),
(942,105,o),
(914,76,o),
(864,76,cs),
(806,76,ls),
(765,76,o),
(727,96,o),
(727,156,cs),
(727,360,ls),
(727,438,o),
(693,488,o),
(620,488,c),
(556,468,l),
(636,468,o),
(640,423,o),
(640,360,cs),
(640,156,ls),
(640,95,o),
(603,76,o),
(562,76,cs),
(503,76,ls),
(453,76,o),
(425,104,o),
(425,154,cs),
(425,396,ls),
(425,491,o),
(370,544,o),
(256,544,cs),
(235,544,ls),
(121,544,o),
(64,491,o),
(64,396,cs),
(64,145,ls),
(64,35,o),
(113,7,o),
(189,-10,c),
(218,64,l),
(172,79,o),
(151,93,o),
(151,143,cs),
(151,390,ls),
(151,440,o),
(179,468,o),
(229,468,cs)
);
},
{
closed = 1;
nodes = (
(764,468,l),
(764,544,l),
(556,544,l),
(556,468,l)
);
},
{
closed = 1;
nodes = (
(1066,468,l),
(1066,544,l),
(858,544,l),
(858,468,l)
);
}
);
width = 1102;
},
{
layerId = "FD202070-6699-4318-8E83-95414ED89137";
width = 1666;
},
{
associatedMasterId = m01;
background = {
shapes = (
{
closed = 1;
nodes = (
(194,47,l),
(174,64,o),
(165,80,o),
(165,116,cs),
(165,390,ls),
(165,440,o),
(193,468,o),
(243,468,cs),
(292,468,ls),
(342,468,o),
(370,440,o),
(370,390,cs),
(370,148,ls),
(370,53,o),
(426,0,o),
(540,0,cs),
(589,0,ls),
(703,0,o),
(759,53,o),
(759,148,cs),
(759,384,l),
(678,488,l),
(598,468,l),
(672,374,l),
(672,154,ls),
(672,104,o),
(644,76,o),
(594,76,cs),
(535,76,ls),
(485,76,o),
(457,104,o),
(457,154,cs),
(457,396,ls),
(457,491,o),
(401,544,o),
(287,544,cs),
(248,544,ls),
(134,544,o),
(78,491,o),
(78,396,cs),
(78,105,ls),
(78,41,o),
(101,11,o),
(137,-10,c)
);
},
{
closed = 1;
nodes = (
(891,0,ls),
(1005,0,o),
(1061,53,o),
(1061,148,cs),
(1061,384,l),
(980,488,l),
(900,468,l),
(974,374,l),
(974,154,ls),
(974,104,o),
(946,76,o),
(896,76,cs),
(830,76,ls),
(794,76,o),
(766,96,o),
(746,157,c),
(694,130,l),
(723,39,o),
(768,0,o),
(842,0,cs)
);
},
{
closed = 1;
nodes = (
(800,468,l),
(800,544,l),
(598,544,l),
(598,468,l)
);
},
{
closed = 1;
nodes = (
(1102,468,l),
(1102,544,l),
(900,544,l),
(900,468,l)
);
}
);
};
layerId = "D6707604-F3CE-4CBF-81D4-99FB458A6915";
name = "9 Feb 23 21.07";
shapes = (
{
closed = 1;
nodes = (
(194,47,l),
(174,64,o),
(165,80,o),
(165,116,cs),
(165,390,ls),
(165,440,o),
(193,468,o),
(243,468,cs),
(292,468,ls),
(342,468,o),
(370,440,o),
(370,390,cs),
(370,148,ls),
(370,53,o),
(426,0,o),
(540,0,cs),
(589,0,ls),
(703,0,o),
(759,53,o),
(759,148,cs),
(759,384,l),
(678,488,l),
(598,468,l),
(672,374,l),
(672,154,ls),
(672,104,o),
(644,76,o),
(594,76,cs),
(535,76,ls),
(485,76,o),
(457,104,o),
(457,154,cs),
(457,396,ls),
(457,491,o),
(401,544,o),
(287,544,cs),
(248,544,ls),
(134,544,o),
(78,491,o),
(78,396,cs),
(78,105,ls),
(78,41,o),
(101,11,o),
(137,-10,c)
);
},
{
closed = 1;
nodes = (
(891,0,ls),
(1005,0,o),
(1061,53,o),
(1061,148,cs),
(1061,384,l),
(980,488,l),
(900,468,l),
(974,374,l),
(974,154,ls),
(974,104,o),
(946,76,o),
(896,76,cs),
(830,76,ls),
(794,76,o),
(766,96,o),
(746,157,c),
(694,130,l),
(723,39,o),
(768,0,o),
(842,0,cs)
);
},
{
closed = 1;
nodes = (
(800,468,l),
(800,544,l),
(598,544,l),
(598,468,l)
);
},
{
closed = 1;
nodes = (
(1102,468,l),
(1102,544,l),
(900,544,l),
(900,468,l)
);
}
);
width = 1180;
},
{
associatedMasterId = m01;
background = {
shapes = (
{
closed = 1;
nodes = (
(194,47,l),
(174,64,o),
(165,80,o),
(165,116,cs),
(165,390,ls),
(165,440,o),
(193,468,o),
(243,468,cs),
(292,468,ls),
(342,468,o),
(370,440,o),
(370,390,cs),
(370,148,ls),
(370,53,o),
(426,0,o),
(540,0,cs),
(589,0,ls),
(703,0,o),
(759,53,o),
(759,148,cs),
(759,384,l),
(678,488,l),
(598,468,l),
(672,374,l),
(672,154,ls),
(672,104,o),
(644,76,o),
(594,76,cs),
(535,76,ls),
(485,76,o),
(457,104,o),
(457,154,cs),
(457,396,ls),
(457,491,o),
(401,544,o),
(287,544,cs),
(248,544,ls),
(134,544,o),
(78,491,o),
(78,396,cs),
(78,105,ls),
(78,41,o),
(101,11,o),
(137,-10,c)
);
},
{
closed = 1;
nodes = (
(891,0,ls),
(1005,0,o),
(1061,53,o),
(1061,148,cs),
(1061,384,l),
(980,488,l),
(900,468,l),
(974,374,l),
(974,154,ls),
(974,104,o),
(946,76,o),
(896,76,cs),
(830,76,ls),
(794,76,o),
(766,96,o),
(746,157,c),
(694,130,l),
(723,39,o),
(768,0,o),
(842,0,cs)
);
},
{
closed = 1;
nodes = (
(800,468,l),
(800,544,l),
(598,544,l),
(598,468,l)
);
},
{
closed = 1;
nodes = (
(1102,468,l),
(1102,544,l),
(900,544,l),
(900,468,l)
);
}
);
};
layerId = "2894A91F-52FC-44BC-AFFF-D3C0A303FC70";
name = "10 Feb 23 01.56";
shapes = (
{
closed = 1;
nodes = (
(194,47,l),
(174,64,o),
(165,80,o),
(165,116,cs),
(165,390,ls),
(165,440,o),
(193,468,o),
(243,468,cs),
(292,468,ls),
(342,468,o),
(370,440,o),
(370,390,cs),
(370,148,ls),
(370,53,o),
(426,0,o),
(540,0,cs),
(586,0,ls),
(657,0,o),
(727,32,o),
(727,156,c),
(701,156,l),
(701,32,o),
(774,0,o),
(844,0,cs),
(891,0,ls),
(1005,0,o),
(1061,53,o),
(1061,148,cs),
(1061,384,l),
(980,488,l),
(900,468,l),
(974,374,l),
(974,154,ls),
(974,104,o),
(946,76,o),
(896,76,cs),
(838,76,ls),
(797,76,o),
(759,96,o),
(759,156,cs),
(759,384,l),
(678,488,l),
(598,468,l),
(672,374,l),
(672,156,ls),
(672,95,o),
(635,76,o),
(594,76,cs),
(535,76,ls),
(485,76,o),
(457,104,o),
(457,154,cs),
(457,396,ls),
(457,491,o),
(401,544,o),
(287,544,cs),
(248,544,ls),
(134,544,o),
(78,491,o),
(78,396,cs),
(78,105,ls),
(78,41,o),
(101,11,o),
(137,-10,c)
);
},
{
closed = 1;
nodes = (
(800,468,l),
(800,544,l),
(598,544,l),
(598,468,l)
);
},
{
closed = 1;
nodes = (
(1102,468,l),
(1102,544,l),
(900,544,l),
(900,468,l)
);
}
);
width = 1137;
},
{
associatedMasterId = m01;
background = {
shapes = (
{
closed = 1;
nodes = (
(194,47,l),
(174,64,o),
(165,80,o),
(165,116,cs),
(165,390,ls),
(165,440,o),
(193,468,o),
(243,468,cs),
(292,468,ls),
(342,468,o),
(370,440,o),
(370,390,cs),
(370,148,ls),
(370,53,o),
(426,0,o),
(540,0,cs),
(586,0,ls),
(657,0,o),
(727,32,o),
(727,156,c),
(701,156,l),
(701,32,o),
(774,0,o),
(844,0,cs),
(891,0,ls),
(1005,0,o),
(1061,53,o),
(1061,148,cs),
(1061,384,l),
(980,488,l),
(900,468,l),
(974,374,l),
(974,154,ls),
(974,104,o),
(946,76,o),
(896,76,cs),
(838,76,ls),
(797,76,o),
(759,96,o),
(759,156,cs),
(759,384,l),
(678,488,l),
(598,468,l),
(672,374,l),
(672,156,ls),
(672,95,o),
(635,76,o),
(594,76,cs),
(535,76,ls),
(485,76,o),
(457,104,o),
(457,154,cs),
(457,396,ls),
(457,491,o),
(401,544,o),
(287,544,cs),
(248,544,ls),
(134,544,o),
(78,491,o),
(78,396,cs),
(78,105,ls),
(78,41,o),
(101,11,o),
(137,-10,c)
);
},
{
closed = 1;
nodes = (
(800,468,l),
(800,544,l),
(598,544,l),
(598,468,l)
);
},
{
closed = 1;
nodes = (
(1102,468,l),
(1102,544,l),
(900,544,l),
(900,468,l)
);
}
);
};
layerId = "7A363327-A3CE-4AC0-902F-61362E8F8A9D";
name = "10 Feb 23 02.07";
shapes = (
{
closed = 1;
nodes = (
(194,47,l),
(174,64,o),
(165,80,o),
(165,116,cs),
(165,390,ls),
(165,440,o),
(193,468,o),
(243,468,cs),
(292,468,ls),
(342,468,o),
(370,440,o),
(370,390,cs),
(370,148,ls),
(370,53,o),
(426,0,o),
(540,0,cs),
(586,0,ls),
(657,0,o),
(727,32,o),
(727,156,c),
(701,156,l),
(701,32,o),
(774,0,o),
(844,0,cs),
(891,0,ls),
(1005,0,o),
(1061,54,o),
(1061,150,cs),
(1061,360,ls),
(1061,438,o),
(1027,488,o),
(954,488,c),
(890,468,l),
(970,468,o),
(974,423,o),
(974,360,cs),
(974,156,ls),
(974,105,o),
(946,76,o),
(896,76,cs),
(838,76,ls),
(797,76,o),
(759,96,o),
(759,156,cs),
(759,360,ls),
(759,438,o),
(725,488,o),
(652,488,c),
(588,468,l),
(668,468,o),
(672,423,o),
(672,360,cs),
(672,156,ls),
(672,95,o),
(635,76,o),
(594,76,cs),
(535,76,ls),
(485,76,o),
(457,104,o),
(457,154,cs),
(457,396,ls),
(457,491,o),
(401,544,o),
(287,544,cs),
(248,544,ls),
(134,544,o),
(78,491,o),
(78,396,cs),
(78,105,ls),
(78,41,o),
(101,11,o),
(137,-10,c)
);
},
{
closed = 1;
nodes = (
(796,468,l),
(796,544,l),
(588,544,l),
(588,468,l)
);
},
{
closed = 1;
nodes = (
(1098,468,l),
(1098,544,l),
(890,544,l),
(890,468,l)
);
}
);
width = 1157;
}
);
metricLeft = "ka-kawi";
metricRight = "ra-kawi";
unicode = 73493;
},
{
glyphname = "ha-kawi";
layers = (
{
background = {
shapes = (
{
closed = 1;
nodes = (
(785,51,o),
(825,138,o),
(825,275,cs),
(825,472,o),
(742,544,o),
(612,544,cs),
(474,544,o),
(406,462,o),
(406,316,cs),
(406,154,ls),
(406,104,o),
(382,76,o),
(338,76,cs),
(275,76,ls),
(231,76,o),
(207,104,o),
(207,154,cs),
(207,360,ls),
(207,438,o),
(173,488,o),
(100,488,c),
(36,468,l),
(116,468,o),
(120,423,o),
(120,360,cs),
(120,148,ls),
(120,53,o),
(173,0,o),
(280,0,cs),
(333,0,ls),
(440,0,o),
(493,53,o),
(493,148,cs),
(493,310,ls),
(493,414,o),
(534,463,o),
(612,463,cs),
(674,463,o),
(733,432,o),
(733,269,cs),
(733,161,o),
(707,82,o),
(675,29,c),
(739,-10,l)
);
},
{
closed = 1;
nodes = (
(244,468,l),
(244,544,l),
(36,544,l),
(36,468,l)
);
}
);
};
layerId = m01;
shapes = (
{
closed = 1;
nodes = (
(333,0,ls),
(440,0,o),
(493,53,o),
(493,148,cs),
(493,390,ls),
(493,440,o),
(521,468,o),
(571,468,cs),
(614,468,ls),
(664,468,o),
(692,440,o),
(692,390,cs),
(692,0,l),
(779,0,l),
(779,396,ls),
(779,491,o),
(723,544,o),
(609,544,cs),
(576,544,ls),
(462,544,o),
(406,491,o),
(406,396,cs),
(406,154,ls),
(406,104,o),
(382,76,o),
(338,76,cs),
(275,76,ls),
(231,76,o),
(207,104,o),
(207,154,cs),
(207,360,ls),
(207,438,o),
(173,488,o),
(100,488,c),
(36,468,l),
(116,468,o),
(120,423,o),
(120,360,cs),
(120,148,ls),
(120,53,o),
(173,0,o),
(280,0,cs)
);
},
{
closed = 1;
nodes = (
(244,468,l),
(244,544,l),
(36,544,l),
(36,468,l)
);
}
);
width = 854;
},
{
layerId = "FD202070-6699-4318-8E83-95414ED89137";
width = 1415;
},
{
associatedMasterId = m01;
background = {
shapes = (
{
closed = 1;
nodes = (
(826,47,o),
(868,137,o),
(868,277,cs),
(868,472,o),
(782,544,o),
(648,544,cs),
(505,544,o),
(434,462,o),
(434,316,cs),
(434,154,ls),
(434,104,o),
(410,76,o),
(366,76,cs),
(303,76,ls),
(259,76,o),
(235,104,o),
(235,154,cs),
(235,428,ls),
(235,469,o),
(243,487,o),
(260,506,c),
(197,554,l),
(167,529,o),
(148,499,o),
(148,439,cs),
(148,148,ls),
(148,53,o),
(201,0,o),
(308,0,cs),
(361,0,ls),
(468,0,o),
(521,53,o),
(521,148,cs),
(521,310,ls),
(521,414,o),
(565,463,o),
(648,463,cs),
(714,463,o),
(776,432,o),
(776,269,cs),
(776,161,o),
(748,78,o),
(708,29,c),
(772,-10,l)
);
}
);
};
layerId = "C24E93F3-884F-4036-AE26-43D1309093C4";
name = "12 Feb 23 17.35";
shapes = (
{
closed = 1;
nodes = (
(826,47,o),
(868,137,o),
(868,277,cs),
(868,472,o),
(782,544,o),
(648,544,cs),
(505,544,o),
(434,462,o),
(434,316,cs),
(434,154,ls),
(434,104,o),
(410,76,o),
(366,76,cs),
(303,76,ls),
(259,76,o),
(235,104,o),
(235,154,cs),
(235,360,ls),
(235,438,o),
(201,488,o),
(128,488,c),
(64,468,l),
(144,468,o),
(148,423,o),
(148,360,cs),
(148,148,ls),
(148,53,o),
(201,0,o),
(308,0,cs),
(361,0,ls),
(468,0,o),
(521,53,o),
(521,148,cs),
(521,310,ls),
(521,414,o),
(565,463,o),
(648,463,cs),
(714,463,o),
(776,432,o),
(776,269,cs),
(776,161,o),
(748,78,o),
(708,29,c),
(772,-10,l)
);
},
{
closed = 1;
nodes = (
(272,468,l),
(272,544,l),
(64,544,l),
(64,468,l)
);
}
);
width = 938;
},
{
associatedMasterId = m01;
background = {
shapes = (
{
closed = 1;
nodes = (
(826,47,o),
(868,137,o),
(868,277,cs),
(868,472,o),
(782,544,o),
(648,544,cs),
(505,544,o),
(434,462,o),
(434,316,cs),
(434,154,ls),
(434,104,o),
(410,76,o),
(366,76,cs),
(303,76,ls),
(259,76,o),
(235,104,o),
(235,154,cs),
(235,360,ls),
(235,438,o),
(201,488,o),
(128,488,c),
(64,468,l),
(144,468,o),
(148,423,o),
(148,360,cs),
(148,148,ls),
(148,53,o),
(201,0,o),
(308,0,cs),
(361,0,ls),
(468,0,o),
(521,53,o),
(521,148,cs),
(521,310,ls),
(521,414,o),
(565,463,o),
(648,463,cs),
(714,463,o),
(776,432,o),
(776,269,cs),
(776,161,o),
(748,78,o),
(708,29,c),
(772,-10,l)
);
},
{
closed = 1;
nodes = (
(272,468,l),
(272,544,l),
(64,544,l),
(64,468,l)
);
}
);
};
layerId = "96426331-750F-45FA-B82B-C53F7B60BB06";
name = "16 Feb 23 01.07";
shapes = (
{
closed = 1;
nodes = (
(813,51,o),
(853,138,o),
(853,275,cs),
(853,472,o),
(770,544,o),
(640,544,cs),
(502,544,o),
(434,462,o),
(434,316,cs),
(434,154,ls),
(434,104,o),
(410,76,o),
(366,76,cs),
(303,76,ls),
(259,76,o),
(235,104,o),
(235,154,cs),
(235,360,ls),
(235,438,o),
(201,488,o),
(128,488,c),
(64,468,l),
(144,468,o),
(148,423,o),
(148,360,cs),
(148,148,ls),
(148,53,o),
(201,0,o),
(308,0,cs),
(361,0,ls),
(468,0,o),
(521,53,o),
(521,148,cs),
(521,310,ls),
(521,414,o),
(562,463,o),
(640,463,cs),
(702,463,o),
(761,432,o),
(761,269,cs),
(761,161,o),
(735,82,o),
(703,29,c),
(767,-10,l)
);
},
{
closed = 1;
nodes = (
(272,468,l),
(272,544,l),
(64,544,l),
(64,468,l)
);
}
);
width = 926;
}
);
metricLeft = "=|ra-kawi";
metricRight = "ka-kawi";
unicode = 73522;
},
{
glyphname = "i-kawi";
layers = (
{
background = {
shapes = (
{
closed = 1;
nodes = (
(218,64,l),
(172,79,o),
(151,93,o),
(151,143,cs),
(151,388,ls),
(151,441,o),
(170,473,o),
(213,473,cs),
(259,473,o),
(292,435,o),
(307,344,c),
(361,344,l),
(388,432,o),
(420,473,o),
(472,473,cs),
(503,473,o),
(523,460,o),
(523,417,cs),
(523,0,l),
(610,0,l),
(610,426,ls),
(610,507,o),
(570,554,o),
(494,554,cs),
(417,554,o),
(358,506,o),
(324,396,c),
(351,401,l),
(340,504,o),
(283,554,o),
(202,554,cs),
(105,554,o),
(64,483,o),
(64,388,cs),
(64,145,ls),
(64,35,o),
(113,7,o),
(189,-10,c)
);
}
);
};
layerId = m01;
shapes = (
{
closed = 1;
nodes = (
(218,64,l),
(172,79,o),
(151,93,o),
(151,143,cs),
(151,405,ls),
(151,451,o),
(170,473,o),
(211,473,cs),
(258,473,o),
(288,441,o),
(297,344,c),
(371,344,l),
(385,432,o),
(418,473,o),
(472,473,cs),
(503,473,o),
(523,457,o),
(523,405,cs),
(523,0,l),
(610,0,l),
(610,414,ls),
(610,503,o),
(568,554,o),
(489,554,cs),
(413,554,o),
(338,506,o),
(320,396,c),
(347,401,l),
(342,510,o),
(282,554,o),
(202,554,cs),
(105,554,o),
(64,493,o),
(64,414,cs),
(64,145,ls),
(64,35,o),
(113,7,o),
(189,-10,c)
);
},
{
closed = 1;
nodes = (
(257,-374,l),
(184,-344,o),
(167,-310,o),
(167,-271,cs),
(167,-200,o),
(223,-177,o),
(302,-177,cs),
(456,-177,o),
(531,-269,o),
(569,-428,c),
(641,-407,l),
(601,-205,o),
(492,-96,o),
(302,-96,cs),
(151,-96,o),
(79,-166,o),
(79,-272,cs),
(79,-354,o),
(123,-401,o),
(224,-439,c)
);
}
);
width = 716;
},
{
background = {
shapes = (
{
closed = 1;
nodes = (
(263,-371,l),
(190,-347,o),
(173,-310,o),
(173,-271,cs),
(173,-200,o),
(229,-177,o),
(308,-177,cs),
(462,-177,o),
(537,-269,o),
(575,-428,c),
(647,-407,l),
(607,-205,o),
(498,-96,o),
(308,-96,cs),
(157,-96,o),
(85,-166,o),
(85,-274,cs),
(85,-358,o),
(129,-406,o),
(230,-439,c)
);
}
);
};
layerId = "FD202070-6699-4318-8E83-95414ED89137";
shapes = (
{
closed = 1;
nodes = (
(243,97,l),
(212,115,o),
(204,132,o),
(204,170,cs),
(204,372,ls),
(204,411,o),
(218,428,o),
(241,428,cs),
(272,428,o),
(283,400,o),
(293,316,c),
(393,316,l),
(403,395,o),
(422,428,o),
(456,428,cs),
(481,428,o),
(501,415,o),
(501,360,cs),
(501,0,l),
(648,0,l),
(648,388,ls),
(648,498,o),
(588,554,o),
(494,554,cs),
(396,554,o),
(337,489,o),
(307,338,c),
(377,338,l),
(360,503,o),
(297,554,o),
(210,554,cs),
(111,554,o),
(58,483,o),
(58,388,cs),
(58,145,ls),
(58,51,o),
(95,24,o),
(177,-10,c)
);
},
{
closed = 1;
nodes = (
(287,-330,l),
(238,-311,o),
(226,-290,o),
(226,-264,cs),
(226,-229,o),
(249,-211,o),
(299,-211,cs),
(403,-211,o),
(492,-290,o),
(524,-428,c),
(646,-393,l),
(607,-200,o),
(483,-80,o),
(294,-80,cs),
(147,-80,o),
(78,-152,o),
(78,-258,cs),
(78,-348,o),
(127,-403,o),
(244,-439,c)
);
}
);
width = 711;
}
);
metricLeft = "ka-kawi";
metricRight = "ka-kawi";
unicode = 73478;
},
{
glyphname = "ii-kawi";
layers = (
{
background = {
shapes = (
{
closed = 1;
nodes = (
(439,64,l),
(393,79,o),
(372,93,o),
(372,143,cs),
(372,388,ls),
(372,441,o),
(391,473,o),
(434,473,cs),
(480,473,o),
(513,435,o),
(528,344,c),
(582,344,l),
(609,432,o),
(641,473,o),
(693,473,cs),
(724,473,o),
(744,460,o),
(744,417,cs),
(744,0,l),
(831,0,l),
(831,426,ls),
(831,507,o),
(791,554,o),
(715,554,cs),
(638,554,o),
(579,506,o),
(545,396,c),
(572,401,l),
(561,504,o),
(504,554,o),
(423,554,cs),
(326,554,o),
(285,483,o),
(285,388,cs),
(285,145,ls),
(285,35,o),
(334,7,o),
(410,-10,c)
);
}
);
};
layerId = m01;
shapes = (
{
closed = 1;
nodes = (
(690,-580,o),
(824,-486,o),
(824,-318,cs),
(824,-193,o),
(749,-96,o),
(583,-96,cs),
(449,-96,o),
(374,-161,o),
(374,-259,cs),
(374,-334,o),
(420,-390,o),
(533,-405,c),
(553,-348,l),
(477,-328,o),
(462,-293,o),
(462,-260,cs),
(462,-197,o),
(517,-177,o),
(581,-177,cs),
(685,-177,o),
(733,-230,o),
(733,-320,cs),
(733,-442,o),
(644,-504,o),
(501,-504,cs),
(277,-504,o),
(130,-352,o),
(130,107,cs),
(130,508,o),
(242,740,o),
(433,920,c),
(385,971,l),
(224,820,o),
(43,608,o),
(43,107,cs),
(43,-412,o),
(238,-580,o),
(497,-580,cs)
);
},
{
closed = 1;
nodes = (
(744,0,l),
(744,405,ls),
(744,457,o),
(724,473,o),
(693,473,cs),
(639,473,o),
(606,432,o),
(592,344,c),
(518,344,l),
(509,441,o),
(479,473,o),
(432,473,cs),
(391,473,o),
(372,451,o),
(372,405,cs),
(372,143,ls),
(372,93,o),
(393,79,o),
(439,64,c),
(410,-10,l),
(334,7,o),
(285,35,o),
(285,145,cs),
(285,414,ls),
(285,493,o),
(326,554,o),
(423,554,cs),
(503,554,o),
(563,510,o),
(568,401,c),
(541,396,l),
(559,506,o),
(634,554,o),
(710,554,cs),
(789,554,o),
(831,503,o),
(831,414,cs),
(831,0,l)
);
}
);
width = 906;
},
{
layerId = "FD202070-6699-4318-8E83-95414ED89137";
width = 789;
},
{
associatedMasterId = m01;
layerId = "86A4FA77-B979-4C5B-B14D-9C3A0CF9EC51";
name = "15 Feb 23 01.36";
shapes = (
{
closed = 1;
nodes = (
(690,-580,o),
(824,-486,o),
(824,-318,cs),
(824,-193,o),
(749,-96,o),
(583,-96,cs),
(445,-96,o),
(374,-162,o),
(374,-262,cs),
(374,-338,o),
(414,-392,o),
(520,-413,c),
(553,-345,l),
(476,-327,o),
(462,-295,o),
(462,-261,cs),
(462,-199,o),
(515,-177,o),
(583,-177,cs),
(687,-177,o),
(737,-230,o),
(737,-320,cs),
(737,-442,o),
(646,-504,o),
(500,-504,cs),
(271,-504,o),
(130,-352,o),
(130,103,cs),
(130,509,o),
(242,740,o),
(433,920,c),
(385,971,l),
(224,820,o),
(43,609,o),
(43,104,cs),
(43,-412,o),
(239,-580,o),
(495,-580,cs)
);
},
{
closed = 1;
nodes = (
(439,64,l),
(393,79,o),
(372,93,o),
(372,143,cs),
(372,388,ls),
(372,441,o),
(391,473,o),
(434,473,cs),
(480,473,o),
(513,435,o),
(528,344,c),
(582,344,l),
(609,432,o),
(641,473,o),
(693,473,cs),
(724,473,o),
(744,460,o),
(744,417,cs),
(744,0,l),
(831,0,l),
(831,426,ls),
(831,507,o),
(791,554,o),
(715,554,cs),
(638,554,o),
(579,506,o),
(545,396,c),
(572,401,l),
(561,504,o),
(504,554,o),
(423,554,cs),
(326,554,o),
(285,483,o),
(285,388,cs),
(285,145,ls),
(285,35,o),
(334,7,o),
(410,-10,c)
);
}
);
width = 906;
}
);
metricRight = "ka-kawi";
unicode = 73479;
},
{
glyphname = "ja-kawi";
layers = (
{
background = {
shapes = (
{
closed = 1;
nodes = (
(223,544,l),
(121,544,o),
(64,498,o),
(64,384,cs),
(64,160,ls),
(64,46,o),
(121,0,o),
(223,0,cs),
(489,0,l),
(489,76,l),
(229,76,ls),
(179,76,o),
(151,98,o),
(151,155,cs),
(151,389,ls),
(151,446,o),
(179,468,o),
(229,468,c)
);
},
{
closed = 1;
nodes = (
(215,317,l),
(215,241,l),
(439,241,l),
(439,317,l)
);
}
);
};
layerId = m01;
shapes = (
{
closed = 1;
nodes = (
(509,0,l),
(509,76,l),
(229,76,ls),
(179,76,o),
(151,98,o),
(151,155,cs),
(151,379,ls),
(151,436,o),
(179,468,o),
(229,468,cs),
(379,468,ls),
(433,468,o),
(456,453,o),
(482,419,c),
(544,466,l),
(510,516,o),
(471,544,o),
(379,544,cs),
(223,544,ls),
(121,544,o),
(64,488,o),
(64,374,cs),
(64,160,ls),
(64,46,o),
(121,0,o),
(223,0,cs)
);
},
{
closed = 1;
nodes = (
(439,238,l),
(439,314,l),
(215,314,l),
(215,238,l)
);
}
);
width = 569;
},
{
background = {
shapes = (
{
closed = 1;
nodes = (
(523,0,l),
(523,126,l),
(253,126,ls),
(216,126,o),
(195,141,o),
(195,180,cs),
(195,354,ls),
(195,395,o),
(213,418,o),
(245,418,cs),
(401,418,ls),
(439,418,o),
(458,404,o),
(474,373,c),
(583,425,l),
(555,513,o),
(500,544,o),
(412,544,cs),
(247,544,ls),
(120,544,o),
(48,485,o),
(48,364,cs),
(48,170,ls),
(48,49,o),
(116,0,o),
(237,0,cs)
);
},
{
closed = 1;
nodes = (
(441,210,l),
(441,326,l),
(242,326,l),
(242,210,l)
);
}
);
};
layerId = "FD202070-6699-4318-8E83-95414ED89137";
shapes = (
{
closed = 1;
nodes = (
(533,0,l),
(533,126,l),
(263,126,ls),
(226,126,o),
(205,141,o),
(205,180,cs),
(205,354,ls),
(205,395,o),
(223,418,o),
(255,418,cs),
(391,418,ls),
(429,418,o),
(448,404,o),
(464,373,c),
(582,425,l),
(545,513,o),
(490,544,o),
(402,544,cs),
(257,544,ls),
(130,544,o),
(58,485,o),
(58,364,cs),
(58,170,ls),
(58,49,o),
(126,0,o),
(247,0,cs)
);
},
{
closed = 1;
nodes = (
(444,207,l),
(444,323,l),
(252,323,l),
(252,207,l)
);
}
);
width = 607;
},
{
associatedMasterId = m01;
background = {
shapes = (
{
closed = 1;
nodes = (
(37,519,l),
(-65,519,o),
(-122,473,o),
(-122,359,cs),
(-122,160,ls),
(-122,46,o),
(-65,0,o),
(37,0,cs),
(433,0,l),
(433,76,l),
(43,76,ls),
(-7,76,o),
(-35,98,o),
(-35,155,cs),
(-35,364,ls),
(-35,421,o),
(-7,443,o),
(43,443,c)
);
},
{
closed = 1;
nodes = (
(29,342,l),
(29,266,l),
(433,266,l),
(433,342,l)
);
}
);
};
layerId = "E0A6CD6F-C493-4827-AEA8-71564E86B09D";
name = "4 Feb 23 19.50";
shapes = (
{
closed = 1;
nodes = (
(237,544,l),
(135,544,o),
(78,498,o),
(78,384,cs),
(78,160,ls),
(78,46,o),
(135,0,o),
(237,0,cs),
(503,0,l),
(503,76,l),
(243,76,ls),
(193,76,o),
(165,98,o),
(165,155,cs),
(165,389,ls),
(165,446,o),
(193,468,o),
(243,468,c)
);
},
{
closed = 1;
nodes = (
(229,317,l),
(229,241,l),
(453,241,l),
(453,317,l)
);
}
);
width = 493;
},
{
associatedMasterId = "FD202070-6699-4318-8E83-95414ED89137";
layerId = "4F6A5758-55CC-4B6B-B4D2-7F433DA1232A";
name = "19 Feb 23 00.22";
shapes = (
{
closed = 1;
nodes = (
(533,0,l),
(533,126,l),
(263,126,ls),
(226,126,o),
(205,141,o),
(205,180,cs),
(205,354,ls),
(205,395,o),
(223,418,o),
(255,418,cs),
(411,418,ls),
(449,418,o),
(468,404,o),
(484,373,c),
(593,425,l),
(565,513,o),
(510,544,o),
(422,544,cs),
(257,544,ls),
(130,544,o),
(58,485,o),
(58,364,cs),
(58,170,ls),
(58,49,o),
(126,0,o),
(247,0,cs)
);
},
{
closed = 1;
nodes = (
(451,210,l),
(451,326,l),
(252,326,l),
(252,210,l)
);
}
);
width = 617;
}
);
metricLeft = "ka-kawi";
unicode = 73497;
},
{
glyphname = "jha-kawi";
layers = (
{
anchors = (
{
name = bottom;
pos = (493,0);
},
{
name = top;
pos = (493,800);
}
);
background = {
shapes = (
{
closed = 1;
nodes = (
(218,64,l),
(172,79,o),
(151,93,o),
(151,143,cs),
(151,388,ls),
(151,441,o),
(170,473,o),
(213,473,cs),
(259,473,o),
(292,435,o),
(307,344,c),
(361,344,l),
(388,432,o),
(420,473,o),
(472,473,cs),
(503,473,o),
(523,460,o),
(523,417,cs),
(523,0,l),
(600,0,l),
(600,105,l),
(610,127,l),
(610,426,ls),
(610,507,o),
(570,554,o),
(494,554,cs),
(417,554,o),
(358,506,o),
(324,396,c),
(351,401,l),
(340,504,o),
(283,554,o),
(202,554,cs),
(105,554,o),
(64,483,o),
(64,388,cs),
(64,145,ls),
(64,35,o),
(113,7,o),
(189,-10,c)
);
},
{
closed = 1;
nodes = (
(857,-10,o),
(912,47,o),
(912,148,cs),
(912,360,ls),
(912,438,o),
(878,488,o),
(805,488,c),
(741,468,l),
(821,468,o),
(825,423,o),
(825,360,cs),
(825,154,ls),
(825,98,o),
(803,66,o),
(752,66,cs),
(700,66,o),
(641,101,o),
(606,187,c),
(564,172,l),
(589,67,o),
(662,-10,o),
(766,-10,cs)
);
},
{
closed = 1;
nodes = (
(949,468,l),
(949,544,l),
(741,544,l),
(741,468,l)
);
}
);
};
layerId = m01;
shapes = (
{
closed = 1;
nodes = (
(218,64,l),
(172,79,o),
(151,93,o),
(151,143,cs),
(151,388,ls),
(151,441,o),
(170,473,o),
(213,473,cs),
(259,473,o),
(292,435,o),
(307,344,c),
(361,344,l),
(388,432,o),
(420,473,o),
(472,473,cs),
(503,473,o),
(523,460,o),
(523,417,cs),
(523,0,l),
(600,0,l),
(600,105,l),
(610,127,l),
(610,426,ls),
(610,507,o),
(570,554,o),
(494,554,cs),
(417,554,o),
(358,506,o),
(324,396,c),
(351,401,l),
(340,504,o),
(283,554,o),
(202,554,cs),
(105,554,o),
(64,483,o),
(64,388,cs),
(64,145,ls),
(64,35,o),
(113,7,o),
(189,-10,c)
);
},
{
closed = 1;
nodes = (
(846,-10,o),
(913,50,o),
(913,158,cs),
(913,360,ls),
(913,438,o),
(879,488,o),
(806,488,c),
(742,468,l),
(822,468,o),
(826,423,o),
(826,360,cs),
(826,164,ls),
(826,99,o),
(804,66,o),
(738,66,cs),
(675,66,o),
(631,97,o),
(607,187,c),
(565,172,l),
(585,67,o),
(636,-10,o),
(748,-10,cs)
);
},
{
closed = 1;
nodes = (
(950,468,l),
(950,544,l),
(742,544,l),
(742,468,l)
);
}
);
width = 986;
},
{
anchors = (
{
name = bottom;
pos = (524,0);
},
{
name = top;
pos = (869,544);
}
);
background = {
shapes = (
{
closed = 1;
nodes = (
(213,97,l),
(177,115,o),
(166,131,o),
(166,170,cs),
(166,372,ls),
(166,412,o),
(182,428,o),
(210,428,cs),
(246,428,o),
(263,400,o),
(274,316,c),
(374,316,l),
(388,395,o),
(411,428,o),
(451,428,cs),
(479,428,o),
(501,415,o),
(501,360,cs),
(501,0,l),
(628,0,l),
(628,58,l),
(648,81,l),
(648,388,ls),
(648,498,o),
(587,554,o),
(489,554,cs),
(388,554,o),
(326,488,o),
(294,335,c),
(354,338,l),
(337,503,o),
(271,554,o),
(181,554,cs),
(74,554,o),
(19,483,o),
(19,388,cs),
(19,145,ls),
(19,51,o),
(61,24,o),
(149,-10,c)
);
},
{
closed = 1;
nodes = (
(888,-10,o),
(962,53,o),
(962,178,cs),
(962,304,ls),
(962,381,o),
(940,438,o),
(821,438,c),
(749,418,l),
(799,418,o),
(815,402,o),
(815,344,cs),
(815,184,ls),
(815,145,o),
(796,126,o),
(752,126,cs),
(707,126,o),
(656,155,o),
(626,227,c),
(584,212,l),
(607,84,o),
(672,-10,o),
(766,-10,cs)
);
},
{
closed = 1;
nodes = (
(993,418,l),
(993,544,l),
(741,544,l),
(741,418,l)
);
}
);
};
layerId = "FD202070-6699-4318-8E83-95414ED89137";
shapes = (
{
closed = 1;
nodes = (
(243,97,l),
(212,115,o),
(204,132,o),
(204,170,cs),
(204,372,ls),
(204,411,o),
(218,428,o),
(241,428,cs),
(272,428,o),
(283,400,o),
(293,316,c),
(393,316,l),
(403,395,o),
(422,428,o),
(456,428,cs),
(481,428,o),
(501,415,o),
(501,360,cs),
(501,0,l),
(628,0,l),
(628,107,l),
(648,142,l),
(648,388,ls),
(648,498,o),
(588,554,o),
(494,554,cs),
(396,554,o),
(337,489,o),
(307,338,c),
(377,338,l),
(360,503,o),
(297,554,o),
(210,554,cs),
(111,554,o),
(58,483,o),
(58,388,cs),
(58,145,ls),
(58,51,o),
(95,24,o),
(177,-10,c)
);
},
{
closed = 1;
nodes = (
(890,-10,o),
(962,43,o),
(962,178,cs),
(962,304,ls),
(962,381,o),
(940,438,o),
(821,438,c),
(749,418,l),
(799,418,o),
(815,402,o),
(815,344,cs),
(815,184,ls),
(815,146,o),
(804,126,o),
(763,126,cs),
(714,126,o),
(656,155,o),
(626,227,c),
(584,212,l),
(610,73,o),
(669,-10,o),
(792,-10,cs)
);
},
{
closed = 1;
nodes = (
(993,418,l),
(993,544,l),
(741,544,l),
(741,418,l)
);
}
);
width = 1047;
},
{
associatedMasterId = m01;
layerId = "9F8275FE-7B2B-49A0-8322-D99C3D3E3D48";
name = "9 Feb 23 21.13";
shapes = (
{
closed = 1;
nodes = (
(644,0,l),
(644,397,ls),
(644,507,o),
(584,554,o),
(494,554,cs),
(419,554,o),
(348,521,o),
(348,388,c),
(374,388,l),
(374,520,o),
(303,554,o),
(231,554,cs),
(127,554,o),
(78,483,o),
(78,388,cs),
(78,105,ls),
(78,41,o),
(101,11,o),
(137,-10,c),
(194,47,l),
(174,64,o),
(165,80,o),
(165,116,cs),
(165,397,ls),
(165,454,o),
(197,478,o),
(244,478,cs),
(288,478,o),
(323,457,o),
(323,388,cs),
(323,339,l),
(400,339,l),
(400,388,ls),
(400,448,o),
(429,478,o),
(481,478,cs),
(536,478,o),
(557,445,o),
(557,388,cs),
(557,0,l)
);
},
{
closed = 1;
nodes = (
(616,156,l),
(616,32,o),
(674,0,o),
(739,0,cs),
(786,0,ls),
(890,0,o),
(946,53,o),
(946,148,cs),
(946,384,l),
(865,488,l),
(785,468,l),
(859,374,l),
(859,154,ls),
(859,104,o),
(831,76,o),
(781,76,cs),
(723,76,ls),
(682,76,o),
(644,96,o),
(644,156,c)
);
},
{
closed = 1;
nodes = (
(987,468,l),
(987,544,l),
(785,544,l),
(785,468,l)
);
}
);
width = 1022;
},
{
associatedMasterId = m01;
background = {
shapes = (
{
closed = 1;
nodes = (
(644,0,l),
(644,397,ls),
(644,507,o),
(584,554,o),
(494,554,cs),
(419,554,o),
(348,521,o),
(348,388,c),
(374,388,l),
(374,520,o),
(303,554,o),
(231,554,cs),
(127,554,o),
(78,483,o),
(78,388,cs),
(78,105,ls),
(78,41,o),
(101,11,o),
(137,-10,c),
(194,47,l),
(174,64,o),
(165,80,o),
(165,116,cs),
(165,397,ls),
(165,454,o),
(197,478,o),
(244,478,cs),
(288,478,o),
(323,457,o),
(323,388,cs),
(323,339,l),
(400,339,l),
(400,388,ls),
(400,448,o),
(429,478,o),
(481,478,cs),
(536,478,o),
(557,445,o),
(557,388,cs),
(557,0,l)
);
},
{
closed = 1;
nodes = (
(616,156,l),
(616,32,o),
(674,0,o),
(739,0,cs),
(786,0,ls),
(890,0,o),
(946,53,o),
(946,148,cs),
(946,384,l),
(865,488,l),
(785,468,l),
(859,374,l),
(859,154,ls),
(859,104,o),
(831,76,o),
(781,76,cs),
(723,76,ls),
(682,76,o),
(644,96,o),
(644,156,c)
);
},
{
closed = 1;
nodes = (
(987,468,l),
(987,544,l),
(785,544,l),
(785,468,l)
);
}
);
};
layerId = "9BDF2A06-F2F9-4B04-9CB4-F61B93D6636B";
name = "10 Feb 23 02.01";
shapes = (
{
closed = 1;
nodes = (
(634,0,l),
(634,105,l),
(644,127,l),
(644,397,ls),
(644,507,o),
(584,554,o),
(494,554,cs),
(419,554,o),
(348,521,o),
(348,388,c),
(374,388,l),
(374,520,o),
(303,554,o),
(231,554,cs),
(127,554,o),
(78,483,o),
(78,388,cs),
(78,105,ls),
(78,41,o),
(101,11,o),
(137,-10,c),
(194,47,l),
(174,64,o),
(165,80,o),
(165,116,cs),
(165,397,ls),
(165,454,o),
(197,478,o),
(244,478,cs),
(288,478,o),
(323,457,o),
(323,388,cs),
(323,339,l),
(400,339,l),
(400,388,ls),
(400,448,o),
(429,478,o),
(481,478,cs),
(536,478,o),
(557,445,o),
(557,388,cs),
(557,0,l)
);
},
{
closed = 1;
nodes = (
(987,468,l),
(987,544,l),
(785,544,l),
(785,468,l)
);
},
{
closed = 1;
nodes = (
(706,76,o),
(656,95,o),
(644,177,c),
(598,170,l),
(614,35,o),
(688,0,o),
(768,0,cs),
(884,0,o),
(946,53,o),
(946,148,cs),
(946,384,l),
(865,488,l),
(785,468,l),
(859,374,l),
(859,154,ls),
(859,104,o),
(823,76,o),
(758,76,cs)
);
}
);
width = 1022;
},
{
associatedMasterId = m01;
background = {
shapes = (
{
closed = 1;
nodes = (
(634,0,l),
(634,105,l),
(644,127,l),
(644,397,ls),
(644,507,o),
(584,554,o),
(494,554,cs),
(419,554,o),
(348,521,o),
(348,388,c),
(374,388,l),
(374,520,o),
(303,554,o),
(231,554,cs),
(127,554,o),
(78,483,o),
(78,388,cs),
(78,105,ls),
(78,41,o),
(101,11,o),
(137,-10,c),
(194,47,l),
(174,64,o),
(165,80,o),
(165,116,cs),
(165,397,ls),
(165,454,o),
(197,478,o),
(244,478,cs),
(288,478,o),
(323,457,o),
(323,388,cs),
(323,339,l),
(400,339,l),
(400,388,ls),
(400,448,o),
(429,478,o),
(481,478,cs),
(536,478,o),
(557,445,o),
(557,388,cs),
(557,0,l)
);
},
{
closed = 1;
nodes = (
(987,468,l),
(987,544,l),
(785,544,l),
(785,468,l)
);
},
{
closed = 1;
nodes = (
(706,76,o),
(656,95,o),
(644,177,c),
(598,170,l),
(614,35,o),
(688,0,o),
(768,0,cs),
(884,0,o),
(946,53,o),
(946,148,cs),
(946,384,l),
(865,488,l),
(785,468,l),
(859,374,l),
(859,154,ls),
(859,104,o),
(823,76,o),
(758,76,cs)
);
}
);
};
layerId = "01DAAA9D-AD56-4C0C-9B16-D786EF9BC754";
name = "10 Feb 23 02.07";
shapes = (
{
closed = 1;
nodes = (
(288,468,o),
(328,443,o),
(348,344,c),
(385,344,l),
(422,435,o),
(454,478,o),
(506,478,cs),
(537,478,o),
(557,464,o),
(557,417,cs),
(557,0,l),
(634,0,l),
(634,105,l),
(644,127,l),
(644,426,ls),
(644,507,o),
(604,554,o),
(528,554,cs),
(451,554,o),
(392,506,o),
(348,396,c),
(392,390,l),
(374,506,o),
(303,544,o),
(191,544,cs),
(34,544,l),
(34,468,l),
(204,468,ls)
);
},
{
closed = 1;
nodes = (
(987,468,l),
(987,544,l),
(785,544,l),
(785,468,l)
);
},
{
closed = 1;
nodes = (
(706,76,o),
(656,95,o),
(644,177,c),
(598,170,l),
(614,43,o),
(676,0,o),
(774,0,cs),
(882,0,o),
(946,53,o),
(946,148,cs),
(946,384,l),
(865,488,l),
(785,468,l),
(859,374,l),
(859,154,ls),
(859,104,o),
(823,76,o),
(758,76,cs)
);
},
{
closed = 1;
nodes = (
(214,47,l),
(194,64,o),
(185,80,o),
(185,116,cs),
(185,360,ls),
(185,438,o),
(151,488,o),
(78,488,c),
(34,468,l),
(94,468,o),
(98,423,o),
(98,360,cs),
(98,105,ls),
(98,41,o),
(124,11,o),
(164,-10,c)
);
}
);
width = 1022;
},
{
associatedMasterId = m01;
background = {
shapes = (
{
closed = 1;
nodes = (
(634,0,l),
(634,105,l),
(644,127,l),
(644,426,ls),
(644,507,o),
(604,554,o),
(528,554,cs),
(451,554,o),
(392,506,o),
(348,396,c),
(392,390,l),
(374,506,o),
(303,544,o),
(191,544,cs),
(34,544,l),
(34,468,l),
(204,468,ls),
(288,468,o),
(328,443,o),
(348,344,c),
(385,344,l),
(422,435,o),
(454,478,o),
(506,478,cs),
(537,478,o),
(557,464,o),
(557,417,cs),
(557,0,l)
);
},
{
closed = 1;
nodes = (
(214,47,l),
(194,64,o),
(185,80,o),
(185,116,cs),
(185,360,ls),
(185,438,o),
(151,488,o),
(78,488,c),
(34,468,l),
(94,468,o),
(98,423,o),
(98,360,cs),
(98,105,ls),
(98,41,o),
(124,11,o),
(164,-10,c)
);
},
{
closed = 1;
nodes = (
(882,0,o),
(946,53,o),
(946,148,cs),
(946,360,ls),
(946,438,o),
(912,488,o),
(839,488,c),
(775,468,l),
(855,468,o),
(859,423,o),
(859,360,cs),
(859,154,ls),
(859,104,o),
(823,76,o),
(758,76,cs),
(706,76,o),
(656,95,o),
(644,177,c),
(598,170,l),
(614,43,o),
(676,0,o),
(774,0,cs)
);
},
{
closed = 1;
nodes = (
(983,468,l),
(983,544,l),
(775,544,l),
(775,468,l)
);
}
);
};
layerId = "A350FEB3-8A3E-48C1-9232-17482460E7A6";
name = "10 Feb 23 02.17";
shapes = (
{
closed = 1;
nodes = (
(634,0,l),
(634,105,l),
(644,127,l),
(644,426,ls),
(644,507,o),
(604,554,o),
(528,554,cs),
(451,554,o),
(392,506,o),
(348,396,c),
(392,390,l),
(374,506,o),
(303,544,o),
(191,544,cs),
(63,544,l),
(63,468,l),
(204,468,ls),
(288,468,o),
(328,443,o),
(348,344,c),
(385,344,l),
(422,435,o),
(454,478,o),
(506,478,cs),
(537,478,o),
(557,464,o),
(557,417,cs),
(557,0,l)
);
},
{
closed = 1;
nodes = (
(882,0,o),
(946,53,o),
(946,148,cs),
(946,360,ls),
(946,438,o),
(912,488,o),
(839,488,c),
(775,468,l),
(855,468,o),
(859,423,o),
(859,360,cs),
(859,154,ls),
(859,104,o),
(823,76,o),
(758,76,cs),
(706,76,o),
(656,95,o),
(644,177,c),
(598,170,l),
(614,43,o),
(676,0,o),
(774,0,cs)
);
},
{
closed = 1;
nodes = (
(983,468,l),
(983,544,l),
(775,544,l),
(775,468,l)
);
},
{
closed = 1;
nodes = (
(272,64,l),
(226,79,o),
(205,93,o),
(205,143,cs),
(205,350,l),
(144,488,l),
(63,468,l),
(118,350,l),
(118,145,ls),
(118,35,o),
(167,7,o),
(243,-10,c)
);
}
);
width = 1018;
},
{
anchors = (
{
name = bottom;
pos = (493,0);
},
{
name = top;
pos = (493,800);
}
);
associatedMasterId = m01;
background = {
shapes = (
{
closed = 1;
nodes = (
(600,0,l),
(600,105,l),
(610,127,l),
(610,426,ls),
(610,507,o),
(570,554,o),
(494,554,cs),
(417,554,o),
(358,506,o),
(314,396,c),
(358,390,l),
(340,506,o),
(269,544,o),
(157,544,cs),
(29,544,l),
(29,468,l),
(170,468,ls),
(254,468,o),
(294,443,o),
(314,344,c),
(351,344,l),
(388,435,o),
(420,478,o),
(472,478,cs),
(503,478,o),
(523,464,o),
(523,417,cs),
(523,0,l)
);
},
{
closed = 1;
nodes = (
(848,0,o),
(912,53,o),
(912,148,cs),
(912,360,ls),
(912,438,o),
(878,488,o),
(805,488,c),
(741,468,l),
(821,468,o),
(825,423,o),
(825,360,cs),
(825,154,ls),
(825,104,o),
(789,76,o),
(724,76,cs),
(672,76,o),
(622,95,o),
(610,177,c),
(564,170,l),
(580,43,o),
(642,0,o),
(740,0,cs)
);
},
{
closed = 1;
nodes = (
(949,468,l),
(949,544,l),
(741,544,l),
(741,468,l)
);
},
{
closed = 1;
nodes = (
(238,64,l),
(192,79,o),
(171,93,o),
(171,143,cs),
(171,350,l),
(110,488,l),
(29,468,l),
(84,350,l),
(84,145,ls),
(84,35,o),
(133,7,o),
(209,-10,c)
);
}
);
};
layerId = "A8024F4B-8995-4357-BD4F-FB0F4AFA26A3";
name = "19 Feb 23 00.51";
shapes = (
{
closed = 1;
nodes = (
(218,64,l),
(172,79,o),
(151,93,o),
(151,143,cs),
(151,388,ls),
(151,441,o),
(170,473,o),
(213,473,cs),
(259,473,o),
(292,435,o),
(307,344,c),
(361,344,l),
(388,432,o),
(420,473,o),
(472,473,cs),
(503,473,o),
(523,460,o),
(523,417,cs),
(523,0,l),
(600,0,l),
(600,105,l),
(610,127,l),
(610,426,ls),
(610,507,o),
(570,554,o),
(494,554,cs),
(417,554,o),
(358,506,o),
(324,396,c),
(351,401,l),
(340,504,o),
(283,554,o),
(202,554,cs),
(105,554,o),
(64,483,o),
(64,388,cs),
(64,145,ls),
(64,35,o),
(113,7,o),
(189,-10,c)
);
},
{
closed = 1;
nodes = (
(857,-10,o),
(912,47,o),
(912,148,cs),
(912,360,ls),
(912,438,o),
(878,488,o),
(805,488,c),
(741,468,l),
(821,468,o),
(825,423,o),
(825,360,cs),
(825,154,ls),
(825,98,o),
(803,66,o),
(752,66,cs),
(700,66,o),
(641,101,o),
(606,187,c),
(564,172,l),
(589,67,o),
(662,-10,o),
(766,-10,cs)
);
},
{
closed = 1;
nodes = (
(949,468,l),
(949,544,l),
(741,544,l),
(741,468,l)
);
}
);
width = 985;
}
);
metricLeft = "ka-kawi";
metricRight = "ra-kawi";
unicode = 73498;
},
{
glyphname = "jnya-kawi";
layers = (
{
layerId = m01;
shapes = (
{
closed = 1;
nodes = (
(509,0,l),
(509,76,l),
(229,76,ls),
(179,76,o),
(151,98,o),
(151,155,cs),
(151,379,ls),
(151,436,o),
(179,468,o),
(229,468,cs),
(379,468,ls),
(433,468,o),
(456,453,o),
(482,419,c),
(544,466,l),
(510,516,o),
(471,544,o),
(379,544,cs),
(223,544,ls),
(121,544,o),
(64,488,o),
(64,374,cs),
(64,160,ls),
(64,46,o),
(121,0,o),
(223,0,cs)
);
},
{
closed = 1;
nodes = (
(257,-374,l),
(187,-348,o),
(167,-305,o),
(167,-263,cs),
(167,-201,o),
(211,-177,o),
(272,-177,cs),
(391,-177,o),
(450,-269,o),
(479,-428,c),
(551,-407,l),
(518,-205,o),
(429,-96,o),
(269,-96,cs),
(141,-96,o),
(79,-166,o),
(79,-264,cs),
(79,-350,o),
(126,-405,o),
(224,-439,c)
);
},
{
closed = 1;
nodes = (
(439,238,l),
(439,314,l),
(215,314,l),
(215,238,l)
);
}
);
width = 569;
},
{
layerId = "FD202070-6699-4318-8E83-95414ED89137";
shapes = (
{
ref = "ja-kawi";
}
);
width = 607;
}
);
unicode = 73523;
},
{
glyphname = "ka-kawi";
layers = (
{
anchors = (
{
name = bottom;
pos = (622,0);
},
{
name = top;
pos = (622,544);
}
);
background = {
shapes = (
{
closed = 1;
nodes = (
(218,64,l),
(172,79,o),
(151,93,o),
(151,143,cs),
(151,390,ls),
(151,440,o),
(179,468,o),
(229,468,cs),
(500,468,ls),
(550,468,o),
(578,440,o),
(578,390,cs),
(578,0,l),
(665,0,l),
(665,396,ls),
(665,491,o),
(609,544,o),
(495,544,cs),
(234,544,ls),
(120,544,o),
(64,491,o),
(64,396,cs),
(64,145,ls),
(64,35,o),
(113,7,o),
(189,-10,c)
);
},
{
closed = 1;
nodes = (
(419,0,l),
(419,280,ls),
(419,358,o),
(404,391,o),
(311,421,c),
(288,371,l),
(330,353,o),
(332,326,o),
(332,280,cs),
(332,0,l)
);
}
);
};
layerId = m01;
shapes = (
{
closed = 1;
nodes = (
(218,64,l),
(172,79,o),
(151,93,o),
(151,143,cs),
(151,390,ls),
(151,440,o),
(179,468,o),
(229,468,cs),
(500,468,ls),
(550,468,o),
(578,440,o),
(578,390,cs),
(578,0,l),
(665,0,l),
(665,396,ls),
(665,491,o),
(609,544,o),
(495,544,cs),
(234,544,ls),
(120,544,o),
(64,491,o),
(64,396,cs),
(64,145,ls),
(64,35,o),
(113,7,o),
(189,-10,c)
);
},
{
closed = 1;
nodes = (
(419,0,l),
(419,280,ls),
(419,355,o),
(406,388,o),
(314,420,c),
(279,350,l),
(330,331,o),
(332,313,o),
(332,267,cs),
(332,0,l)
);
}
);
width = 740;
},
{
anchors = (
{
name = bottom;
pos = (674,0);
},
{
name = top;
pos = (674,544);
}
);
background = {
shapes = (
{
closed = 1;
nodes = (
(339,93,l),
(279,101,o),
(249,129,o),
(249,178,cs),
(249,347,ls),
(249,396,o),
(274,421,o),
(322,421,cs),
(370,421,o),
(394,397,o),
(394,350,cs),
(394,172,ls),
(394,58,o),
(454,0,o),
(565,0,cs),
(633,0,o),
(684,24,o),
(717,72,c),
(750,24,o),
(801,0,o),
(870,0,cs),
(981,0,o),
(1041,57,o),
(1041,171,cs),
(1041,215,ls),
(1041,325,o),
(1003,396,o),
(935,421,c),
(1049,421,ls),
(1107,421,o),
(1137,395,o),
(1137,342,cs),
(1137,0,l),
(1268,0,l),
(1268,392,ls),
(1268,494,o),
(1197,546,o),
(1059,546,cs),
(755,546,l),
(755,425,l),
(851,420,o),
(910,357,o),
(910,250,cs),
(910,181,ls),
(910,141,o),
(887,121,o),
(845,121,cs),
(804,121,o),
(780,142,o),
(780,182,cs),
(780,272,l),
(654,272,l),
(654,181,ls),
(654,141,o),
(631,121,o),
(589,121,cs),
(548,121,o),
(524,142,o),
(524,182,cs),
(524,349,ls),
(524,480,o),
(457,546,o),
(322,546,cs),
(186,546,o),
(118,479,o),
(118,344,cs),
(118,173,ls),
(118,60,o),
(194,5,o),
(320,0,c)
);
},
{
closed = 1;
nodes = (
(-217,414,l),
(-169,414,ls),
(-136,414,o),
(-121,394,o),
(-121,357,cs),
(-121,0,l),
(16,0,l),
(16,383,ls),
(16,485,o),
(-40,536,o),
(-153,536,cs),
(-354,536,l),
(-354,245,l),
(-217,245,l)
);
},
{
closed = 1;
nodes = (
(-754,271,l),
(-746,382,o),
(-727,437,o),
(-660,437,cs),
(-624,437,l),
(-624,429,l),
(-699,419,o),
(-709,387,o),
(-709,355,cs),
(-709,312,o),
(-676,287,o),
(-610,274,c),
(-610,269,l),
(-695,244,o),
(-731,204,o),
(-731,141,cs),
(-731,26,o),
(-613,-10,o),
(-473,-10,cs),
(-297,-10,o),
(-217,55,o),
(-217,211,cs),
(-217,247,l),
(-354,247,l),
(-354,201,ls),
(-354,141,o),
(-387,115,o),
(-479,115,cs),
(-553,115,o),
(-588,133,o),
(-588,168,cs),
(-588,199,o),
(-557,215,o),
(-478,215,cs),
(-445,215,l),
(-445,330,l),
(-476,330,ls),
(-542,330,o),
(-561,348,o),
(-561,375,cs),
(-561,400,o),
(-544,422,o),
(-490,422,cs),
(-421,422,l),
(-421,536,l),
(-611,536,ls),
(-802,536,o),
(-834,442,o),
(-834,276,c)
);
},
{
closed = 1;
nodes = (
(2005,714,l),
(1854,714,l),
(1854,434,l),
(1571,434,l),
(1571,714,l),
(1420,714,l),
(1420,0,l),
(1571,0,l),
(1571,308,l),
(1854,308,l),
(1854,0,l),
(2005,0,l)
);
}
);
};
layerId = "FD202070-6699-4318-8E83-95414ED89137";
shapes = (
{
closed = 1;
nodes = (
(252,97,l),
(216,115,o),
(205,131,o),
(205,170,cs),
(205,353,ls),
(205,395,o),
(228,418,o),
(270,418,cs),
(535,418,ls),
(577,418,o),
(600,395,o),
(600,353,cs),
(600,0,l),
(747,0,l),
(747,359,ls),
(747,478,o),
(682,544,o),
(550,544,cs),
(265,544,ls),
(133,544,o),
(58,478,o),
(58,359,cs),
(58,145,ls),
(58,51,o),
(100,24,o),
(188,-10,c)
);
},
{
closed = 1;
nodes = (
(489,0,l),
(489,210,ls),
(489,305,o),
(469,345,o),
(344,381,c),
(300,276,l),
(340,259,o),
(342,241,o),
(342,210,cs),
(342,0,l)
);
}
);
width = 810;
},
{
anchors = (
{
name = bottom;
pos = (654,0);
},
{
name = top;
pos = (654,544);
}
);
associatedMasterId = m01;
background = {
shapes = (
{
closed = 1;
nodes = (
(350,68,l),
(300,76,o),
(275,104,o),
(275,154,cs),
(275,391,ls),
(275,444,o),
(300,470,o),
(348,470,cs),
(396,470,o),
(420,445,o),
(420,394,cs),
(420,156,ls),
(420,52,o),
(470,0,o),
(562,0,cs),
(607,0,o),
(640,21,o),
(660,63,c),
(680,21,o),
(714,0,o),
(759,0,cs),
(851,0,o),
(901,52,o),
(901,156,cs),
(901,321,ls),
(901,404,o),
(874,454,o),
(818,470,c),
(928,470,ls),
(976,470,o),
(1001,444,o),
(1001,391,cs),
(1001,0,l),
(1088,0,l),
(1088,387,ls),
(1088,492,o),
(1034,546,o),
(928,546,cs),
(673,546,l),
(673,479,l),
(767,473,o),
(814,415,o),
(814,305,cs),
(814,133,ls),
(814,93,o),
(795,72,o),
(759,72,cs),
(723,72,o),
(704,93,o),
(704,133,cs),
(704,213,l),
(617,213,l),
(617,134,ls),
(617,94,o),
(597,72,o),
(562,72,cs),
(526,72,o),
(506,94,o),
(506,134,cs),
(506,393,ls),
(506,495,o),
(454,546,o),
(348,546,cs),
(242,546,o),
(188,493,o),
(188,388,cs),
(188,150,ls),
(188,57,o),
(242,10,o),
(332,0,c)
);
},
{
closed = 1;
nodes = (
(-147,466,l),
(-110,466,ls),
(-61,466,o),
(-36,440,o),
(-36,387,cs),
(-36,0,l),
(45,0,l),
(45,383,ls),
(45,485,o),
(-5,536,o),
(-107,536,cs),
(-228,536,l),
(-228,243,l),
(-147,243,l)
);
},
{
closed = 1;
nodes = (
(-637,333,l),
(-619,421,o),
(-593,465,o),
(-541,465,cs),
(-512,465,l),
(-512,461,l),
(-555,447,o),
(-568,411,o),
(-568,380,cs),
(-568,327,o),
(-529,295,o),
(-467,283,c),
(-467,276,l),
(-538,261,o),
(-586,226,o),
(-586,143,cs),
(-586,43,o),
(-515,-10,o),
(-371,-10,cs),
(-210,-10,o),
(-147,54,o),
(-147,178,cs),
(-147,250,l),
(-228,250,l),
(-228,189,ls),
(-228,104,o),
(-263,62,o),
(-369,62,cs),
(-467,62,o),
(-505,97,o),
(-505,150,cs),
(-505,218,o),
(-443,246,o),
(-360,246,cs),
(-326,246,l),
(-326,313,l),
(-357,313,ls),
(-446,313,o),
(-492,338,o),
(-492,387,cs),
(-492,439,o),
(-442,465,o),
(-375,465,cs),
(-309,465,l),
(-309,536,l),
(-543,536,ls),
(-645,536,o),
(-692,456,o),
(-692,338,c)
);
},
{
closed = 1;
nodes = (
(1753,714,l),
(1663,714,l),
(1663,412,l),
(1297,412,l),
(1297,714,l),
(1207,714,l),
(1207,0,l),
(1297,0,l),
(1297,333,l),
(1663,333,l),
(1663,0,l),
(1753,0,l)
);
}
);
};
layerId = "671290E1-38C8-4088-8904-C7C202AB8886";
name = "4 Feb 23 20.26";
shapes = (
{
closed = 1;
nodes = (
(190,47,l),
(174,64,o),
(165,79,o),
(165,116,cs),
(165,390,ls),
(165,440,o),
(193,468,o),
(243,468,cs),
(532,468,ls),
(582,468,o),
(610,440,o),
(610,390,cs),
(610,0,l),
(697,0,l),
(697,396,ls),
(697,491,o),
(641,544,o),
(527,544,cs),
(248,544,ls),
(134,544,o),
(78,491,o),
(78,396,cs),
(78,105,ls),
(78,45,o),
(98,15,o),
(127,-10,c)
);
},
{
closed = 1;
nodes = (
(431,0,l),
(431,404,l),
(344,404,l),
(344,0,l)
);
}
);
width = 775;
},
{
anchors = (
{
name = bottom;
pos = (654,0);
},
{
name = top;
pos = (654,544);
}
);
associatedMasterId = m01;
layerId = "5DDA0346-2089-45D1-A762-4EF3914DABE9";
name = "10 Feb 23 01.59";
shapes = (
{
closed = 1;
nodes = (
(194,47,l),
(174,64,o),
(165,80,o),
(165,116,cs),
(165,390,ls),
(165,440,o),
(193,468,o),
(243,468,cs),
(532,468,ls),
(582,468,o),
(610,440,o),
(610,390,cs),
(610,0,l),
(697,0,l),
(697,396,ls),
(697,491,o),
(641,544,o),
(527,544,cs),
(248,544,ls),
(134,544,o),
(78,491,o),
(78,396,cs),
(78,105,ls),
(78,41,o),
(101,11,o),
(137,-10,c)
);
},
{
closed = 1;
nodes = (
(431,0,l),
(431,404,l),
(344,404,l),
(344,0,l)
);
}
);
width = 775;
},
{
anchors = (
{
name = bottom;
pos = (674,0);
},
{
name = top;
pos = (674,544);
}
);
associatedMasterId = m01;
background = {
shapes = (
{
closed = 1;
nodes = (
(214,47,l),
(194,64,o),
(185,80,o),
(185,116,cs),
(185,390,ls),
(185,440,o),
(213,468,o),
(263,468,cs),
(552,468,ls),
(602,468,o),
(630,440,o),
(630,390,cs),
(630,0,l),
(717,0,l),
(717,396,ls),
(717,491,o),
(661,544,o),
(547,544,cs),
(268,544,ls),
(154,544,o),
(98,491,o),
(98,396,cs),
(98,105,ls),
(98,41,o),
(121,11,o),
(157,-10,c)
);
},
{
closed = 1;
nodes = (
(451,0,l),
(451,404,l),
(364,404,l),
(364,0,l)
);
}
);
};
layerId = "B591EB76-3696-4879-9F41-6578BA341F6C";
name = "10 Feb 23 02.08";
shapes = (
{
closed = 1;
nodes = (
(717,0,l),
(717,396,ls),
(717,491,o),
(661,544,o),
(547,544,cs),
(34,544,l),
(34,468,l),
(552,468,ls),
(602,468,o),
(630,440,o),
(630,390,cs),
(630,0,l)
);
},
{
closed = 1;
nodes = (
(234,47,l),
(214,64,o),
(205,80,o),
(205,116,cs),
(205,360,ls),
(205,438,o),
(171,488,o),
(98,488,c),
(34,468,l),
(114,468,o),
(118,423,o),
(118,360,cs),
(118,105,ls),
(118,41,o),
(143,11,o),
(182,-10,c)
);
},
{
closed = 1;
nodes = (
(466,0,l),
(466,280,ls),
(466,358,o),
(451,391,o),
(358,421,c),
(335,371,l),
(377,353,o),
(379,326,o),
(379,280,cs),
(379,0,l)
);
}
);
width = 792;
},
{
anchors = (
{
name = bottom;
pos = (674,0);
},
{
name = top;
pos = (674,544);
}
);
associatedMasterId = m01;
background = {
shapes = (
{
closed = 1;
nodes = (
(717,0,l),
(717,396,ls),
(717,491,o),
(661,544,o),
(547,544,cs),
(34,544,l),
(34,468,l),
(552,468,ls),
(602,468,o),
(630,440,o),
(630,390,cs),
(630,0,l)
);
},
{
closed = 1;
nodes = (
(234,47,l),
(214,64,o),
(205,80,o),
(205,116,cs),
(205,360,ls),
(205,438,o),
(171,488,o),
(98,488,c),
(34,468,l),
(114,468,o),
(118,423,o),
(118,360,cs),
(118,105,ls),
(118,41,o),
(143,11,o),
(182,-10,c)
);
},
{
closed = 1;
nodes = (
(466,0,l),
(466,280,ls),
(466,358,o),
(451,391,o),
(358,421,c),
(335,371,l),
(377,353,o),
(379,326,o),
(379,280,cs),
(379,0,l)
);
}
);
};
layerId = "8C2A2C62-04CD-4F01-8465-AF8850A50FF2";
name = "10 Feb 23 02.15";
shapes = (
{
closed = 1;
nodes = (
(717,0,l),
(717,396,ls),
(717,491,o),
(661,544,o),
(547,544,cs),
(63,544,l),
(63,468,l),
(552,468,ls),
(602,468,o),
(630,440,o),
(630,390,cs),
(630,0,l)
);
},
{
closed = 1;
nodes = (
(272,64,l),
(226,79,o),
(205,93,o),
(205,143,cs),
(205,350,l),
(145,488,l),
(63,468,l),
(118,350,l),
(118,145,ls),
(118,35,o),
(167,7,o),
(243,-10,c)
);
},
{
closed = 1;
nodes = (
(470,0,l),
(470,280,ls),
(470,358,o),
(455,391,o),
(362,421,c),
(339,371,l),
(381,353,o),
(383,326,o),
(383,280,cs),
(383,0,l)
);
}
);
width = 792;
},
{
anchors = (
{
name = bottom;
pos = (622,0);
},
{
name = top;
pos = (622,544);
}
);
associatedMasterId = m01;
background = {
shapes = (
{
closed = 1;
nodes = (
(665,0,l),
(665,396,ls),
(665,491,o),
(609,544,o),
(495,544,cs),
(11,544,l),
(11,468,l),
(500,468,ls),
(550,468,o),
(578,440,o),
(578,390,cs),
(578,0,l)
);
},
{
closed = 1;
nodes = (
(220,64,l),
(174,79,o),
(153,93,o),
(153,143,cs),
(153,350,l),
(93,488,l),
(11,468,l),
(66,350,l),
(66,145,ls),
(66,35,o),
(115,7,o),
(191,-10,c)
);
},
{
closed = 1;
nodes = (
(418,0,l),
(418,280,ls),
(418,358,o),
(403,391,o),
(310,421,c),
(287,371,l),
(329,353,o),
(331,326,o),
(331,280,cs),
(331,0,l)
);
}
);
};
layerId = "DFFDCBD5-3B9C-4F04-A4B5-65C81781E8F9";
name = "19 Feb 23 00.59";
shapes = (
{
closed = 1;
nodes = (
(218,64,l),
(172,79,o),
(151,93,o),
(151,143,cs),
(151,390,ls),
(151,440,o),
(179,468,o),
(229,468,cs),
(500,468,ls),
(550,468,o),
(578,440,o),
(578,390,cs),
(578,0,l),
(665,0,l),
(665,396,ls),
(665,491,o),
(609,544,o),
(495,544,cs),
(234,544,ls),
(120,544,o),
(64,491,o),
(64,396,cs),
(64,145,ls),
(64,35,o),
(113,7,o),
(189,-10,c)
);
},
{
closed = 1;
nodes = (
(419,0,l),
(419,280,ls),
(419,358,o),
(404,391,o),
(311,421,c),
(288,371,l),
(330,353,o),
(332,326,o),
(332,280,cs),
(332,0,l)
);
}
);
width = 740;
}
);
unicode = 73490;
},
{
glyphname = "kha-kawi";
layers = (
{
anchors = (
{
name = bottom;
pos = (640,0);
},
{
name = top;
pos = (640,544);
}
);
background = {
shapes = (
{
closed = 1;
nodes = (
(176,47,l),
(160,64,o),
(151,79,o),
(151,116,cs),
(151,390,ls),
(151,440,o),
(179,468,o),
(229,468,cs),
(458,468,ls),
(538,468,o),
(596,439,o),
(596,317,cs),
(596,195,ls),
(596,97,o),
(560,66,o),
(502,66,cs),
(444,66,o),
(417,97,o),
(417,164,cs),
(417,504,l),
(330,504,l),
(330,158,ls),
(330,48,o),
(387,-10,o),
(499,-10,cs),
(613,-10,o),
(683,49,o),
(683,195,cs),
(683,317,ls),
(683,485,o),
(599,544,o),
(453,544,cs),
(234,544,ls),
(120,544,o),
(64,491,o),
(64,396,cs),
(64,105,ls),
(64,45,o),
(84,15,o),
(113,-10,c)
);
}
);
};
layerId = m01;
shapes = (
{
closed = 1;
nodes = (
(218,64,l),
(172,79,o),
(151,93,o),
(151,143,cs),
(151,390,ls),
(151,440,o),
(179,468,o),
(229,468,cs),
(518,468,ls),
(568,468,o),
(596,440,o),
(596,390,cs),
(596,195,ls),
(596,97,o),
(560,66,o),
(502,66,cs),
(444,66,o),
(417,97,o),
(417,164,cs),
(417,504,l),
(330,504,l),
(330,158,ls),
(330,48,o),
(387,-10,o),
(499,-10,cs),
(613,-10,o),
(683,49,o),
(683,195,cs),
(683,396,ls),
(683,491,o),
(627,544,o),
(513,544,cs),
(234,544,ls),
(120,544,o),
(64,491,o),
(64,396,cs),
(64,145,ls),
(64,35,o),
(113,7,o),
(189,-10,c)
);
}
);
width = 747;
},
{
anchors = (
{
name = bottom;
pos = (669,0);
},
{
name = top;
pos = (669,544);
}
);
background = {
shapes = (
{
closed = 1;
nodes = (
(508,468,ls),
(588,468,o),
(646,439,o),
(646,317,cs),
(646,195,ls),
(646,97,o),
(610,66,o),
(552,66,cs),
(494,66,o),
(467,97,o),
(467,164,cs),
(467,504,l),
(380,504,l),
(380,158,ls),
(380,48,o),
(437,-10,o),
(549,-10,cs),
(663,-10,o),
(733,49,o),
(733,195,cs),
(733,317,ls),
(733,485,o),
(649,544,o),
(503,544,cs),
(284,544,ls),
(170,544,o),
(114,491,o),
(114,396,cs),
(114,145,ls),
(114,35,o),
(163,7,o),
(239,-10,c),
(268,64,l),
(222,79,o),
(201,93,o),
(201,143,cs),
(201,390,ls),
(201,440,o),
(229,468,o),
(279,468,cs)
);
}
);
};
layerId = "FD202070-6699-4318-8E83-95414ED89137";
shapes = (
{
closed = 1;
nodes = (
(268,97,l),
(224,120,o),
(205,140,o),
(205,190,cs),
(205,353,ls),
(205,395,o),
(228,418,o),
(270,418,cs),
(512,418,ls),
(560,418,o),
(595,399,o),
(595,317,cs),
(595,240,ls),
(595,146,o),
(571,116,o),
(530,116,cs),
(494,116,o),
(476,139,o),
(476,189,cs),
(476,504,l),
(329,504,l),
(329,158,ls),
(329,48,o),
(397,-10,o),
(527,-10,cs),
(662,-10,o),
(742,55,o),
(742,215,cs),
(742,317,ls),
(742,485,o),
(647,544,o),
(482,544,cs),
(265,544,ls),
(133,544,o),
(58,478,o),
(58,359,cs),
(58,175,ls),
(58,63,o),
(114,25,o),
(207,-10,c)
);
}
);
width = 800;
},
{
anchors = (
{
name = bottom;
pos = (639,0);
},
{
name = top;
pos = (639,544);
}
);
associatedMasterId = m01;
background = {
shapes = (
{
closed = 1;
nodes = (
(175,47,l),
(159,64,o),
(150,79,o),
(150,116,cs),
(150,390,ls),
(150,440,o),
(178,468,o),
(228,468,cs),
(457,468,ls),
(537,468,o),
(595,439,o),
(595,317,cs),
(595,195,ls),
(595,97,o),
(559,66,o),
(501,66,cs),
(443,66,o),
(416,97,o),
(416,164,cs),
(416,504,l),
(329,504,l),
(329,158,ls),
(329,48,o),
(386,-10,o),
(498,-10,cs),
(612,-10,o),
(682,49,o),
(682,195,cs),
(682,317,ls),
(682,485,o),
(598,544,o),
(452,544,cs),
(233,544,ls),
(119,544,o),
(63,491,o),
(63,396,cs),
(63,105,ls),
(63,45,o),
(83,15,o),
(112,-10,c)
);
}
);
};
layerId = "70C7F390-FBAA-47D9-A466-00130D49F873";
name = "10 Feb 23 02.28";
shapes = (
{
closed = 1;
nodes = (
(175,47,l),
(159,64,o),
(150,79,o),
(150,116,cs),
(150,390,ls),
(150,440,o),
(178,468,o),
(228,468,cs),
(457,468,ls),
(537,468,o),
(595,439,o),
(595,317,cs),
(595,195,ls),
(595,97,o),
(559,66,o),
(501,66,cs),
(443,66,o),
(416,97,o),
(416,164,cs),
(416,504,l),
(329,504,l),
(329,158,ls),
(329,48,o),
(386,-10,o),
(498,-10,cs),
(612,-10,o),
(682,49,o),
(682,195,cs),
(682,317,ls),
(682,485,o),
(598,544,o),
(452,544,cs),
(233,544,ls),
(119,544,o),
(63,491,o),
(63,396,cs),
(63,105,ls),
(63,45,o),
(83,15,o),
(112,-10,c)
);
}
);
width = 745;
},
{
anchors = (
{
name = bottom;
pos = (669,0);
},
{
name = top;
pos = (669,544);
}
);
associatedMasterId = "FD202070-6699-4318-8E83-95414ED89137";
background = {
shapes = (
{
closed = 1;
nodes = (
(508,468,ls),
(588,468,o),
(646,439,o),
(646,317,cs),
(646,195,ls),
(646,97,o),
(610,66,o),
(552,66,cs),
(494,66,o),
(467,97,o),
(467,164,cs),
(467,504,l),
(380,504,l),
(380,158,ls),
(380,48,o),
(437,-10,o),
(549,-10,cs),
(663,-10,o),
(733,49,o),
(733,195,cs),
(733,317,ls),
(733,485,o),
(649,544,o),
(503,544,cs),
(284,544,ls),
(170,544,o),
(114,491,o),
(114,396,cs),
(114,145,ls),
(114,35,o),
(163,7,o),
(239,-10,c),
(268,64,l),
(222,79,o),
(201,93,o),
(201,143,cs),
(201,390,ls),
(201,440,o),
(229,468,o),
(279,468,cs)
);
}
);
};
layerId = "F751B0ED-1EE8-42F1-9FA4-7568447EA4E0";
name = "10 Feb 23 03.06";
shapes = (
{
closed = 1;
nodes = (
(245,97,l),
(217,115,o),
(205,131,o),
(205,170,cs),
(205,353,ls),
(205,395,o),
(228,418,o),
(270,418,cs),
(512,418,ls),
(560,418,o),
(595,399,o),
(595,317,cs),
(595,240,ls),
(595,146,o),
(571,116,o),
(530,116,cs),
(494,116,o),
(476,139,o),
(476,189,cs),
(476,504,l),
(329,504,l),
(329,158,ls),
(329,48,o),
(397,-10,o),
(527,-10,cs),
(662,-10,o),
(742,55,o),
(742,215,cs),
(742,317,ls),
(742,485,o),
(647,544,o),
(482,544,cs),
(265,544,ls),
(133,544,o),
(58,478,o),
(58,359,cs),
(58,145,ls),
(58,51,o),
(100,24,o),
(174,-10,c)
);
}
);
width = 800;
}
);
metricLeft = "ka-kawi";
metricRight = "=|";
unicode = 73491;
},
{
glyphname = "lVocalic-kawi";
layers = (
{
background = {
shapes = (
{
closed = 1;
nodes = (
(218,64,l),
(172,79,o),
(151,93,o),
(151,143,cs),
(151,388,ls),
(151,441,o),
(170,473,o),
(213,473,cs),
(259,473,o),
(292,435,o),
(307,344,c),
(361,344,l),
(388,432,o),
(420,473,o),
(472,473,cs),
(503,473,o),
(523,460,o),
(523,417,cs),
(523,0,l),
(610,0,l),
(610,426,ls),
(610,507,o),
(570,554,o),
(494,554,cs),
(417,554,o),
(358,506,o),
(324,396,c),
(351,401,l),
(340,504,o),
(283,554,o),
(202,554,cs),
(105,554,o),
(64,483,o),
(64,388,cs),
(64,145,ls),
(64,35,o),
(113,7,o),
(189,-10,c)
);
}
);
};
layerId = m01;
shapes = (
{
closed = 1;
nodes = (
(491,-580,o),
(610,-395,o),
(610,-114,cs),
(610,414,ls),
(610,502,o),
(571,554,o),
(491,554,cs),
(412,554,o),
(345,506,o),
(320,396,c),
(347,401,l),
(342,510,o),
(282,554,o),
(202,554,cs),
(105,554,o),
(64,493,o),
(64,414,cs),
(64,145,ls),
(64,35,o),
(113,7,o),
(189,-10,c),
(218,64,l),
(172,79,o),
(151,93,o),
(151,143,cs),
(151,405,ls),
(151,454,o),
(170,477,o),
(211,477,cs),
(258,477,o),
(288,444,o),
(297,344,c),
(371,344,l),
(385,435,o),
(418,477,o),
(472,477,cs),
(503,477,o),
(523,460,o),
(523,405,cs),
(523,-108,ls),
(523,-319,o),
(457,-503,o),
(307,-503,cs),
(220,-503,o),
(164,-442,o),
(164,-338,cs),
(164,-251,o),
(204,-173,o),
(322,-173,cs),
(452,-173,o),
(542,-270,o),
(608,-570,c),
(666,-558,l),
(611,-256,o),
(519,-96,o),
(322,-96,cs),
(163,-96,o),
(77,-198,o),
(77,-338,cs),
(77,-487,o),
(174,-580,o),
(304,-580,cs)
);
}
);
width = 681;
},
{
layerId = "FD202070-6699-4318-8E83-95414ED89137";
width = 600;
}
);
unicode = 73484;
},
{
glyphname = "la-kawi";
layers = (
{
background = {
shapes = (
{
closed = 1;
nodes = (
(218,64,l),
(172,79,o),
(151,93,o),
(151,143,cs),
(151,390,ls),
(151,440,o),
(179,468,o),
(229,468,cs),
(300,468,ls),
(350,468,o),
(378,440,o),
(378,390,cs),
(378,0,l),
(465,0,l),
(465,396,ls),
(465,491,o),
(409,544,o),
(295,544,cs),
(234,544,ls),
(120,544,o),
(64,491,o),
(64,396,cs),
(64,145,ls),
(64,35,o),
(113,7,o),
(189,-10,c)
);
}
);
};
layerId = m01;
shapes = (
{
closed = 1;
nodes = (
(260,468,ls),
(310,468,o),
(338,440,o),
(338,390,cs),
(338,148,ls),
(338,53,o),
(394,0,o),
(508,0,cs),
(554,0,ls),
(645,0,o),
(727,32,o),
(727,156,cs),
(727,360,ls),
(727,438,o),
(693,488,o),
(620,488,c),
(556,468,l),
(636,468,o),
(640,423,o),
(640,360,cs),
(640,156,ls),
(640,95,o),
(603,76,o),
(562,76,cs),
(503,76,ls),
(453,76,o),
(425,104,o),
(425,154,cs),
(425,396,ls),
(425,491,o),
(370,544,o),
(256,544,cs),
(235,544,ls),
(121,544,o),
(64,491,o),
(64,396,cs),
(64,145,ls),
(64,35,o),
(113,7,o),
(189,-10,c),
(218,64,l),
(172,79,o),
(151,93,o),
(151,143,cs),
(151,390,ls),
(151,440,o),
(179,468,o),
(229,468,cs)
);
},
{
closed = 1;
nodes = (
(764,468,l),
(764,544,l),
(556,544,l),
(556,468,l)
);
}
);
width = 800;
},
{
background = {
shapes = (
{
closed = 1;
nodes = (
(260,468,ls),
(310,468,o),
(338,440,o),
(338,390,cs),
(338,148,ls),
(338,53,o),
(394,0,o),
(508,0,cs),
(554,0,ls),
(645,0,o),
(727,32,o),
(727,156,cs),
(727,360,ls),
(727,438,o),
(693,488,o),
(620,488,c),
(556,468,l),
(636,468,o),
(640,423,o),
(640,360,cs),
(640,156,ls),
(640,95,o),
(603,76,o),
(562,76,cs),
(503,76,ls),
(453,76,o),
(425,104,o),
(425,154,cs),
(425,396,ls),
(425,491,o),
(370,544,o),
(256,544,cs),
(235,544,ls),
(121,544,o),
(64,491,o),
(64,396,cs),
(64,145,ls),
(64,35,o),
(113,7,o),
(189,-10,c),
(218,64,l),
(172,79,o),
(151,93,o),
(151,143,cs),
(151,390,ls),
(151,440,o),
(179,468,o),
(229,468,cs)
);
},
{
closed = 1;
nodes = (
(764,468,l),
(764,544,l),
(556,544,l),
(556,468,l)
);
}
);
};
layerId = "FD202070-6699-4318-8E83-95414ED89137";
shapes = (
{
closed = 1;
nodes = (
(322,66,o),
(387,0,o),
(519,0,cs),
(564,0,ls),
(696,0,o),
(761,66,o),
(761,185,cs),
(761,315,ls),
(761,393,o),
(721,443,o),
(594,443,c),
(540,423,l),
(610,423,o),
(614,378,o),
(614,315,cs),
(614,187,ls),
(614,146,o),
(593,126,o),
(556,126,cs),
(526,126,ls),
(489,126,o),
(469,146,o),
(469,187,cs),
(469,359,ls),
(469,478,o),
(404,544,o),
(272,544,cs),
(240,544,ls),
(114,544,o),
(43,478,o),
(43,359,cs),
(43,145,ls),
(43,51,o),
(85,24,o),
(173,-10,c),
(237,97,l),
(201,115,o),
(190,131,o),
(190,170,cs),
(190,353,ls),
(190,395,o),
(209,418,o),
(245,418,cs),
(267,418,ls),
(303,418,o),
(322,395,o),
(322,353,cs),
(322,185,ls)
);
},
{
closed = 1;
nodes = (
(797,423,l),
(797,544,l),
(530,544,l),
(530,423,l)
);
}
);
width = 851;
}
);
metricRight = "ra-kawi";
unicode = 73517;
},
{
glyphname = "llVocalic-kawi";
layers = (
{
layerId = m01;
shapes = (
{
closed = 1;
nodes = (
(545,-579,o),
(673,-480,o),
(673,-331,cs),
(673,-191,o),
(560,-76,o),
(382,-76,cs),
(249,-76,o),
(183,-140,o),
(183,-231,cs),
(183,-329,o),
(258,-385,o),
(356,-385,cs),
(497,-385,o),
(610,-269,o),
(610,-24,cs),
(610,414,ls),
(610,507,o),
(568,554,o),
(490,554,cs),
(412,554,o),
(339,507,o),
(320,396,c),
(347,401,l),
(342,510,o),
(282,554,o),
(202,554,cs),
(105,554,o),
(64,493,o),
(64,414,cs),
(64,145,ls),
(64,35,o),
(113,7,o),
(189,-10,c),
(218,64,l),
(172,79,o),
(151,93,o),
(151,143,cs),
(151,405,ls),
(151,451,o),
(170,473,o),
(211,473,cs),
(258,473,o),
(288,441,o),
(297,344,c),
(371,344,l),
(385,432,o),
(417,473,o),
(469,473,cs),
(503,473,o),
(523,456,o),
(523,405,cs),
(523,-48,ls),
(523,-244,o),
(455,-304,o),
(364,-304,cs),
(303,-304,o),
(270,-277,o),
(270,-232,cs),
(270,-190,o),
(298,-157,o),
(388,-157,cs),
(518,-157,o),
(597,-225,o),
(597,-329,cs),
(597,-445,o),
(498,-498,o),
(382,-498,cs),
(244,-498,o),
(111,-424,o),
(54,-206,c),
(-5,-223,l),
(47,-448,o),
(177,-579,o),
(374,-579,cs)
);
}
);
width = 690;
},
{
layerId = "FD202070-6699-4318-8E83-95414ED89137";
width = 600;
}
);
unicode = 73485;
},
{
glyphname = "ma-kawi";
layers = (
{
background = {
shapes = (
{
closed = 1;
nodes = (
(201,291,l),
(107,291,o),
(45,239,o),
(45,144,cs),
(45,30,o),
(134,0,o),
(209,0,cs),
(453,0,ls),
(567,0,o),
(623,53,o),
(623,148,cs),
(623,544,l),
(536,544,l),
(536,154,ls),
(536,104,o),
(508,76,o),
(458,76,cs),
(215,76,ls),
(181,76,o),
(137,96,o),
(137,157,cs),
(137,221,o),
(186,245,o),
(226,245,cs),
(555,245,l),
(555,321,l),
(226,321,ls),
(192,321,o),
(152,338,o),
(152,397,cs),
(152,453,o),
(186,478,o),
(243,478,cs),
(282,478,o),
(313,465,o),
(332,423,c),
(404,460,l),
(374,524,o),
(325,554,o),
(244,554,cs),
(116,554,o),
(60,486,o),
(60,400,cs),
(60,321,o),
(108,275,o),
(201,275,c)
);
}
);
};
layerId = m01;
shapes = (
{
closed = 1;
nodes = (
(458,0,ls),
(572,0,o),
(628,53,o),
(628,148,cs),
(628,360,ls),
(628,438,o),
(594,488,o),
(521,488,c),
(457,468,l),
(537,468,o),
(541,423,o),
(541,360,cs),
(541,154,ls),
(541,104,o),
(513,76,o),
(463,76,cs),
(215,76,ls),
(181,76,o),
(137,96,o),
(137,157,cs),
(137,221,o),
(186,245,o),
(226,245,cs),
(340,245,l),
(340,321,l),
(226,321,ls),
(192,321,o),
(152,338,o),
(152,397,cs),
(152,453,o),
(185,478,o),
(241,478,cs),
(281,478,o),
(313,465,o),
(332,423,c),
(404,460,l),
(374,524,o),
(321,554,o),
(238,554,cs),
(117,554,o),
(60,486,o),
(60,402,cs),
(60,326,o),
(108,275,o),
(201,275,c),
(201,291,l),
(107,291,o),
(45,239,o),
(45,144,cs),
(45,30,o),
(134,0,o),
(209,0,cs)
);
},
{
closed = 1;
nodes = (
(665,468,l),
(665,544,l),
(457,544,l),
(457,468,l)
);
},
{
closed = 1;
nodes = (
(483,-508,l),
(277,-508,o),
(179,-459,o),
(179,-330,cs),
(179,-225,o),
(244,-172,o),
(357,-172,cs),
(463,-172,o),
(489,-218,o),
(489,-239,cs),
(489,-252,o),
(478,-257,o),
(467,-257,cs),
(436,-257,o),
(412,-218,o),
(409,-151,c),
(340,-158,l),
(347,-255,o),
(393,-326,o),
(469,-326,cs),
(522,-326,o),
(563,-292,o),
(563,-233,cs),
(563,-158,o),
(497,-96,o),
(359,-96,cs),
(194,-96,o),
(92,-185,o),
(92,-329,cs),
(92,-481,o),
(206,-580,o),
(464,-580,c)
);
}
);
width = 701;
},
{
layerId = "FD202070-6699-4318-8E83-95414ED89137";
width = 1322;
},
{
associatedMasterId = m01;
background = {
shapes = (
{
closed = 1;
nodes = (
(536,0,ls),
(650,0,o),
(706,53,o),
(706,148,cs),
(706,544,l),
(619,544,l),
(619,154,ls),
(619,104,o),
(591,76,o),
(541,76,cs),
(248,76,ls),
(198,76,o),
(170,98,o),
(170,155,cs),
(170,379,ls),
(170,436,o),
(198,468,o),
(248,468,cs),
(338,468,ls),
(392,468,o),
(415,453,o),
(441,419,c),
(503,466,l),
(469,516,o),
(430,544,o),
(338,544,cs),
(242,544,ls),
(140,544,o),
(83,488,o),
(83,374,cs),
(83,160,ls),
(83,46,o),
(140,0,o),
(242,0,cs)
);
},
{
closed = 1;
nodes = (
(398,238,l),
(398,314,l),
(144,314,l),
(144,238,l)
);
}
);
};
layerId = "95F55CFF-EAD5-4229-9431-EE801319AB9B";
name = "8 Feb 23 01.19";
shapes = (
{
closed = 1;
nodes = (
(234,291,l),
(140,291,o),
(78,239,o),
(78,144,cs),
(78,30,o),
(167,0,o),
(242,0,cs),
(496,0,ls),
(610,0,o),
(666,53,o),
(666,148,cs),
(666,544,l),
(579,544,l),
(579,154,ls),
(579,104,o),
(551,76,o),
(501,76,cs),
(248,76,ls),
(214,76,o),
(170,96,o),
(170,157,cs),
(170,221,o),
(219,245,o),
(259,245,cs),
(438,245,l),
(438,321,l),
(259,321,ls),
(225,321,o),
(185,338,o),
(185,397,cs),
(185,453,o),
(221,478,o),
(278,478,cs),
(323,478,o),
(360,463,o),
(378,419,c),
(450,456,l),
(418,523,o),
(367,554,o),
(280,554,cs),
(151,554,o),
(93,487,o),
(93,398,cs),
(93,321,o),
(141,275,o),
(234,275,c)
);
}
);
width = 744;
},
{
associatedMasterId = m01;
background = {
shapes = (
{
closed = 1;
nodes = (
(206,291,l),
(112,291,o),
(50,239,o),
(50,144,cs),
(50,30,o),
(139,0,o),
(214,0,cs),
(468,0,ls),
(582,0,o),
(638,53,o),
(638,148,cs),
(638,544,l),
(551,544,l),
(551,154,ls),
(551,104,o),
(523,76,o),
(473,76,cs),
(220,76,ls),
(186,76,o),
(142,96,o),
(142,157,cs),
(142,221,o),
(191,245,o),
(231,245,cs),
(410,245,l),
(410,321,l),
(231,321,ls),
(197,321,o),
(157,338,o),
(157,397,cs),
(157,453,o),
(193,478,o),
(250,478,cs),
(295,478,o),
(332,463,o),
(350,419,c),
(422,456,l),
(390,523,o),
(339,554,o),
(252,554,cs),
(123,554,o),
(65,487,o),
(65,398,cs),
(65,321,o),
(113,275,o),
(206,275,c)
);
}
);
};
layerId = "C47E1F97-FFC0-4F9A-9746-542FC3D1E9D1";
name = "10 Feb 23 02.29";
shapes = (
{
closed = 1;
nodes = (
(206,291,l),
(112,291,o),
(50,239,o),
(50,144,cs),
(50,30,o),
(139,0,o),
(214,0,cs),
(408,0,ls),
(522,0,o),
(578,53,o),
(578,148,cs),
(578,544,l),
(491,544,l),
(491,154,ls),
(491,104,o),
(463,76,o),
(413,76,cs),
(220,76,ls),
(186,76,o),
(142,96,o),
(142,157,cs),
(142,221,o),
(191,245,o),
(231,245,cs),
(510,245,l),
(510,321,l),
(231,321,ls),
(197,321,o),
(157,338,o),
(157,397,cs),
(157,453,o),
(191,478,o),
(248,478,cs),
(287,478,o),
(318,465,o),
(337,423,c),
(409,460,l),
(379,524,o),
(330,554,o),
(249,554,cs),
(121,554,o),
(65,486,o),
(65,400,cs),
(65,321,o),
(113,275,o),
(206,275,c)
);
}
);
width = 641;
}
);
metricRight = "ra-kawi";
unicode = 73514;
},
{
glyphname = "na-kawi";
layers = (
{
background = {
shapes = (
{
closed = 1;
nodes = (
(151,0,l),
(151,379,ls),
(151,436,o),
(179,468,o),
(229,468,cs),
(349,468,ls),
(403,468,o),
(426,453,o),
(452,419,c),
(514,466,l),
(480,516,o),
(441,544,o),
(349,544,cs),
(223,544,ls),
(121,544,o),
(64,488,o),
(64,374,cs),
(64,0,l)
);
},
{
closed = 1;
nodes = (
(146,137,l),
(196,179,o),
(251,194,o),
(295,194,cs),
(352,194,o),
(378,166,o),
(378,116,cs),
(378,0,l),
(465,0,l),
(465,122,ls),
(465,217,o),
(410,270,o),
(312,270,cs),
(241,270,o),
(186,244,o),
(131,191,c)
);
}
);
};
layerId = m01;
shapes = (
{
closed = 1;
nodes = (
(151,0,l),
(151,379,ls),
(151,436,o),
(179,468,o),
(229,468,cs),
(349,468,ls),
(403,468,o),
(426,453,o),
(452,419,c),
(514,466,l),
(480,516,o),
(441,544,o),
(349,544,cs),
(223,544,ls),
(121,544,o),
(64,488,o),
(64,374,cs),
(64,0,l)
);
},
{
closed = 1;
nodes = (
(146,137,l),
(199,179,o),
(257,194,o),
(303,194,cs),
(361,194,o),
(388,166,o),
(388,116,cs),
(388,0,l),
(475,0,l),
(475,122,ls),
(475,217,o),
(419,270,o),
(320,270,cs),
(246,270,o),
(188,244,o),
(131,191,c)
);
}
);
width = 550;
},
{
layerId = "FD202070-6699-4318-8E83-95414ED89137";
shapes = (
{
closed = 1;
nodes = (
(205,0,l),
(205,354,ls),
(205,395,o),
(225,418,o),
(261,418,cs),
(371,418,ls),
(409,418,o),
(428,404,o),
(444,373,c),
(562,425,l),
(525,513,o),
(470,544,o),
(382,544,cs),
(263,544,ls),
(132,544,o),
(58,485,o),
(58,364,cs),
(58,0,l)
);
},
{
closed = 1;
nodes = (
(198,137,l),
(233,165,o),
(263,174,o),
(302,174,cs),
(361,174,o),
(380,153,o),
(380,116,cs),
(380,0,l),
(527,0,l),
(527,132,ls),
(527,240,o),
(471,300,o),
(365,300,cs),
(287,300,o),
(238,267,o),
(193,201,c)
);
}
);
width = 587;
},
{
associatedMasterId = m01;
layerId = "974E31C2-2154-48D8-996B-CAD529197C18";
name = "19 Feb 23 00.59";
shapes = (
{
closed = 1;
nodes = (
(151,0,l),
(151,379,ls),
(151,436,o),
(179,468,o),
(229,468,cs),
(349,468,ls),
(403,468,o),
(426,453,o),
(452,419,c),
(514,466,l),
(480,516,o),
(441,544,o),
(349,544,cs),
(223,544,ls),
(121,544,o),
(64,488,o),
(64,374,cs),
(64,0,l)
);
},
{
closed = 1;
nodes = (
(146,137,l),
(196,179,o),
(251,194,o),
(295,194,cs),
(352,194,o),
(378,166,o),
(378,116,cs),
(378,0,l),
(465,0,l),
(465,122,ls),
(465,217,o),
(410,270,o),
(312,270,cs),
(241,270,o),
(186,244,o),
(131,191,c)
);
}
);
width = 550;
}
);
metricLeft = "ka-kawi";
unicode = 73509;
},
{
glyphname = "nga-kawi";
layers = (
{
layerId = m01;
shapes = (
{
closed = 1;
nodes = (
(569,0,l),
(569,76,l),
(229,76,ls),
(179,76,o),
(151,98,o),
(151,155,cs),
(151,388,ls),
(151,441,o),
(170,473,o),
(213,473,cs),
(262,473,o),
(292,435,o),
(307,344,c),
(361,344,l),
(388,432,o),
(420,473,o),
(472,473,cs),
(508,473,o),
(535,454,o),
(535,413,cs),
(535,374,o),
(512,329,o),
(455,295,c),
(488,241,l),
(581,291,o),
(623,338,o),
(623,417,cs),
(623,501,o),
(576,554,o),
(490,554,cs),
(409,554,o),
(350,506,o),
(316,396,c),
(358,401,l),
(346,504,o),
(287,554,o),
(202,554,cs),
(105,554,o),
(64,483,o),
(64,388,cs),
(64,160,ls),
(64,46,o),
(121,0,o),
(223,0,cs)
);
}
);
width = 660;
},
{
layerId = "FD202070-6699-4318-8E83-95414ED89137";
width = 832;
}
);
metricLeft = "ka-kawi";
unicode = 73494;
},
{
glyphname = "nna-kawi";
layers = (
{
background = {
shapes = (
{
closed = 1;
nodes = (
(857,0,o),
(912,53,o),
(912,148,cs),
(912,360,ls),
(912,438,o),
(878,488,o),
(805,488,c),
(741,468,l),
(821,468,o),
(825,423,o),
(825,360,cs),
(825,154,ls),
(825,104,o),
(803,76,o),
(752,76,cs),
(700,76,o),
(641,108,o),
(606,187,c),
(564,172,l),
(589,73,o),
(662,0,o),
(766,0,cs)
);
},
{
closed = 1;
nodes = (
(949,468,l),
(949,544,l),
(741,544,l),
(741,468,l)
);
}
);
};
layerId = m01;
shapes = (
{
closed = 1;
nodes = (
(218,64,l),
(172,79,o),
(151,93,o),
(151,143,cs),
(151,390,ls),
(151,440,o),
(179,468,o),
(229,468,cs),
(260,468,ls),
(310,468,o),
(338,440,o),
(338,390,cs),
(338,132,ls),
(338,27,o),
(388,-10,o),
(493,-10,cs),
(595,-10,o),
(647,27,o),
(647,132,cs),
(647,390,ls),
(647,440,o),
(675,468,o),
(725,468,cs),
(756,468,ls),
(806,468,o),
(834,440,o),
(834,390,cs),
(834,0,l),
(921,0,l),
(921,396,ls),
(921,491,o),
(865,544,o),
(751,544,cs),
(730,544,ls),
(616,544,o),
(560,491,o),
(560,396,cs),
(560,133,ls),
(560,84,o),
(538,66,o),
(493,66,cs),
(448,66,o),
(425,84,o),
(425,133,cs),
(425,396,ls),
(425,491,o),
(370,544,o),
(256,544,cs),
(235,544,ls),
(121,544,o),
(64,491,o),
(64,396,cs),
(64,145,ls),
(64,35,o),
(113,7,o),
(189,-10,c)
);
}
);
width = 996;
},
{
layerId = "FD202070-6699-4318-8E83-95414ED89137";
width = 1205;
}
);
metricLeft = "ka-kawi";
metricRight = "ka-kawi";
unicode = 73504;
},
{
glyphname = "nya-kawi";
layers = (
{
layerId = m01;
shapes = (
{
closed = 1;
nodes = (
(218,64,l),
(172,79,o),
(151,93,o),
(151,143,cs),
(151,388,ls),
(151,441,o),
(170,473,o),
(213,473,cs),
(259,473,o),
(292,435,o),
(307,344,c),
(361,344,l),
(388,432,o),
(420,473,o),
(472,473,cs),
(503,473,o),
(523,460,o),
(523,417,cs),
(523,0,l),
(610,0,l),
(610,426,ls),
(610,507,o),
(570,554,o),
(494,554,cs),
(417,554,o),
(358,506,o),
(324,396,c),
(351,401,l),
(340,504,o),
(283,554,o),
(202,554,cs),
(105,554,o),
(64,483,o),
(64,388,cs),
(64,145,ls),
(64,35,o),
(113,7,o),
(189,-10,c)
);
},
{
closed = 1;
nodes = (
(884,0,l),
(884,401,ls),
(884,496,o),
(835,549,o),
(729,549,cs),
(708,549,ls),
(627,549,o),
(573,484,o),
(573,396,c),
(610,390,l),
(610,443,o),
(638,473,o),
(689,473,cs),
(720,473,ls),
(769,473,o),
(797,445,o),
(797,395,cs),
(797,0,l)
);
}
);
width = 959;
},
{
layerId = "FD202070-6699-4318-8E83-95414ED89137";
width = 789;
}
);
metricRight = "ka-kawi";
unicode = 73499;
},
{
glyphname = "o-kawi";
layers = (
{
background = {
shapes = (
{
closed = 1;
nodes = (
(584,-571,l),
(574,-455,o),
(525,-401,o),
(446,-401,cs),
(340,-401,o),
(331,-498,o),
(248,-498,cs),
(206,-498,o),
(179,-474,o),
(179,-410,cs),
(179,-376,ls),
(179,-228,o),
(228,-152,o),
(336,-152,cs),
(395,-152,ls),
(543,-152,o),
(610,-71,o),
(610,48,cs),
(610,426,ls),
(610,507,o),
(570,554,o),
(494,554,cs),
(417,554,o),
(358,506,o),
(324,396,c),
(351,401,l),
(340,504,o),
(283,554,o),
(202,554,cs),
(105,554,o),
(64,483,o),
(64,388,cs),
(64,145,ls),
(64,35,o),
(113,7,o),
(189,-10,c),
(218,64,l),
(172,79,o),
(151,93,o),
(151,143,cs),
(151,388,ls),
(151,441,o),
(170,473,o),
(213,473,cs),
(259,473,o),
(292,435,o),
(307,344,c),
(361,344,l),
(388,432,o),
(420,473,o),
(472,473,cs),
(503,473,o),
(523,460,o),
(523,417,cs),
(523,48,ls),
(523,-46,o),
(486,-76,o),
(395,-76,cs),
(336,-76,ls),
(179,-76,o),
(92,-182,o),
(92,-371,cs),
(92,-410,ls),
(92,-514,o),
(149,-580,o),
(245,-580,cs),
(361,-580,o),
(374,-480,o),
(444,-480,cs),
(474,-480,o),
(503,-500,o),
(513,-581,c)
);
}
);
};
layerId = m01;
shapes = (
{
closed = 1;
nodes = (
(612,-571,l),
(601,-455,o),
(549,-401,o),
(465,-401,cs),
(352,-401,o),
(325,-498,o),
(236,-498,cs),
(192,-498,o),
(160,-475,o),
(160,-410,cs),
(160,-387,ls),
(160,-106,o),
(610,-264,o),
(610,118,cs),
(610,414,ls),
(610,503,o),
(568,554,o),
(489,554,cs),
(413,554,o),
(338,506,o),
(320,396,c),
(347,401,l),
(342,510,o),
(282,554,o),
(202,554,cs),
(105,554,o),
(64,493,o),
(64,414,cs),
(64,145,ls),
(64,35,o),
(113,7,o),
(189,-10,c),
(218,64,l),
(172,79,o),
(151,93,o),
(151,143,cs),
(151,405,ls),
(151,451,o),
(170,473,o),
(211,473,cs),
(258,473,o),
(288,441,o),
(297,344,c),
(371,344,l),
(385,432,o),
(418,473,o),
(472,473,cs),
(503,473,o),
(523,457,o),
(523,405,cs),
(523,118,ls),
(523,-200,o),
(73,-42,o),
(73,-387,cs),
(73,-410,ls),
(73,-514,o),
(134,-580,o),
(233,-580,cs),
(353,-580,o),
(387,-480,o),
(461,-480,cs),
(493,-480,o),
(522,-500,o),
(532,-581,c)
);
}
);
width = 691;
},
{
layerId = "FD202070-6699-4318-8E83-95414ED89137";
width = 890;
},
{
associatedMasterId = m01;
layerId = "5EAEEAAB-D2F2-4BC3-8401-1F6491F66448";
name = "18 Feb 23 17.39";
shapes = (
{
closed = 1;
nodes = (
(377,-580,o),
(401,-460,o),
(508,-460,cs),
(551,-460,o),
(582,-479,o),
(598,-571,c),
(667,-554,l),
(651,-442,o),
(598,-381,o),
(510,-381,cs),
(388,-381,o),
(346,-498,o),
(249,-498,cs),
(203,-498,o),
(169,-472,o),
(169,-405,cs),
(169,-166,o),
(610,-181,o),
(610,110,cs),
(610,426,ls),
(610,507,o),
(570,554,o),
(494,554,cs),
(417,554,o),
(358,506,o),
(324,396,c),
(351,401,l),
(340,504,o),
(283,554,o),
(202,554,cs),
(105,554,o),
(64,483,o),
(64,388,cs),
(64,145,ls),
(64,35,o),
(113,7,o),
(189,-10,c),
(218,64,l),
(172,79,o),
(151,93,o),
(151,143,cs),
(151,388,ls),
(151,441,o),
(170,473,o),
(213,473,cs),
(259,473,o),
(292,435,o),
(307,344,c),
(361,344,l),
(388,432,o),
(420,473,o),
(472,473,cs),
(503,473,o),
(523,460,o),
(523,417,cs),
(523,100,ls),
(523,-108,o),
(88,-123,o),
(88,-411,cs),
(88,-522,o),
(152,-580,o),
(244,-580,cs)
);
}
);
width = 691;
},
{
associatedMasterId = m01;
background = {
shapes = (
{
closed = 1;
nodes = (
(377,-580,o),
(401,-460,o),
(508,-460,cs),
(551,-460,o),
(582,-479,o),
(598,-571,c),
(667,-554,l),
(651,-442,o),
(598,-381,o),
(510,-381,cs),
(388,-381,o),
(346,-498,o),
(249,-498,cs),
(203,-498,o),
(169,-472,o),
(169,-405,cs),
(169,-166,o),
(610,-181,o),
(610,110,cs),
(610,426,ls),
(610,507,o),
(570,554,o),
(494,554,cs),
(417,554,o),
(358,506,o),
(324,396,c),
(351,401,l),
(340,504,o),
(283,554,o),
(202,554,cs),
(105,554,o),
(64,483,o),
(64,388,cs),
(64,145,ls),
(64,35,o),
(113,7,o),
(189,-10,c),
(218,64,l),
(172,79,o),
(151,93,o),
(151,143,cs),
(151,388,ls),
(151,441,o),
(170,473,o),
(213,473,cs),
(259,473,o),
(292,435,o),
(307,344,c),
(361,344,l),
(388,432,o),
(420,473,o),
(472,473,cs),
(503,473,o),
(523,460,o),
(523,417,cs),
(523,100,ls),
(523,-108,o),
(88,-123,o),
(88,-411,cs),
(88,-522,o),
(152,-580,o),
(244,-580,cs)
);
}
);
};
layerId = "EEF8A554-17DD-49E2-BC94-880969CB3DF9";
name = "18 Feb 23 17.41";
shapes = (
{
closed = 1;
nodes = (
(584,-571,l),
(574,-455,o),
(525,-401,o),
(446,-401,cs),
(340,-401,o),
(331,-498,o),
(248,-498,cs),
(206,-498,o),
(179,-474,o),
(179,-410,cs),
(179,-376,ls),
(179,-228,o),
(228,-152,o),
(336,-152,cs),
(395,-152,ls),
(543,-152,o),
(610,-71,o),
(610,48,cs),
(610,426,ls),
(610,507,o),
(570,554,o),
(494,554,cs),
(417,554,o),
(358,506,o),
(324,396,c),
(351,401,l),
(340,504,o),
(283,554,o),
(202,554,cs),
(105,554,o),
(64,483,o),
(64,388,cs),
(64,145,ls),
(64,35,o),
(113,7,o),
(189,-10,c),
(218,64,l),
(172,79,o),
(151,93,o),
(151,143,cs),
(151,388,ls),
(151,441,o),
(170,473,o),
(213,473,cs),
(259,473,o),
(292,435,o),
(307,344,c),
(361,344,l),
(388,432,o),
(420,473,o),
(472,473,cs),
(503,473,o),
(523,460,o),
(523,417,cs),
(523,48,ls),
(523,-46,o),
(486,-76,o),
(395,-76,cs),
(336,-76,ls),
(179,-76,o),
(92,-182,o),
(92,-371,cs),
(92,-410,ls),
(92,-514,o),
(149,-580,o),
(245,-580,cs),
(361,-580,o),
(374,-480,o),
(444,-480,cs),
(474,-480,o),
(503,-500,o),
(513,-581,c)
);
}
);
width = 691;
}
);
metricLeft = "ka-kawi";
unicode = 73488;
},
{
glyphname = "pa-kawi";
layers = (
{
anchors = (
{
name = bottom;
pos = (670,0);
},
{
name = top;
pos = (670,544);
}
);
layerId = m01;
shapes = (
{
closed = 1;
nodes = (
(443,0,ls),
(557,0,o),
(613,53,o),
(613,148,cs),
(613,360,ls),
(613,438,o),
(579,488,o),
(506,488,c),
(442,468,l),
(522,468,o),
(526,423,o),
(526,360,cs),
(526,154,ls),
(526,104,o),
(498,76,o),
(448,76,cs),
(285,76,ls),
(235,76,o),
(207,104,o),
(207,154,cs),
(207,360,ls),
(207,438,o),
(173,488,o),
(100,488,c),
(36,468,l),
(116,468,o),
(120,423,o),
(120,360,cs),
(120,147,ls),
(120,52,o),
(176,0,o),
(290,0,cs)
);
},
{
closed = 1;
nodes = (
(244,468,l),
(244,544,l),
(36,544,l),
(36,468,l)
);
},
{
closed = 1;
nodes = (
(650,468,l),
(650,544,l),
(442,544,l),
(442,468,l)
);
}
);
width = 686;
},
{
anchors = (
{
name = bottom;
pos = (585,0);
},
{
name = top;
pos = (585,544);
}
);
background = {
shapes = (
{
closed = 1;
nodes = (
(442,0,ls),
(556,0,o),
(612,53,o),
(612,148,cs),
(612,360,ls),
(612,438,o),
(578,488,o),
(505,488,c),
(441,468,l),
(521,468,o),
(525,423,o),
(525,360,cs),
(525,154,ls),
(525,104,o),
(497,76,o),
(447,76,cs),
(284,76,ls),
(234,76,o),
(206,104,o),
(206,154,cs),
(206,360,ls),
(206,438,o),
(172,488,o),
(99,488,c),
(35,468,l),
(115,468,o),
(119,423,o),
(119,360,cs),
(119,147,ls),
(119,52,o),
(175,0,o),
(289,0,cs)
);
},
{
closed = 1;
nodes = (
(243,468,l),
(243,544,l),
(35,544,l),
(35,468,l)
);
},
{
closed = 1;
nodes = (
(649,468,l),
(649,544,l),
(441,544,l),
(441,468,l)
);
}
);
};
layerId = "FD202070-6699-4318-8E83-95414ED89137";
shapes = (
{
closed = 1;
nodes = (
(441,0,ls),
(573,0,o),
(638,66,o),
(638,185,cs),
(638,315,ls),
(638,393,o),
(598,443,o),
(471,443,c),
(417,423,l),
(487,423,o),
(491,378,o),
(491,315,cs),
(491,191,ls),
(491,149,o),
(468,126,o),
(426,126,cs),
(311,126,ls),
(269,126,o),
(246,149,o),
(246,191,cs),
(246,315,ls),
(246,393,o),
(206,443,o),
(79,443,c),
(25,423,l),
(95,423,o),
(99,378,o),
(99,315,cs),
(99,185,ls),
(99,66,o),
(164,0,o),
(296,0,cs)
);
},
{
closed = 1;
nodes = (
(282,423,l),
(282,544,l),
(25,544,l),
(25,423,l)
);
},
{
closed = 1;
nodes = (
(674,423,l),
(674,544,l),
(417,544,l),
(417,423,l)
);
}
);
width = 714;
},
{
anchors = (
{
name = bottom;
pos = (620,0);
},
{
name = top;
pos = (620,544);
}
);
associatedMasterId = "FD202070-6699-4318-8E83-95414ED89137";
layerId = "B946F5E3-C1B3-4380-B0BC-AE08EA7EE774";
name = "11 Feb 23 15.45";
shapes = (
{
closed = 1;
nodes = (
(536,0,ls),
(641,0,o),
(693,66,o),
(693,185,cs),
(693,544,l),
(546,544,l),
(546,191,ls),
(546,149,o),
(523,126,o),
(481,126,cs),
(266,126,ls),
(224,126,o),
(201,149,o),
(201,191,cs),
(201,544,l),
(54,544,l),
(54,185,ls),
(54,66,o),
(106,0,o),
(211,0,cs)
);
}
);
width = 747;
}
);
unicode = 73510;
},
{
glyphname = "pha-kawi";
layers = (
{
background = {
shapes = (
{
closed = 1;
nodes = (
(313,-10,o),
(372,38,o),
(406,148,c),
(379,143,l),
(390,40,o),
(447,-10,o),
(528,-10,cs),
(662,-10,o),
(708,123,o),
(708,301,cs),
(708,480,o),
(643,554,o),
(557,554,cs),
(486,554,o),
(442,510,o),
(442,436,cs),
(442,332,o),
(532,280,o),
(634,314,c),
(639,361,l),
(582,347,o),
(515,363,o),
(515,436,cs),
(515,470,o),
(530,486,o),
(552,486,cs),
(590,486,o),
(619,438,o),
(619,298,cs),
(619,157,o),
(595,71,o),
(517,71,cs),
(471,71,o),
(438,109,o),
(423,200,c),
(369,200,l),
(342,112,o),
(310,71,o),
(258,71,cs),
(227,71,o),
(207,85,o),
(207,132,cs),
(207,360,ls),
(207,438,o),
(173,488,o),
(100,488,c),
(36,468,l),
(116,468,o),
(120,423,o),
(120,360,cs),
(120,136,ls),
(120,44,o),
(160,-10,o),
(236,-10,cs)
);
},
{
closed = 1;
nodes = (
(244,468,l),
(244,544,l),
(36,544,l),
(36,468,l)
);
}
);
};
layerId = m01;
shapes = (
{
closed = 1;
nodes = (
(334,-10,o),
(401,39,o),
(423,148,c),
(396,143,l),
(407,40,o),
(464,-10,o),
(545,-10,cs),
(679,-10,o),
(725,127,o),
(725,291,cs),
(725,485,o),
(660,554,o),
(573,554,cs),
(503,554,o),
(459,510,o),
(459,436,cs),
(459,332,o),
(549,280,o),
(651,314,c),
(656,361,l),
(599,347,o),
(532,363,o),
(532,436,cs),
(532,470,o),
(547,486,o),
(569,486,cs),
(607,486,o),
(636,440,o),
(636,294,cs),
(636,161,o),
(614,71,o),
(538,71,cs),
(489,71,o),
(455,109,o),
(440,200,c),
(386,200,l),
(369,112,o),
(333,71,o),
(268,71,cs),
(231,71,o),
(207,85,o),
(207,132,cs),
(207,360,ls),
(207,438,o),
(173,488,o),
(100,488,c),
(36,468,l),
(116,468,o),
(120,423,o),
(120,360,cs),
(120,136,ls),
(120,44,o),
(161,-10,o),
(250,-10,cs)
);
},
{
closed = 1;
nodes = (
(244,468,l),
(244,544,l),
(36,544,l),
(36,468,l)
);
}
);
width = 767;
},
{
layerId = "FD202070-6699-4318-8E83-95414ED89137";
width = 1252;
},
{
associatedMasterId = m01;
layerId = "CB92EC54-B3C5-4E52-9F8C-5ADA746124D3";
name = "10 Feb 23 02.20";
shapes = (
{
closed = 1;
nodes = (
(686,145,o),
(637,-10,o),
(489,-10,cs),
(420,-10,o),
(348,24,o),
(348,156,c),
(374,156,l),
(374,24,o),
(303,-10,o),
(231,-10,cs),
(127,-10,o),
(78,61,o),
(78,156,cs),
(78,544,l),
(165,544,l),
(165,147,ls),
(165,90,o),
(192,66,o),
(239,66,cs),
(283,66,o),
(323,87,o),
(323,156,cs),
(323,205,l),
(400,205,l),
(400,156,ls),
(400,89,o),
(440,66,o),
(483,66,cs),
(568,66,o),
(597,158,o),
(597,298,cs),
(597,438,o),
(568,486,o),
(530,486,cs),
(508,486,o),
(493,470,o),
(493,436,cs),
(493,363,o),
(560,347,o),
(609,337,c),
(607,277,l),
(524,290,o),
(428,321,o),
(428,436,cs),
(428,510,o),
(469,554,o),
(535,554,cs),
(621,554,o),
(686,480,o),
(686,301,cs)
);
}
);
width = 748;
},
{
associatedMasterId = m01;
background = {
shapes = (
{
closed = 1;
nodes = (
(755,145,o),
(706,-10,o),
(558,-10,cs),
(489,-10,o),
(417,24,o),
(417,156,c),
(443,156,l),
(443,24,o),
(372,-10,o),
(300,-10,cs),
(196,-10,o),
(147,61,o),
(147,156,cs),
(147,544,l),
(234,544,l),
(234,147,ls),
(234,90,o),
(261,66,o),
(308,66,cs),
(352,66,o),
(392,87,o),
(392,156,cs),
(392,205,l),
(469,205,l),
(469,156,ls),
(469,89,o),
(509,66,o),
(552,66,cs),
(637,66,o),
(666,158,o),
(666,298,cs),
(666,438,o),
(637,486,o),
(599,486,cs),
(577,486,o),
(562,470,o),
(562,436,cs),
(562,363,o),
(629,347,o),
(678,337,c),
(676,277,l),
(593,290,o),
(497,321,o),
(497,436,cs),
(497,510,o),
(538,554,o),
(604,554,cs),
(690,554,o),
(755,480,o),
(755,301,cs)
);
}
);
};
layerId = "257C7916-8A7D-4134-9DC3-15780426D70F";
name = "10 Feb 23 02.21";
shapes = (
{
closed = 1;
nodes = (
(372,-10,o),
(443,24,o),
(443,156,c),
(417,156,l),
(417,24,o),
(489,-10,o),
(558,-10,cs),
(706,-10,o),
(755,145,o),
(755,301,cs),
(755,480,o),
(690,554,o),
(604,554,cs),
(538,554,o),
(497,510,o),
(497,436,cs),
(497,321,o),
(593,290,o),
(676,277,c),
(678,337,l),
(629,347,o),
(562,363,o),
(562,436,cs),
(562,470,o),
(577,486,o),
(599,486,cs),
(637,486,o),
(666,438,o),
(666,298,cs),
(666,158,o),
(637,66,o),
(552,66,cs),
(509,66,o),
(469,89,o),
(469,156,cs),
(469,205,l),
(392,205,l),
(392,156,ls),
(392,87,o),
(352,66,o),
(308,66,cs),
(261,66,o),
(234,90,o),
(234,147,cs),
(234,360,ls),
(234,438,o),
(200,488,o),
(127,488,c),
(63,468,l),
(143,468,o),
(147,423,o),
(147,360,cs),
(147,156,ls),
(147,61,o),
(196,-10,o),
(300,-10,cs)
);
},
{
closed = 1;
nodes = (
(271,468,l),
(271,544,l),
(63,544,l),
(63,468,l)
);
}
);
width = 797;
},
{
associatedMasterId = m01;
background = {
shapes = (
{
closed = 1;
nodes = (
(351,-10,o),
(422,24,o),
(422,156,c),
(396,156,l),
(396,24,o),
(468,-10,o),
(537,-10,cs),
(685,-10,o),
(734,145,o),
(734,301,cs),
(734,480,o),
(669,554,o),
(583,554,cs),
(517,554,o),
(476,510,o),
(476,436,cs),
(476,321,o),
(572,290,o),
(655,277,c),
(657,337,l),
(608,347,o),
(541,363,o),
(541,436,cs),
(541,470,o),
(556,486,o),
(578,486,cs),
(616,486,o),
(645,438,o),
(645,298,cs),
(645,158,o),
(616,66,o),
(531,66,cs),
(488,66,o),
(448,89,o),
(448,156,cs),
(448,205,l),
(371,205,l),
(371,156,ls),
(371,87,o),
(331,66,o),
(287,66,cs),
(240,66,o),
(213,90,o),
(213,147,cs),
(213,360,ls),
(213,438,o),
(179,488,o),
(106,488,c),
(42,468,l),
(122,468,o),
(126,423,o),
(126,360,cs),
(126,156,ls),
(126,61,o),
(175,-10,o),
(279,-10,cs)
);
},
{
closed = 1;
nodes = (
(250,468,l),
(250,544,l),
(42,544,l),
(42,468,l)
);
}
);
};
layerId = "1C2CE674-2C48-4290-83B2-18FF414F52B3";
name = "16 Feb 23 00.55";
shapes = (
{
closed = 1;
nodes = (
(319,-10,o),
(378,38,o),
(412,148,c),
(385,143,l),
(396,40,o),
(453,-10,o),
(534,-10,cs),
(668,-10,o),
(714,123,o),
(714,301,cs),
(714,480,o),
(649,554,o),
(563,554,cs),
(492,554,o),
(448,510,o),
(448,436,cs),
(448,332,o),
(538,280,o),
(640,314,c),
(645,361,l),
(588,347,o),
(521,363,o),
(521,436,cs),
(521,470,o),
(536,486,o),
(558,486,cs),
(596,486,o),
(625,438,o),
(625,298,cs),
(625,157,o),
(601,71,o),
(523,71,cs),
(477,71,o),
(444,109,o),
(429,200,c),
(375,200,l),
(348,112,o),
(316,71,o),
(264,71,cs),
(233,71,o),
(213,85,o),
(213,132,cs),
(213,360,ls),
(213,438,o),
(179,488,o),
(106,488,c),
(42,468,l),
(122,468,o),
(126,423,o),
(126,360,cs),
(126,136,ls),
(126,44,o),
(166,-10,o),
(242,-10,cs)
);
},
{
closed = 1;
nodes = (
(250,468,l),
(250,544,l),
(42,544,l),
(42,468,l)
);
}
);
width = 756;
}
);
metricLeft = "=|ra-kawi";
metricRight = "ba-kawi";
unicode = 73511;
},
{
glyphname = "rVocalic-kawi";
layers = (
{
layerId = m01;
shapes = (
{
ref = "pa-kawi";
},
{
closed = 1;
nodes = (
(274,-378,l),
(204,-352,o),
(188,-313,o),
(188,-271,cs),
(188,-203,o),
(240,-177,o),
(312,-177,cs),
(460,-177,o),
(532,-269,o),
(569,-428,c),
(641,-407,l),
(602,-206,o),
(496,-98,o),
(312,-98,cs),
(175,-98,o),
(104,-170,o),
(104,-274,cs),
(104,-358,o),
(154,-409,o),
(243,-439,c)
);
}
);
width = 698;
},
{
layerId = "FD202070-6699-4318-8E83-95414ED89137";
width = 600;
}
);
unicode = 73482;
},
{
glyphname = "ra-kawi";
layers = (
{
background = {
shapes = (
{
closed = 1;
nodes = (
(221,0,l),
(221,369,ls),
(221,442,o),
(187,488,o),
(114,488,c),
(40,468,l),
(129,468,o),
(134,426,o),
(134,369,cs),
(134,0,l)
);
},
{
closed = 1;
nodes = (
(297,468,l),
(297,544,l),
(25,544,l),
(25,468,l)
);
}
);
};
layerId = m01;
shapes = (
{
closed = 1;
nodes = (
(221,0,l),
(221,289,ls),
(221,380,o),
(190,419,o),
(92,419,cs),
(72,419,l),
(103,410,l),
(103,453,o),
(122,468,o),
(157,468,cs),
(283,468,l),
(283,544,l),
(157,544,ls),
(69,544,o),
(26,498,o),
(26,416,cs),
(26,343,l),
(80,343,ls),
(121,343,o),
(134,326,o),
(134,289,cs),
(134,0,l)
);
}
);
width = 319;
},
{
background = {
shapes = (
{
closed = 1;
nodes = (
(251,0,l),
(251,384,ls),
(251,438,o),
(235,478,o),
(150,478,c),
(98,468,l),
(148,468,o),
(164,454,o),
(164,404,cs),
(164,0,l)
);
},
{
closed = 1;
nodes = (
(371,456,l),
(347,519,o),
(309,544,o),
(233,544,cs),
(70,544,l),
(70,468,l),
(233,468,ls),
(271,468,o),
(288,456,o),
(306,422,c)
);
}
);
};
layerId = "FD202070-6699-4318-8E83-95414ED89137";
shapes = (
{
closed = 1;
nodes = (
(281,0,l),
(281,304,ls),
(281,381,o),
(259,438,o),
(140,438,c),
(68,418,l),
(118,418,o),
(134,402,o),
(134,344,cs),
(134,0,l)
);
},
{
closed = 1;
nodes = (
(342,418,l),
(342,544,l),
(40,544,l),
(40,418,l)
);
}
);
width = 396;
},
{
associatedMasterId = m01;
background = {
shapes = (
{
closed = 1;
nodes = (
(211,0,l),
(211,384,ls),
(211,438,o),
(195,478,o),
(110,478,c),
(58,468,l),
(108,468,o),
(124,454,o),
(124,404,cs),
(124,0,l)
);
},
{
closed = 1;
nodes = (
(331,456,l),
(307,519,o),
(269,544,o),
(193,544,cs),
(30,544,l),
(30,468,l),
(193,468,ls),
(231,468,o),
(248,456,o),
(266,422,c)
);
}
);
};
layerId = "D7F288ED-8A1C-4504-8B18-5CAA352ADE72";
name = "5 Feb 23 17.01";
shapes = (
{
closed = 1;
nodes = (
(211,0,l),
(211,384,ls),
(211,438,o),
(195,478,o),
(110,478,c),
(58,468,l),
(108,468,o),
(124,454,o),
(124,404,cs),
(124,0,l)
);
},
{
closed = 1;
nodes = (
(272,544,l),
(30,544,l),
(30,468,l),
(272,468,l)
);
}
);
width = 310;
},
{
associatedMasterId = m01;
background = {
shapes = (
{
closed = 1;
nodes = (
(211,0,l),
(211,384,ls),
(211,438,o),
(195,478,o),
(110,478,c),
(58,468,l),
(108,468,o),
(124,454,o),
(124,404,cs),
(124,0,l)
);
},
{
closed = 1;
nodes = (
(272,544,l),
(30,544,l),
(30,468,l),
(272,468,l)
);
}
);
};
layerId = "73DFF99A-D16B-413F-8276-51B29573D360";
name = "9 Feb 23 19.12";
shapes = (
{
closed = 1;
nodes = (
(211,0,l),
(211,384,l),
(104,488,l),
(30,468,l),
(124,374,l),
(124,0,l)
);
},
{
closed = 1;
nodes = (
(272,468,l),
(272,544,l),
(30,544,l),
(30,468,l)
);
}
);
width = 307;
},
{
associatedMasterId = m01;
background = {
shapes = (
{
closed = 1;
nodes = (
(221,0,l),
(221,384,l),
(114,488,l),
(40,468,l),
(134,374,l),
(134,0,l)
);
},
{
closed = 1;
nodes = (
(282,468,l),
(282,544,l),
(40,544,l),
(40,468,l)
);
}
);
};
layerId = "55BEB25E-809E-4CA4-A890-150804D18ED0";
name = "10 Feb 23 02.48";
shapes = (
{
closed = 1;
nodes = (
(221,0,l),
(221,369,ls),
(221,442,o),
(187,488,o),
(114,488,c),
(40,468,l),
(129,468,o),
(134,426,o),
(134,369,cs),
(134,0,l)
);
},
{
closed = 1;
nodes = (
(297,468,l),
(297,544,l),
(25,544,l),
(25,468,l)
);
}
);
width = 327;
},
{
associatedMasterId = m01;
background = {
shapes = (
{
closed = 1;
nodes = (
(231,191,l),
(231,360,ls),
(231,438,o),
(197,488,o),
(124,488,c),
(60,468,l),
(140,468,o),
(144,423,o),
(144,360,cs),
(144,191,l)
);
},
{
closed = 1;
nodes = (
(288,468,l),
(288,544,l),
(40,544,l),
(40,468,l)
);
}
);
};
layerId = "F27C087E-A99B-4F03-AC9C-DA1E7570CE25";
name = "16 Feb 23 01.30";
shapes = (
{
closed = 1;
nodes = (
(231,0,l),
(231,369,ls),
(231,442,o),
(197,488,o),
(124,488,c),
(50,468,l),
(139,468,o),
(144,426,o),
(144,369,cs),
(144,0,l)
);
},
{
closed = 1;
nodes = (
(307,468,l),
(307,544,l),
(35,544,l),
(35,468,l)
);
}
);
width = 349;
}
);
unicode = 73516;
},
{
glyphname = "rrVocalic-kawi";
layers = (
{
layerId = m01;
shapes = (
{
pos = (250,0);
ref = "pa-kawi";
},
{
closed = 1;
nodes = (
(733,-580,o),
(871,-486,o),
(871,-318,cs),
(871,-193,o),
(793,-96,o),
(620,-96,cs),
(473,-96,o),
(391,-161,o),
(391,-259,cs),
(391,-334,o),
(437,-390,o),
(550,-405,c),
(570,-348,l),
(494,-328,o),
(479,-293,o),
(479,-260,cs),
(479,-197,o),
(543,-177,o),
(618,-177,cs),
(729,-177,o),
(780,-230,o),
(780,-320,cs),
(780,-442,o),
(688,-504,o),
(537,-504,cs),
(296,-504,o),
(147,-352,o),
(147,103,cs),
(147,509,o),
(259,740,o),
(450,920,c),
(402,971,l),
(241,820,o),
(60,608,o),
(60,107,cs),
(60,-412,o),
(264,-580,o),
(534,-580,cs)
);
}
);
width = 936;
},
{
layerId = "FD202070-6699-4318-8E83-95414ED89137";
width = 708;
}
);
metricRight = "pa-kawi";
unicode = 73483;
},
{
glyphname = "sa-kawi";
layers = (
{
background = {
shapes = (
{
closed = 1;
nodes = (
(519,-10,o),
(574,43,o),
(574,138,cs),
(574,360,ls),
(574,438,o),
(540,488,o),
(467,488,c),
(403,468,l),
(483,468,o),
(487,423,o),
(487,360,cs),
(487,144,ls),
(487,94,o),
(465,66,o),
(414,66,cs),
(344,66,o),
(265,98,o),
(218,177,c),
(176,162,l),
(207,63,o),
(298,-10,o),
(428,-10,cs)
);
},
{
closed = 1;
nodes = (
(205,25,o),
(221,75,o),
(221,181,cs),
(221,360,ls),
(221,438,o),
(187,488,o),
(114,488,c),
(50,468,l),
(130,468,o),
(134,423,o),
(134,360,cs),
(134,181,ls),
(134,115,o),
(131,86,o),
(54,59,c),
(83,-10,l)
);
},
{
closed = 1;
nodes = (
(258,468,l),
(258,544,l),
(50,544,l),
(50,468,l)
);
},
{
closed = 1;
nodes = (
(611,468,l),
(611,544,l),
(403,544,l),
(403,468,l)
);
}
);
};
layerId = m01;
shapes = (
{
closed = 1;
nodes = (
(496,-10,o),
(574,50,o),
(574,158,cs),
(574,360,ls),
(574,438,o),
(540,488,o),
(467,488,c),
(403,468,l),
(483,468,o),
(487,423,o),
(487,360,cs),
(487,164,ls),
(487,100,o),
(458,66,o),
(375,66,cs),
(297,66,o),
(246,97,o),
(218,187,c),
(176,172,l),
(199,67,o),
(256,-10,o),
(382,-10,cs)
);
},
{
closed = 1;
nodes = (
(85,0,ls),
(203,0,o),
(221,63,o),
(221,141,cs),
(221,360,ls),
(221,438,o),
(187,488,o),
(114,488,c),
(50,468,l),
(130,468,o),
(134,423,o),
(134,360,cs),
(134,141,ls),
(134,97,o),
(126,76,o),
(85,76,cs),
(50,76,l),
(50,0,l)
);
},
{
closed = 1;
nodes = (
(258,468,l),
(258,544,l),
(50,544,l),
(50,468,l)
);
},
{
closed = 1;
nodes = (
(611,468,l),
(611,544,l),
(403,544,l),
(403,468,l)
);
}
);
width = 647;
},
{
background = {
shapes = (
{
closed = 1;
nodes = (
(519,-10,o),
(574,43,o),
(574,138,cs),
(574,360,ls),
(574,438,o),
(540,488,o),
(467,488,c),
(403,468,l),
(483,468,o),
(487,423,o),
(487,360,cs),
(487,144,ls),
(487,94,o),
(465,66,o),
(414,66,cs),
(344,66,o),
(265,98,o),
(218,177,c),
(176,162,l),
(207,63,o),
(298,-10,o),
(428,-10,cs)
);
},
{
closed = 1;
nodes = (
(205,25,o),
(221,75,o),
(221,181,cs),
(221,360,ls),
(221,438,o),
(187,488,o),
(114,488,c),
(50,468,l),
(130,468,o),
(134,423,o),
(134,360,cs),
(134,181,ls),
(134,115,o),
(131,86,o),
(54,59,c),
(83,-10,l)
);
},
{
closed = 1;
nodes = (
(258,468,l),
(258,544,l),
(50,544,l),
(50,468,l)
);
},
{
closed = 1;
nodes = (
(611,468,l),
(611,544,l),
(403,544,l),
(403,468,l)
);
}
);
};
layerId = "FD202070-6699-4318-8E83-95414ED89137";
shapes = (
{
closed = 1;
nodes = (
(521,-10,o),
(592,43,o),
(592,178,cs),
(592,304,ls),
(592,381,o),
(570,438,o),
(451,438,c),
(379,418,l),
(429,418,o),
(445,402,o),
(445,344,cs),
(445,194,ls),
(445,148,o),
(425,126,o),
(381,126,cs),
(336,126,o),
(286,146,o),
(256,197,c),
(214,182,l),
(240,62,o),
(300,-10,o),
(419,-10,cs)
);
},
{
closed = 1;
nodes = (
(217,25,o),
(259,75,o),
(259,181,cs),
(259,304,ls),
(259,381,o),
(237,438,o),
(118,438,c),
(46,418,l),
(96,418,o),
(112,402,o),
(112,344,cs),
(112,191,ls),
(112,146,o),
(109,127,o),
(31,97,c),
(71,-10,l)
);
},
{
closed = 1;
nodes = (
(290,418,l),
(290,544,l),
(38,544,l),
(38,418,l)
);
},
{
closed = 1;
nodes = (
(623,418,l),
(623,544,l),
(371,544,l),
(371,418,l)
);
}
);
width = 677;
},
{
associatedMasterId = m01;
background = {
shapes = (
{
closed = 0;
nodes = (
(387,177,l),
(387,103,o),
(343,66,o),
(278,66,cs),
(231,66,o),
(199,86,o),
(176,144,c),
(124,117,l),
(157,28,o),
(202,-10,o),
(290,-10,cs),
(417,-10,o),
(479,70,o),
(479,179,cs)
);
},
{
closed = 1;
nodes = (
(122,0,o),
(178,61,o),
(178,156,cs),
(178,544,l),
(91,544,l),
(91,162,ls),
(91,105,o),
(63,76,o),
(11,76,c),
(11,0,l)
);
}
);
};
layerId = "101563B9-F7E7-4AD0-81B4-06F548C40813";
name = "9 Feb 23 21.10";
shapes = (
{
closed = 1;
nodes = (
(421,0,ls),
(535,0,o),
(591,53,o),
(591,148,cs),
(591,544,l),
(504,544,l),
(504,154,ls),
(504,104,o),
(476,76,o),
(426,76,cs),
(292,76,ls),
(239,76,o),
(202,96,o),
(176,154,c),
(124,127,l),
(160,38,o),
(209,0,o),
(304,0,cs)
);
},
{
closed = 1;
nodes = (
(132,0,o),
(178,61,o),
(178,156,cs),
(178,544,l),
(91,544,l),
(91,142,ls),
(91,82,o),
(74,66,o),
(31,66,c),
(31,0,l)
);
}
);
width = 669;
},
{
associatedMasterId = m01;
background = {
shapes = (
{
closed = 1;
nodes = (
(421,0,ls),
(535,0,o),
(591,53,o),
(591,148,cs),
(591,544,l),
(504,544,l),
(504,154,ls),
(504,104,o),
(476,76,o),
(426,76,cs),
(292,76,ls),
(239,76,o),
(202,96,o),
(176,154,c),
(124,127,l),
(160,38,o),
(209,0,o),
(304,0,cs)
);
},
{
closed = 1;
nodes = (
(132,0,o),
(178,61,o),
(178,156,cs),
(178,544,l),
(91,544,l),
(91,142,ls),
(91,82,o),
(74,66,o),
(31,66,c),
(31,0,l)
);
}
);
};
layerId = "7B6B422D-67DE-47C1-BB8D-CEC4EAB5A07E";
name = "10 Feb 23 02.25";
shapes = (
{
closed = 1;
nodes = (
(421,0,ls),
(535,0,o),
(591,53,o),
(591,148,cs),
(591,544,l),
(504,544,l),
(504,154,ls),
(504,104,o),
(476,76,o),
(426,76,cs),
(300,76,ls),
(242,76,o),
(188,95,o),
(176,177,c),
(124,160,l),
(144,35,o),
(214,0,o),
(312,0,cs)
);
},
{
closed = 1;
nodes = (
(132,0,o),
(178,61,o),
(178,156,cs),
(178,544,l),
(91,544,l),
(91,142,ls),
(91,82,o),
(74,66,o),
(31,66,c),
(31,0,l)
);
}
);
width = 654;
},
{
associatedMasterId = m01;
background = {
shapes = (
{
closed = 1;
nodes = (
(351,0,ls),
(465,0,o),
(521,53,o),
(521,148,cs),
(521,544,l),
(434,544,l),
(434,154,ls),
(434,104,o),
(406,76,o),
(356,76,cs),
(230,76,ls),
(172,76,o),
(118,95,o),
(106,177,c),
(54,160,l),
(74,35,o),
(144,0,o),
(242,0,cs)
);
},
{
closed = 1;
nodes = (
(62,0,o),
(108,61,o),
(108,156,cs),
(108,544,l),
(21,544,l),
(21,142,ls),
(21,82,o),
(4,66,o),
(-39,66,c),
(-39,0,l)
);
}
);
};
layerId = "1F66CFA2-169B-4D4A-AD30-15FB492B5DB7";
name = "19 Feb 23 00.43";
shapes = (
{
closed = 1;
nodes = (
(519,-10,o),
(574,43,o),
(574,138,cs),
(574,360,ls),
(574,438,o),
(540,488,o),
(467,488,c),
(403,468,l),
(483,468,o),
(487,423,o),
(487,360,cs),
(487,144,ls),
(487,94,o),
(465,66,o),
(414,66,cs),
(344,66,o),
(265,98,o),
(218,177,c),
(176,162,l),
(207,63,o),
(298,-10,o),
(428,-10,cs)
);
},
{
closed = 1;
nodes = (
(205,25,o),
(221,75,o),
(221,181,cs),
(221,360,ls),
(221,438,o),
(187,488,o),
(114,488,c),
(50,468,l),
(130,468,o),
(134,423,o),
(134,360,cs),
(134,181,ls),
(134,115,o),
(131,86,o),
(54,59,c),
(83,-10,l)
);
},
{
closed = 1;
nodes = (
(258,468,l),
(258,544,l),
(50,544,l),
(50,468,l)
);
},
{
closed = 1;
nodes = (
(611,468,l),
(611,544,l),
(403,544,l),
(403,468,l)
);
}
);
width = 647;
}
);
metricRight = "ra-kawi";
unicode = 73521;
},
{
glyphname = "sha-kawi";
layers = (
{
layerId = m01;
shapes = (
{
closed = 1;
nodes = (
(218,64,l),
(172,79,o),
(151,93,o),
(151,143,cs),
(151,390,ls),
(151,440,o),
(179,468,o),
(229,468,cs),
(402,468,ls),
(452,468,o),
(480,440,o),
(480,390,cs),
(480,0,l),
(567,0,l),
(567,396,ls),
(567,491,o),
(511,544,o),
(397,544,cs),
(234,544,ls),
(120,544,o),
(64,491,o),
(64,396,cs),
(64,145,ls),
(64,35,o),
(113,7,o),
(189,-10,c)
);
},
{
closed = 1;
nodes = (
(520,221,l),
(520,297,l),
(246,297,l),
(246,221,l)
);
}
);
width = 631;
},
{
layerId = "FD202070-6699-4318-8E83-95414ED89137";
shapes = (
{
closed = 1;
nodes = (
(245,97,l),
(217,115,o),
(205,131,o),
(205,170,cs),
(205,353,ls),
(205,395,o),
(228,418,o),
(270,418,cs),
(425,418,ls),
(467,418,o),
(490,395,o),
(490,353,cs),
(490,0,l),
(637,0,l),
(637,359,ls),
(637,478,o),
(585,544,o),
(480,544,cs),
(265,544,ls),
(133,544,o),
(58,478,o),
(58,359,cs),
(58,145,ls),
(58,51,o),
(100,24,o),
(174,-10,c)
);
},
{
closed = 1;
nodes = (
(513,194,l),
(513,310,l),
(270,310,l),
(270,194,l)
);
}
);
width = 695;
}
);
metricLeft = "ka-kawi";
metricRight = "=|";
unicode = 73519;
},
{
glyphname = "ssa-kawi";
layers = (
{
anchors = (
{
name = bottom;
pos = (650,0);
},
{
name = top;
pos = (650,544);
}
);
layerId = m01;
shapes = (
{
closed = 1;
nodes = (
(433,0,ls),
(547,0,o),
(603,53,o),
(603,148,cs),
(603,360,ls),
(603,438,o),
(569,488,o),
(496,488,c),
(432,468,l),
(512,468,o),
(516,423,o),
(516,360,cs),
(516,154,ls),
(516,104,o),
(488,76,o),
(438,76,cs),
(275,76,ls),
(225,76,o),
(197,104,o),
(197,154,cs),
(197,360,ls),
(197,438,o),
(163,488,o),
(90,488,c),
(26,468,l),
(106,468,o),
(110,423,o),
(110,360,cs),
(110,148,ls),
(110,53,o),
(166,0,o),
(280,0,cs)
);
},
{
closed = 1;
nodes = (
(234,468,l),
(234,544,l),
(26,544,l),
(26,468,l)
);
},
{
closed = 1;
nodes = (
(566,231,l),
(566,307,l),
(292,307,l),
(292,231,l)
);
},
{
closed = 1;
nodes = (
(640,468,l),
(640,544,l),
(432,544,l),
(432,468,l)
);
}
);
width = 666;
},
{
anchors = (
{
name = bottom;
pos = (580,0);
},
{
name = top;
pos = (580,544);
}
);
background = {
shapes = (
{
closed = 1;
nodes = (
(526,0,ls),
(631,0,o),
(683,66,o),
(683,185,cs),
(683,544,l),
(536,544,l),
(536,191,ls),
(536,149,o),
(513,126,o),
(471,126,cs),
(256,126,ls),
(214,126,o),
(191,149,o),
(191,191,cs),
(191,544,l),
(44,544,l),
(44,185,ls),
(44,66,o),
(96,0,o),
(201,0,cs)
);
}
);
};
layerId = "FD202070-6699-4318-8E83-95414ED89137";
shapes = (
{
closed = 1;
nodes = (
(466,0,ls),
(591,0,o),
(653,66,o),
(653,185,cs),
(653,315,ls),
(653,393,o),
(613,443,o),
(486,443,c),
(432,423,l),
(502,423,o),
(506,378,o),
(506,315,cs),
(506,191,ls),
(506,149,o),
(483,126,o),
(441,126,cs),
(326,126,ls),
(284,126,o),
(261,149,o),
(261,191,cs),
(261,315,ls),
(261,393,o),
(221,443,o),
(94,443,c),
(40,423,l),
(110,423,o),
(114,378,o),
(114,315,cs),
(114,185,ls),
(114,66,o),
(176,0,o),
(301,0,cs)
);
},
{
closed = 1;
nodes = (
(307,423,l),
(307,544,l),
(40,544,l),
(40,423,l)
);
},
{
closed = 1;
nodes = (
(579,214,l),
(579,330,l),
(326,330,l),
(326,214,l)
);
},
{
closed = 1;
nodes = (
(699,423,l),
(699,544,l),
(432,544,l),
(432,423,l)
);
}
);
width = 739;
}
);
metricLeft = "ra-kawi";
metricRight = "=|";
unicode = 73520;
},
{
glyphname = "ta-kawi";
layers = (
{
layerId = m01;
shapes = (
{
closed = 1;
nodes = (
(354,-10,o),
(417,48,o),
(417,158,cs),
(417,504,l),
(330,504,l),
(330,164,ls),
(330,97,o),
(302,66,o),
(246,66,cs),
(186,66,o),
(151,97,o),
(151,195,cs),
(151,390,ls),
(151,440,o),
(179,468,o),
(229,468,cs),
(518,468,ls),
(568,468,o),
(596,440,o),
(596,390,cs),
(596,0,l),
(683,0,l),
(683,396,ls),
(683,491,o),
(627,544,o),
(513,544,cs),
(234,544,ls),
(120,544,o),
(64,491,o),
(64,396,cs),
(64,195,ls),
(64,49,o),
(133,-10,o),
(244,-10,cs)
);
}
);
width = 747;
},
{
layerId = "FD202070-6699-4318-8E83-95414ED89137";
width = 1180;
}
);
metricLeft = "ka-kawi";
metricRight = "=|";
unicode = 73505;
},
{
glyphname = "tha-kawi";
layers = (
{
layerId = m01;
shapes = (
{
ref = "wa-kawi";
},
{
closed = 1;
nodes = (
(380,195,l),
(380,261,l),
(197,261,l),
(197,195,l)
);
}
);
width = 602;
},
{
layerId = "FD202070-6699-4318-8E83-95414ED89137";
shapes = (
{
ref = "wa-kawi";
}
);
width = 625;
}
);
metricLeft = "ka-kawi";
unicode = 73506;
},
{
glyphname = "tta-kawi";
layers = (
{
layerId = m01;
shapes = (
{
closed = 1;
nodes = (
(509,0,l),
(509,76,l),
(229,76,ls),
(179,76,o),
(151,98,o),
(151,155,cs),
(151,379,ls),
(151,436,o),
(179,468,o),
(229,468,cs),
(379,468,ls),
(433,468,o),
(456,453,o),
(482,419,c),
(544,466,l),
(510,516,o),
(471,544,o),
(379,544,cs),
(223,544,ls),
(121,544,o),
(64,488,o),
(64,374,cs),
(64,160,ls),
(64,46,o),
(121,0,o),
(223,0,cs)
);
}
);
width = 569;
},
{
layerId = "FD202070-6699-4318-8E83-95414ED89137";
width = 600;
}
);
unicode = 73500;
},
{
glyphname = "ttha-kawi";
layers = (
{
layerId = m01;
shapes = (
{
closed = 1;
nodes = (
(393,0,ls),
(508,0,o),
(556,55,o),
(556,127,cs),
(556,194,o),
(515,236,o),
(444,236,cs),
(343,236,o),
(302,153,o),
(296,52,c),
(363,56,l),
(370,115,o),
(385,173,o),
(433,173,cs),
(460,173,o),
(478,154,o),
(478,126,cs),
(478,97,o),
(457,76,o),
(390,76,cs),
(229,76,ls),
(179,76,o),
(151,98,o),
(151,155,cs),
(151,379,ls),
(151,436,o),
(179,468,o),
(229,468,cs),
(379,468,ls),
(433,468,o),
(456,453,o),
(482,419,c),
(544,466,l),
(510,516,o),
(471,544,o),
(379,544,cs),
(223,544,ls),
(121,544,o),
(64,488,o),
(64,374,cs),
(64,160,ls),
(64,46,o),
(121,0,o),
(223,0,cs)
);
}
);
width = 595;
},
{
layerId = "FD202070-6699-4318-8E83-95414ED89137";
width = 600;
}
);
unicode = 73501;
},
{
glyphname = "u-kawi";
layers = (
{
layerId = m01;
shapes = (
{
closed = 1;
nodes = (
(536,-448,l),
(536,-372,l),
(186,-372,ls),
(112,-372,o),
(83,-332,o),
(83,-280,cs),
(83,-174,o),
(201,-37,o),
(355,136,c),
(355,202,l),
(191,302,o),
(149,323,o),
(149,389,cs),
(149,442,o),
(177,468,o),
(227,468,cs),
(390,468,ls),
(444,468,o),
(467,453,o),
(493,419,c),
(555,466,l),
(521,516,o),
(482,544,o),
(390,544,cs),
(231,544,ls),
(117,544,o),
(62,479,o),
(62,390,cs),
(62,275,o),
(150,236,o),
(306,138,c),
(302,196,l),
(124,-1,o),
(-4,-139,o),
(-4,-282,cs),
(-4,-405,o),
(92,-448,o),
(193,-448,cs)
);
}
);
width = 600;
},
{
layerId = "FD202070-6699-4318-8E83-95414ED89137";
width = 600;
}
);
unicode = 73480;
},
{
glyphname = "uu-kawi";
layers = (
{
layerId = m01;
shapes = (
{
ref = "u-kawi";
},
{
closed = 1;
nodes = (
(571,793,o),
(650,671,o),
(650,504,cs),
(650,391,o),
(607,310,o),
(526,310,cs),
(484,310,o),
(445,326,o),
(419,396,c),
(358,365,l),
(388,279,o),
(439,230,o),
(523,230,cs),
(642,230,o),
(736,323,o),
(736,504,cs),
(736,710,o),
(633,873,o),
(390,873,cs),
(231,873,o),
(117,792,o),
(36,674,c),
(84,634,l),
(185,753,o),
(282,793,o),
(389,793,cs)
);
}
);
width = 600;
},
{
layerId = "FD202070-6699-4318-8E83-95414ED89137";
width = 600;
}
);
unicode = 73481;
},
{
glyphname = "virama-kawi";
layers = (
{
background = {
shapes = (
{
closed = 1;
nodes = (
(-95,-520,l),
(-95,-166,l),
(-162,-166,l),
(-162,-520,l)
);
},
{
closed = 1;
nodes = (
(-315,-378,l),
(59,-378,l),
(59,-311,l),
(-315,-311,l)
);
}
);
};
layerId = m01;
shapes = (
{
closed = 1;
nodes = (
(262,-470,l),
(262,-136,l),
(181,-136,l),
(181,-470,l)
);
},
{
closed = 1;
nodes = (
(45,-345,l),
(399,-345,l),
(399,-264,l),
(45,-264,l)
);
}
);
width = 444;
},
{
layerId = "FD202070-6699-4318-8E83-95414ED89137";
shapes = (
{
closed = 1;
nodes = (
(285,-520,l),
(285,-166,l),
(178,-166,l),
(178,-520,l)
);
},
{
closed = 1;
nodes = (
(45,-398,l),
(419,-398,l),
(419,-291,l),
(45,-291,l)
);
}
);
width = 464;
}
);
metricRight = "=|";
unicode = 73538;
},
{
glyphname = "vowelAa-kawi";
layers = (
{
background = {
shapes = (
{
closed = 1;
nodes = (
(238,408,l),
(277,448,o),
(311,468,o),
(349,468,cs),
(389,468,o),
(400,445,o),
(400,390,cs),
(400,0,l),
(487,0,l),
(487,396,ls),
(487,487,o),
(458,544,o),
(364,544,cs),
(293,544,o),
(244,510,o),
(195,451,c)
);
}
);
};
layerId = m01;
shapes = (
{
closed = 1;
nodes = (
(364,0,l),
(364,374,ls),
(364,488,o),
(313,544,o),
(205,544,cs),
(159,544,ls),
(67,544,o),
(28,507,o),
(-5,431,c),
(56,401,l),
(84,451,o),
(105,468,o),
(159,468,cs),
(199,468,ls),
(254,468,o),
(277,436,o),
(277,379,cs),
(277,0,l)
);
}
);
width = 439;
},
{
layerId = "FD202070-6699-4318-8E83-95414ED89137";
width = 1079;
},
{
associatedMasterId = m01;
layerId = "B26E4012-4E7E-4A40-BEB3-1541227DEEE7";
name = "15 Feb 23 01.39";
shapes = (
{
closed = 1;
nodes = (
(48,408,l),
(87,448,o),
(121,468,o),
(159,468,cs),
(199,468,o),
(210,445,o),
(210,390,cs),
(210,0,l),
(297,0,l),
(297,396,ls),
(297,487,o),
(268,544,o),
(174,544,cs),
(103,544,o),
(54,510,o),
(5,451,c)
);
}
);
width = 372;
}
);
metricRight = "=ka-kawi";
unicode = 73524;
},
{
glyphname = "vowelAi-kawi";
layers = (
{
layerId = m01;
shapes = (
{
closed = 1;
nodes = (
(115,-10,o),
(64,59,o),
(64,160,cs),
(64,374,ls),
(64,488,o),
(121,544,o),
(223,544,cs),
(275,544,ls),
(352,544,o),
(384,520,o),
(413,468,c),
(348,422,l),
(327,454,o),
(309,468,o),
(265,468,cs),
(229,468,ls),
(179,468,o),
(151,436,o),
(151,379,cs),
(151,155,ls),
(151,91,o),
(186,66,o),
(248,66,cs),
(307,66,o),
(332,88,o),
(332,122,cs),
(332,158,o),
(304,175,o),
(270,190,c),
(297,246,l),
(370,226,o),
(409,185,o),
(409,123,cs),
(409,41,o),
(347,-10,o),
(241,-10,cs)
);
},
{
closed = 1;
nodes = (
(157,676,l),
(95,687,o),
(67,719,o),
(67,768,cs),
(67,833,o),
(116,857,o),
(182,857,cs),
(307,857,o),
(368,771,o),
(399,622,c),
(471,643,l),
(437,830,o),
(345,934,o),
(184,934,cs),
(53,934,o),
(-21,865,o),
(-21,766,cs),
(-21,676,o),
(40,622,o),
(141,611,c)
);
}
);
width = 440;
},
{
layerId = "FD202070-6699-4318-8E83-95414ED89137";
shapes = (
{
closed = 1;
nodes = (
(110,-10,o),
(58,87,o),
(58,170,cs),
(58,364,ls),
(58,485,o),
(130,544,o),
(257,544,cs),
(282,544,ls),
(375,544,o),
(433,513,o),
(472,425,c),
(354,373,l),
(338,404,o),
(319,418,o),
(281,418,cs),
(255,418,ls),
(223,418,o),
(205,395,o),
(205,354,cs),
(205,180,ls),
(205,134,o),
(230,116,o),
(272,116,cs),
(312,116,o),
(336,134,o),
(336,162,cs),
(336,187,o),
(319,197,o),
(290,207,c),
(322,297,l),
(401,279,o),
(463,239,o),
(463,150,cs),
(463,65,o),
(406,-10,o),
(268,-10,cs)
);
},
{
closed = 1;
nodes = (
(157,676,l),
(95,687,o),
(67,719,o),
(67,768,cs),
(67,833,o),
(116,857,o),
(182,857,cs),
(307,857,o),
(368,771,o),
(399,622,c),
(471,643,l),
(437,830,o),
(345,934,o),
(184,934,cs),
(53,934,o),
(-21,865,o),
(-21,766,cs),
(-21,676,o),
(40,622,o),
(141,611,c)
);
}
);
width = 500;
}
);
unicode = 73535;
},
{
glyphname = "vowelE-kawi";
layers = (
{
layerId = m01;
shapes = (
{
closed = 1;
nodes = (
(115,-10,o),
(64,59,o),
(64,160,cs),
(64,374,ls),
(64,488,o),
(121,544,o),
(223,544,cs),
(275,544,ls),
(352,544,o),
(384,520,o),
(413,468,c),
(348,422,l),
(327,454,o),
(309,468,o),
(265,468,cs),
(229,468,ls),
(179,468,o),
(151,436,o),
(151,379,cs),
(151,155,ls),
(151,91,o),
(186,66,o),
(248,66,cs),
(307,66,o),
(332,88,o),
(332,122,cs),
(332,158,o),
(304,175,o),
(270,190,c),
(297,246,l),
(370,226,o),
(409,185,o),
(409,123,cs),
(409,41,o),
(347,-10,o),
(241,-10,cs)
);
}
);
width = 440;
},
{
layerId = "FD202070-6699-4318-8E83-95414ED89137";
shapes = (
{
closed = 1;
nodes = (
(110,-10,o),
(58,87,o),
(58,170,cs),
(58,364,ls),
(58,485,o),
(130,544,o),
(257,544,cs),
(282,544,ls),
(375,544,o),
(433,513,o),
(472,425,c),
(354,373,l),
(338,404,o),
(319,418,o),
(281,418,cs),
(255,418,ls),
(223,418,o),
(205,395,o),
(205,354,cs),
(205,180,ls),
(205,134,o),
(230,116,o),
(272,116,cs),
(312,116,o),
(336,134,o),
(336,162,cs),
(336,187,o),
(319,197,o),
(290,207,c),
(322,297,l),
(401,279,o),
(463,239,o),
(463,150,cs),
(463,65,o),
(406,-10,o),
(268,-10,cs)
);
}
);
width = 500;
}
);
unicode = 73534;
},
{
glyphname = "wa-kawi";
layers = (
{
anchors = (
{
name = bottom;
pos = (480,0);
},
{
name = top;
pos = (500,544);
}
);
layerId = m01;
shapes = (
{
closed = 1;
nodes = (
(323,0,ls),
(445,0,o),
(528,55,o),
(528,197,cs),
(528,328,o),
(454,371,o),
(391,398,c),
(353,334,l),
(391,317,o),
(436,286,o),
(436,198,cs),
(436,97,o),
(377,76,o),
(328,76,cs),
(229,76,ls),
(179,76,o),
(151,104,o),
(151,154,cs),
(151,379,ls),
(151,436,o),
(179,468,o),
(229,468,cs),
(379,468,ls),
(449,468,o),
(478,447,o),
(512,399,c),
(574,446,l),
(534,509,o),
(488,544,o),
(379,544,cs),
(223,544,ls),
(121,544,o),
(64,488,o),
(64,374,cs),
(64,148,ls),
(64,53,o),
(120,0,o),
(234,0,cs)
);
}
);
width = 602;
},
{
anchors = (
{
name = bottom;
pos = (478,0);
},
{
name = top;
pos = (498,544);
}
);
background = {
shapes = (
{
closed = 1;
nodes = (
(420,0,ls),
(552,0,o),
(627,66,o),
(627,185,cs),
(627,299,ls),
(627,393,o),
(585,420,o),
(511,454,c),
(440,347,l),
(468,329,o),
(480,313,o),
(480,274,cs),
(480,191,ls),
(480,149,o),
(457,126,o),
(415,126,cs),
(270,126,ls),
(228,126,o),
(205,149,o),
(205,191,cs),
(205,544,l),
(58,544,l),
(58,185,ls),
(58,66,o),
(110,0,o),
(215,0,cs)
);
}
);
};
layerId = "FD202070-6699-4318-8E83-95414ED89137";
shapes = (
{
closed = 1;
nodes = (
(335,0,ls),
(464,0,o),
(551,59,o),
(551,198,cs),
(551,332,o),
(470,367,o),
(374,381,c),
(338,280,l),
(372,270,o),
(404,257,o),
(404,200,cs),
(404,141,o),
(370,126,o),
(340,126,cs),
(253,126,ls),
(219,126,o),
(205,142,o),
(205,179,cs),
(205,364,ls),
(205,399,o),
(222,418,o),
(253,418,cs),
(423,418,ls),
(481,418,o),
(507,404,o),
(537,357,c),
(623,421,l),
(575,504,o),
(533,544,o),
(413,544,cs),
(247,544,ls),
(126,544,o),
(58,488,o),
(58,374,cs),
(58,158,ls),
(58,57,o),
(113,0,o),
(256,0,cs)
);
}
);
width = 625;
}
);
metricLeft = "ka-kawi";
unicode = 73518;
},
{
glyphname = "ya-kawi";
layers = (
{
background = {
shapes = (
{
closed = 1;
nodes = (
(334,0,ls),
(410,0,o),
(485,34,o),
(485,166,c),
(459,166,l),
(459,34,o),
(532,0,o),
(602,0,cs),
(649,0,ls),
(763,0,o),
(819,54,o),
(819,150,cs),
(819,360,ls),
(819,438,o),
(785,488,o),
(712,488,c),
(648,468,l),
(728,468,o),
(732,423,o),
(732,360,cs),
(732,156,ls),
(732,105,o),
(704,76,o),
(654,76,cs),
(596,76,ls),
(555,76,o),
(517,99,o),
(517,166,cs),
(517,544,l),
(430,544,l),
(430,166,ls),
(430,97,o),
(388,76,o),
(342,76,cs),
(255,76,ls),
(199,76,o),
(127,120,o),
(127,289,cs),
(127,425,o),
(176,473,o),
(232,473,cs),
(263,473,o),
(285,457,o),
(285,413,cs),
(285,374,o),
(262,329,o),
(205,295,c),
(238,241,l),
(331,287,o),
(373,337,o),
(373,419,cs),
(373,507,o),
(320,554,o),
(244,554,cs),
(163,554,o),
(41,497,o),
(41,280,cs),
(41,59,o),
(159,0,o),
(259,0,cs)
);
},
{
closed = 1;
nodes = (
(856,468,l),
(856,544,l),
(648,544,l),
(648,468,l)
);
}
);
};
layerId = m01;
shapes = (
{
closed = 1;
nodes = (
(334,0,ls),
(410,0,o),
(485,34,o),
(485,166,c),
(459,166,l),
(459,34,o),
(532,0,o),
(602,0,cs),
(649,0,ls),
(763,0,o),
(819,54,o),
(819,150,cs),
(819,360,ls),
(819,438,o),
(785,488,o),
(712,488,c),
(648,468,l),
(728,468,o),
(732,423,o),
(732,360,cs),
(732,156,ls),
(732,105,o),
(704,76,o),
(654,76,cs),
(596,76,ls),
(555,76,o),
(517,99,o),
(517,166,cs),
(517,544,l),
(430,544,l),
(430,166,ls),
(430,97,o),
(388,76,o),
(342,76,cs),
(270,76,ls),
(189,76,o),
(129,126,o),
(129,289,cs),
(129,436,o),
(178,478,o),
(230,478,cs),
(258,478,o),
(275,464,o),
(275,434,cs),
(275,400,o),
(252,368,o),
(192,349,c),
(217,293,l),
(310,320,o),
(361,368,o),
(361,439,cs),
(361,513,o),
(310,554,o),
(238,554,cs),
(160,554,o),
(43,505,o),
(43,281,cs),
(43,67,o),
(150,0,o),
(269,0,cs)
);
},
{
closed = 1;
nodes = (
(856,468,l),
(856,544,l),
(648,544,l),
(648,468,l)
);
}
);
width = 892;
},
{
layerId = "FD202070-6699-4318-8E83-95414ED89137";
width = 870;
},
{
associatedMasterId = m01;
layerId = "5B62A418-DD86-460A-8ED2-0FA00765999B";
name = "15 Feb 23 01.24";
shapes = (
{
closed = 1;
nodes = (
(374,0,ls),
(445,0,o),
(515,32,o),
(515,156,c),
(489,156,l),
(489,32,o),
(562,0,o),
(632,0,cs),
(679,0,ls),
(793,0,o),
(849,54,o),
(849,150,cs),
(849,360,ls),
(849,438,o),
(815,488,o),
(742,488,c),
(678,468,l),
(758,468,o),
(762,423,o),
(762,360,cs),
(762,156,ls),
(762,105,o),
(734,76,o),
(684,76,cs),
(626,76,ls),
(585,76,o),
(547,96,o),
(547,156,cs),
(547,544,l),
(460,544,l),
(460,156,ls),
(460,95,o),
(423,76,o),
(382,76,cs),
(285,76,ls),
(229,76,o),
(157,120,o),
(157,289,cs),
(157,410,o),
(193,478,o),
(262,478,cs),
(292,478,o),
(320,465,o),
(337,423,c),
(409,460,l),
(381,524,o),
(334,554,o),
(263,554,cs),
(122,554,o),
(65,433,o),
(65,278,cs),
(65,59,o),
(186,0,o),
(289,0,cs)
);
},
{
closed = 1;
nodes = (
(886,468,l),
(886,544,l),
(678,544,l),
(678,468,l)
);
}
);
width = 942;
},
{
associatedMasterId = m01;
background = {
shapes = (
{
closed = 1;
nodes = (
(344,0,ls),
(415,0,o),
(485,32,o),
(485,156,c),
(459,156,l),
(459,32,o),
(532,0,o),
(602,0,cs),
(649,0,ls),
(763,0,o),
(819,54,o),
(819,150,cs),
(819,360,ls),
(819,438,o),
(785,488,o),
(712,488,c),
(648,468,l),
(728,468,o),
(732,423,o),
(732,360,cs),
(732,156,ls),
(732,105,o),
(704,76,o),
(654,76,cs),
(596,76,ls),
(555,76,o),
(517,96,o),
(517,156,cs),
(517,544,l),
(430,544,l),
(430,156,ls),
(430,95,o),
(393,76,o),
(352,76,cs),
(255,76,ls),
(199,76,o),
(127,120,o),
(127,289,cs),
(127,410,o),
(163,478,o),
(232,478,cs),
(262,478,o),
(290,465,o),
(307,423,c),
(379,460,l),
(351,524,o),
(304,554,o),
(233,554,cs),
(92,554,o),
(35,433,o),
(35,278,cs),
(35,59,o),
(156,0,o),
(259,0,cs)
);
},
{
closed = 1;
nodes = (
(856,468,l),
(856,544,l),
(648,544,l),
(648,468,l)
);
}
);
};
layerId = "69218A65-7A75-44F7-A038-794F266BEA72";
name = "15 Feb 23 01.25";
shapes = (
{
closed = 1;
nodes = (
(334,0,ls),
(410,0,o),
(485,34,o),
(485,166,c),
(459,166,l),
(459,34,o),
(532,0,o),
(602,0,cs),
(649,0,ls),
(763,0,o),
(819,54,o),
(819,150,cs),
(819,360,ls),
(819,438,o),
(785,488,o),
(712,488,c),
(648,468,l),
(728,468,o),
(732,423,o),
(732,360,cs),
(732,156,ls),
(732,105,o),
(704,76,o),
(654,76,cs),
(596,76,ls),
(555,76,o),
(517,99,o),
(517,166,cs),
(517,544,l),
(430,544,l),
(430,166,ls),
(430,97,o),
(388,76,o),
(342,76,cs),
(255,76,ls),
(199,76,o),
(127,120,o),
(127,289,cs),
(127,425,o),
(176,473,o),
(232,473,cs),
(263,473,o),
(285,457,o),
(285,413,cs),
(285,374,o),
(262,329,o),
(205,295,c),
(238,241,l),
(331,287,o),
(373,337,o),
(373,419,cs),
(373,507,o),
(320,554,o),
(244,554,cs),
(163,554,o),
(41,497,o),
(41,280,cs),
(41,59,o),
(159,0,o),
(259,0,cs)
);
},
{
closed = 1;
nodes = (
(856,468,l),
(856,544,l),
(648,544,l),
(648,468,l)
);
}
);
width = 898;
},
{
associatedMasterId = m01;
background = {
shapes = (
{
closed = 1;
nodes = (
(334,0,ls),
(410,0,o),
(485,34,o),
(485,166,c),
(459,166,l),
(459,34,o),
(532,0,o),
(602,0,cs),
(649,0,ls),
(763,0,o),
(819,54,o),
(819,150,cs),
(819,360,ls),
(819,438,o),
(785,488,o),
(712,488,c),
(648,468,l),
(728,468,o),
(732,423,o),
(732,360,cs),
(732,156,ls),
(732,105,o),
(704,76,o),
(654,76,cs),
(596,76,ls),
(555,76,o),
(517,99,o),
(517,166,cs),
(517,544,l),
(430,544,l),
(430,166,ls),
(430,97,o),
(388,76,o),
(342,76,cs),
(255,76,ls),
(199,76,o),
(127,120,o),
(127,289,cs),
(127,425,o),
(176,473,o),
(232,473,cs),
(263,473,o),
(285,457,o),
(285,413,cs),
(285,374,o),
(262,329,o),
(205,295,c),
(238,241,l),
(331,287,o),
(373,337,o),
(373,419,cs),
(373,507,o),
(320,554,o),
(244,554,cs),
(163,554,o),
(41,497,o),
(41,280,cs),
(41,59,o),
(159,0,o),
(259,0,cs)
);
},
{
closed = 1;
nodes = (
(856,468,l),
(856,544,l),
(648,544,l),
(648,468,l)
);
}
);
};
layerId = "33F61B65-96B8-4004-9330-BF2AEB7E1FB4";
name = "16 Feb 23 01.46";
shapes = (
{
closed = 1;
nodes = (
(856,468,l),
(856,544,l),
(648,544,l),
(648,468,l)
);
},
{
closed = 1;
nodes = (
(554,468,l),
(554,544,l),
(346,544,l),
(346,468,l)
);
},
{
closed = 1;
nodes = (
(220,76,o),
(196,104,o),
(196,154,cs),
(196,360,ls),
(196,438,o),
(162,488,o),
(89,488,c),
(25,468,l),
(105,468,o),
(109,423,o),
(109,360,cs),
(109,148,ls),
(109,53,o),
(162,0,o),
(269,0,cs),
(334,0,ls),
(410,0,o),
(485,34,o),
(485,166,c),
(459,166,l),
(459,34,o),
(532,0,o),
(602,0,cs),
(649,0,ls),
(763,0,o),
(819,54,o),
(819,150,cs),
(819,360,ls),
(819,438,o),
(785,488,o),
(712,488,c),
(648,468,l),
(728,468,o),
(732,423,o),
(732,360,cs),
(732,156,ls),
(732,105,o),
(704,76,o),
(654,76,cs),
(596,76,ls),
(555,76,o),
(517,99,o),
(517,166,cs),
(517,360,ls),
(517,438,o),
(483,488,o),
(410,488,c),
(346,468,l),
(426,468,o),
(430,423,o),
(430,360,cs),
(430,166,ls),
(430,97,o),
(388,76,o),
(342,76,cs),
(264,76,ls)
);
},
{
closed = 1;
nodes = (
(233,468,l),
(233,544,l),
(25,544,l),
(25,468,l)
);
}
);
width = 912;
}
);
metricRight = "ra-kawi";
unicode = 73515;
},
{
glyphname = "ra-kawi.post";
layers = (
{
layerId = m01;
shapes = (
{
closed = 1;
nodes = (
(824,-580,o),
(969,-491,o),
(969,-330,cs),
(969,-206,o),
(884,-130,o),
(737,-96,c),
(712,-158,l),
(811,-188,o),
(882,-232,o),
(882,-330,cs),
(882,-442,o),
(791,-504,o),
(593,-504,cs),
(313,-504,o),
(161,-361,o),
(161,101,cs),
(161,524,o),
(282,796,o),
(460,918,c),
(422,971,l),
(227,842,o),
(74,608,o),
(74,100,cs),
(74,-440,o),
(280,-580,o),
(582,-580,cs)
);
}
);
width = 290;
},
{
layerId = "FD202070-6699-4318-8E83-95414ED89137";
width = 600;
}
);
},
{
glyphname = "ssa-kawi.post";
layers = (
{
anchors = (
{
name = bottom;
pos = (231,0);
},
{
name = top;
pos = (231,544);
}
);
background = {
shapes = (
{
closed = 1;
nodes = (
(44,-570,ls),
(158,-570,o),
(214,-517,o),
(214,-422,cs),
(214,544,l),
(127,544,l),
(127,-416,ls),
(127,-466,o),
(99,-494,o),
(49,-494,cs),
(-104,-494,ls),
(-154,-494,o),
(-182,-466,o),
(-182,-416,cs),
(-182,-156,l),
(-269,-156,l),
(-269,-422,ls),
(-269,-517,o),
(-213,-570,o),
(-99,-570,cs)
);
},
{
closed = 1;
nodes = (
(-87,-379,l),
(147,-379,l),
(147,-303,l),
(-87,-303,l)
);
}
);
};
layerId = m01;
shapes = (
{
closed = 1;
nodes = (
(44,-570,ls),
(158,-570,o),
(214,-517,o),
(214,-422,cs),
(214,360,ls),
(214,438,o),
(180,488,o),
(107,488,c),
(43,468,l),
(123,468,o),
(127,423,o),
(127,360,cs),
(127,-416,ls),
(127,-466,o),
(99,-494,o),
(49,-494,cs),
(-141,-494,ls),
(-191,-494,o),
(-219,-466,o),
(-219,-416,cs),
(-219,-106,l),
(-306,-106,l),
(-306,-422,ls),
(-306,-517,o),
(-250,-570,o),
(-136,-570,cs)
);
},
{
closed = 1;
nodes = (
(182,-327,l),
(182,-251,l),
(-114,-251,l),
(-114,-327,l)
);
},
{
closed = 1;
nodes = (
(271,468,l),
(271,544,l),
(23,544,l),
(23,468,l)
);
}
);
width = 307;
},
{
anchors = (
{
name = bottom;
pos = (624,0);
},
{
name = top;
pos = (624,544);
}
);
layerId = "FD202070-6699-4318-8E83-95414ED89137";
shapes = (
{
closed = 1;
nodes = (
(540,0,ls),
(645,0,o),
(697,66,o),
(697,185,cs),
(697,544,l),
(550,544,l),
(550,191,ls),
(550,149,o),
(527,126,o),
(485,126,cs),
(270,126,ls),
(228,126,o),
(205,149,o),
(205,191,cs),
(205,544,l),
(58,544,l),
(58,185,ls),
(58,66,o),
(110,0,o),
(215,0,cs)
);
}
);
width = 751;
}
);
metricRight = "ra-kawi";
},
{
glyphname = "vowelAa-kawi.alt";
layers = (
{
background = {
shapes = (
{
closed = 1;
nodes = (
(-210,620,l),
(-130,730,o),
(-86,768,o),
(-11,768,cs),
(60,768,o),
(70,735,o),
(70,670,cs),
(70,0,l),
(157,0,l),
(157,676,ls),
(157,777,o),
(128,844,o),
(2,844,cs),
(-116,844,o),
(-185,786,o),
(-269,656,c)
);
}
);
};
layerId = m01;
shapes = (
{
closed = 1;
nodes = (
(157,0,l),
(157,684,ls),
(157,798,o),
(106,854,o),
(-2,854,cs),
(-78,854,ls),
(-178,854,o),
(-220,809,o),
(-252,717,c),
(-186,691,l),
(-160,756,o),
(-137,778,o),
(-78,778,cs),
(-8,778,ls),
(47,778,o),
(70,746,o),
(70,689,cs),
(70,0,l)
);
}
);
width = 232;
},
{
layerId = "FD202070-6699-4318-8E83-95414ED89137";
width = 726;
}
);
metricRight = "ka-kawi";
unicode = 73525;
},
{
category = Letter;
glyphname = "ya-kawi.post";
layers = (
{
layerId = m01;
shapes = (
{
closed = 1;
nodes = (
(146,-580,o),
(214,-469,o),
(214,-304,cs),
(214,360,ls),
(214,438,o),
(180,488,o),
(107,488,c),
(43,468,l),
(123,468,o),
(127,423,o),
(127,360,cs),
(127,-298,ls),
(127,-428,o),
(84,-504,o),
(-54,-504,cs),
(-174,-504,o),
(-241,-444,o),
(-306,-357,c),
(-342,-399,l),
(-257,-399,ls),
(-152,-399,o),
(-80,-358,o),
(-80,-233,cs),
(-80,-106,l),
(-166,-106,l),
(-166,-233,ls),
(-166,-305,o),
(-197,-334,o),
(-264,-334,cs),
(-354,-334,l),
(-375,-399,l),
(-289,-512,o),
(-198,-580,o),
(-54,-580,cs)
);
},
{
closed = 1;
nodes = (
(271,468,l),
(271,544,l),
(23,544,l),
(23,468,l)
);
}
);
width = 307;
},
{
layerId = "FD202070-6699-4318-8E83-95414ED89137";
width = 762;
}
);
metricRight = "ra-kawi";
subCategory = Nonspacing;
},
{
glyphname = "signKiller-kawi";
layers = (
{
background = {
shapes = (
{
closed = 1;
nodes = (
(106,-580,o),
(174,-465,o),
(174,-304,cs),
(174,624,ls),
(174,738,o),
(117,794,o),
(15,794,cs),
(-141,794,ls),
(-232,794,o),
(-270,758,o),
(-304,684,c),
(-244,651,l),
(-216,701,o),
(-195,718,o),
(-141,718,cs),
(9,718,ls),
(59,718,o),
(87,686,o),
(87,629,cs),
(87,-298,ls),
(87,-428,o),
(44,-504,o),
(-94,-504,cs),
(-209,-504,o),
(-270,-440,o),
(-334,-349,c),
(-396,-393,l),
(-312,-516,o),
(-231,-580,o),
(-87,-580,cs)
);
}
);
};
layerId = m01;
shapes = (
{
closed = 1;
nodes = (
(106,-580,o),
(174,-465,o),
(174,-304,cs),
(174,684,ls),
(174,798,o),
(123,854,o),
(15,854,cs),
(-81,854,ls),
(-181,854,o),
(-223,809,o),
(-256,717,c),
(-189,691,l),
(-163,756,o),
(-140,778,o),
(-81,778,cs),
(9,778,ls),
(64,778,o),
(87,746,o),
(87,689,cs),
(87,-298,ls),
(87,-428,o),
(44,-504,o),
(-94,-504,cs),
(-209,-504,o),
(-270,-440,o),
(-334,-349,c),
(-396,-393,l),
(-312,-516,o),
(-231,-580,o),
(-87,-580,cs)
);
}
);
width = 260;
},
{
layerId = "FD202070-6699-4318-8E83-95414ED89137";
width = 600;
},
{
associatedMasterId = m01;
layerId = "008E78DB-EA3A-4273-8332-A9462FE68D4C";
name = "17 Feb 23 21.56";
shapes = (
{
closed = 1;
nodes = (
(106,-580,o),
(174,-465,o),
(174,-304,cs),
(174,624,ls),
(174,738,o),
(117,794,o),
(15,794,cs),
(-141,794,ls),
(-232,794,o),
(-270,758,o),
(-304,684,c),
(-244,651,l),
(-216,701,o),
(-195,718,o),
(-141,718,cs),
(9,718,ls),
(59,718,o),
(87,686,o),
(87,629,cs),
(87,-298,ls),
(87,-428,o),
(44,-504,o),
(-94,-504,cs),
(-209,-504,o),
(-270,-440,o),
(-334,-349,c),
(-396,-393,l),
(-312,-516,o),
(-231,-580,o),
(-87,-580,cs)
);
}
);
width = 260;
}
);
unicode = 73537;
},
{
glyphname = "visarga-kawi";
layers = (
{
layerId = m01;
shapes = (
{
closed = 1;
nodes = (
(222,317,o),
(270,360,o),
(270,426,cs),
(270,491,o),
(222,534,o),
(159,534,cs),
(95,534,o),
(47,491,o),
(47,426,cs),
(47,360,o),
(95,317,o),
(159,317,cs)
);
},
{
closed = 1;
nodes = (
(128,374,o),
(107,394,o),
(107,426,cs),
(107,457,o),
(128,477,o),
(159,477,cs),
(189,477,o),
(210,457,o),
(210,426,cs),
(210,394,o),
(189,374,o),
(159,374,cs)
);
},
{
closed = 1;
nodes = (
(222,10,o),
(270,53,o),
(270,119,cs),
(270,184,o),
(222,227,o),
(159,227,cs),
(95,227,o),
(47,184,o),
(47,119,cs),
(47,53,o),
(95,10,o),
(159,10,cs)
);
},
{
closed = 1;
nodes = (
(128,67,o),
(107,87,o),
(107,119,cs),
(107,150,o),
(128,170,o),
(159,170,cs),
(189,170,o),
(210,150,o),
(210,119,cs),
(210,87,o),
(189,67,o),
(159,67,cs)
);
}
);
width = 317;
},
{
layerId = "FD202070-6699-4318-8E83-95414ED89137";
width = 600;
}
);
metricRight = "=|";
unicode = 73475;
},
{
glyphname = "vowelI-kawi";
layers = (
{
anchors = (
{
name = _top;
pos = (397,544);
}
);
background = {
shapes = (
{
closed = 1;
nodes = (
(364,651,o),
(440,740,o),
(440,850,cs),
(440,961,o),
(364,1052,o),
(233,1052,cs),
(102,1052,o),
(26,961,o),
(26,850,cs),
(26,740,o),
(102,651,o),
(233,651,cs)
);
},
{
closed = 1;
nodes = (
(145,723,o),
(102,780,o),
(102,850,cs),
(102,922,o),
(145,980,o),
(233,980,cs),
(321,980,o),
(364,922,o),
(364,850,cs),
(364,780,o),
(321,723,o),
(233,723,cs)
);
}
);
};
layerId = m01;
shapes = (
{
closed = 1;
nodes = (
(352,651,o),
(421,731,o),
(421,831,cs),
(421,932,o),
(352,1014,o),
(233,1014,cs),
(114,1014,o),
(45,932,o),
(45,831,cs),
(45,731,o),
(114,651,o),
(233,651,cs)
);
},
{
closed = 1;
nodes = (
(153,716,o),
(114,768,o),
(114,831,cs),
(114,896,o),
(153,949,o),
(233,949,cs),
(313,949,o),
(352,896,o),
(352,831,cs),
(352,768,o),
(313,716,o),
(233,716,cs)
);
}
);
width = 466;
},
{
anchors = (
{
name = _top;
pos = (431,544);
}
);
layerId = "FD202070-6699-4318-8E83-95414ED89137";
shapes = (
{
closed = 1;
nodes = (
(408,651,o),
(489,744,o),
(489,860,cs),
(489,977,o),
(408,1072,o),
(267,1072,cs),
(126,1072,o),
(45,977,o),
(45,860,cs),
(45,744,o),
(126,651,o),
(267,651,cs)
);
},
{
closed = 1;
nodes = (
(196,759,o),
(161,804,o),
(161,860,cs),
(161,917,o),
(196,964,o),
(267,964,cs),
(338,964,o),
(373,917,o),
(373,860,cs),
(373,804,o),
(338,759,o),
(267,759,cs)
);
}
);
width = 534;
},
{
anchors = (
{
name = _top;
pos = (416,544);
}
);
associatedMasterId = m01;
background = {
shapes = (
{
closed = 1;
nodes = (
(382,636,o),
(474,733,o),
(474,855,cs),
(474,975,o),
(382,1072,o),
(222,1072,cs),
(62,1072,o),
(-30,975,o),
(-30,855,cs),
(-30,733,o),
(62,636,o),
(222,636,cs)
);
},
{
closed = 1;
nodes = (
(103,708,o),
(46,773,o),
(46,855,cs),
(46,935,o),
(103,1000,o),
(222,1000,cs),
(341,1000,o),
(398,935,o),
(398,855,cs),
(398,773,o),
(341,708,o),
(222,708,cs)
);
}
);
};
layerId = "2940BA07-55EC-4123-B6C0-9E2BF7BC6B0A";
name = "17 Feb 23 21.51";
shapes = (
{
closed = 1;
nodes = (
(383,651,o),
(459,740,o),
(459,850,cs),
(459,961,o),
(383,1052,o),
(252,1052,cs),
(121,1052,o),
(45,961,o),
(45,850,cs),
(45,740,o),
(121,651,o),
(252,651,cs)
);
},
{
closed = 1;
nodes = (
(164,723,o),
(121,780,o),
(121,850,cs),
(121,922,o),
(164,980,o),
(252,980,cs),
(340,980,o),
(383,922,o),
(383,850,cs),
(383,780,o),
(340,723,o),
(252,723,cs)
);
}
);
width = 504;
}
);
metricLeft = "=45";
metricRight = "=|";
subCategory = Nonspacing;
unicode = 73526;
},
{
glyphname = "vowelU-kawi";
layers = (
{
anchors = (
{
name = _bottom;
pos = (183,0);
}
);
layerId = m01;
shapes = (
{
closed = 1;
nodes = (
(170,-542,o),
(226,-482,o),
(226,-355,cs),
(226,-106,l),
(139,-106,l),
(139,-344,ls),
(139,-439,o),
(114,-481,o),
(27,-522,c),
(57,-580,l)
);
}
);
width = 300;
},
{
anchors = (
{
name = _bottom;
pos = (213,0);
}
);
layerId = "FD202070-6699-4318-8E83-95414ED89137";
shapes = (
{
closed = 1;
nodes = (
(213,-535,o),
(286,-465,o),
(286,-315,cs),
(286,-106,l),
(139,-106,l),
(139,-304,ls),
(139,-396,o),
(113,-436,o),
(22,-476,c),
(67,-580,l)
);
}
);
width = 300;
}
);
subCategory = Nonspacing;
unicode = 73528;
},
{
category = Mark;
glyphname = "ga-kawi.below";
layers = (
{
anchors = (
{
name = _bottom;
pos = (568,0);
},
{
name = bottom;
pos = (568,-570);
}
);
background = {
shapes = (
{
pos = (-14,0);
ref = "ka-kawi.below";
}
);
};
layerId = m01;
shapes = (
{
closed = 1;
nodes = (
(218,-506,l),
(172,-491,o),
(151,-477,o),
(151,-427,cs),
(151,-260,ls),
(151,-210,o),
(179,-182,o),
(229,-182,cs),
(446,-182,ls),
(496,-182,o),
(524,-210,o),
(524,-260,cs),
(524,-570,l),
(611,-570,l),
(611,-254,ls),
(611,-159,o),
(555,-106,o),
(441,-106,cs),
(234,-106,ls),
(120,-106,o),
(64,-159,o),
(64,-254,cs),
(64,-425,ls),
(64,-535,o),
(113,-563,o),
(189,-580,c)
);
}
);
width = 686;
},
{
layerId = "FD202070-6699-4318-8E83-95414ED89137";
shapes = (
{
closed = 1;
nodes = (
(245,97,l),
(217,115,o),
(205,131,o),
(205,170,cs),
(205,353,ls),
(205,395,o),
(228,418,o),
(270,418,cs),
(485,418,ls),
(527,418,o),
(550,395,o),
(550,353,cs),
(550,0,l),
(697,0,l),
(697,359,ls),
(697,478,o),
(643,544,o),
(500,544,cs),
(265,544,ls),
(133,544,o),
(58,478,o),
(58,359,cs),
(58,145,ls),
(58,51,o),
(100,24,o),
(174,-10,c)
);
}
);
width = 760;
}
);
metricLeft = "ka-kawi";
metricRight = "ka-kawi";
subCategory = Nonspacing;
},
{
category = Mark;
glyphname = "ka-kawi.below";
layers = (
{
anchors = (
{
name = _bottom;
pos = (549,0);
},
{
name = bottom;
pos = (549,-570);
}
);
background = {
shapes = (
{
closed = 1;
nodes = (
(199,-506,l),
(153,-491,o),
(132,-477,o),
(132,-427,cs),
(132,-260,ls),
(132,-210,o),
(160,-182,o),
(210,-182,cs),
(427,-182,ls),
(477,-182,o),
(505,-210,o),
(505,-260,cs),
(505,-570,l),
(592,-570,l),
(592,-254,ls),
(592,-159,o),
(536,-106,o),
(422,-106,cs),
(215,-106,ls),
(101,-106,o),
(45,-159,o),
(45,-254,cs),
(45,-425,ls),
(45,-535,o),
(94,-563,o),
(170,-580,c)
);
},
{
closed = 1;
nodes = (
(369,-570,l),
(369,-370,ls),
(369,-292,o),
(354,-259,o),
(261,-229,c),
(238,-279,l),
(280,-297,o),
(282,-324,o),
(282,-370,cs),
(282,-570,l)
);
}
);
};
layerId = m01;
shapes = (
{
closed = 1;
nodes = (
(199,-506,l),
(153,-491,o),
(132,-477,o),
(132,-427,cs),
(132,-260,ls),
(132,-210,o),
(160,-182,o),
(210,-182,cs),
(427,-182,ls),
(477,-182,o),
(505,-210,o),
(505,-260,cs),
(505,-570,l),
(592,-570,l),
(592,-254,ls),
(592,-159,o),
(536,-106,o),
(422,-106,cs),
(215,-106,ls),
(101,-106,o),
(45,-159,o),
(45,-254,cs),
(45,-425,ls),
(45,-535,o),
(94,-563,o),
(170,-580,c)
);
},
{
closed = 1;
nodes = (
(374,-570,l),
(374,-367,ls),
(374,-292,o),
(361,-259,o),
(269,-227,c),
(234,-297,l),
(285,-316,o),
(287,-334,o),
(287,-380,cs),
(287,-570,l)
);
}
);
width = 637;
},
{
anchors = (
{
name = _bottom;
pos = (631,0);
},
{
name = bottom;
pos = (631,-570);
}
);
background = {
shapes = (
{
closed = 1;
nodes = (
(147,-613,l),
(131,-596,o),
(122,-581,o),
(122,-544,cs),
(122,-290,ls),
(122,-240,o),
(150,-212,o),
(200,-212,cs),
(509,-212,ls),
(559,-212,o),
(587,-240,o),
(587,-290,cs),
(587,-660,l),
(674,-660,l),
(674,-284,ls),
(674,-189,o),
(618,-136,o),
(504,-136,cs),
(205,-136,ls),
(91,-136,o),
(35,-189,o),
(35,-284,cs),
(35,-555,ls),
(35,-615,o),
(55,-645,o),
(84,-670,c)
);
},
{
closed = 1;
nodes = (
(398,-660,l),
(398,-276,l),
(311,-276,l),
(311,-660,l)
);
}
);
};
layerId = "FD202070-6699-4318-8E83-95414ED89137";
shapes = (
{
closed = 1;
nodes = (
(232,-473,l),
(204,-455,o),
(192,-439,o),
(192,-400,cs),
(192,-297,ls),
(192,-255,o),
(215,-232,o),
(257,-232,cs),
(492,-232,ls),
(534,-232,o),
(557,-255,o),
(557,-297,cs),
(557,-570,l),
(704,-570,l),
(704,-291,ls),
(704,-172,o),
(639,-106,o),
(507,-106,cs),
(252,-106,ls),
(120,-106,o),
(45,-172,o),
(45,-291,cs),
(45,-425,ls),
(45,-519,o),
(87,-546,o),
(161,-580,c)
);
},
{
closed = 1;
nodes = (
(448,-570,l),
(448,-296,l),
(301,-296,l),
(301,-570,l)
);
}
);
width = 749;
},
{
anchors = (
{
name = _bottom;
pos = (601,0);
},
{
name = bottom;
pos = (601,-570);
}
);
associatedMasterId = m01;
background = {
shapes = (
{
closed = 1;
nodes = (
(157,-523,l),
(141,-506,o),
(132,-491,o),
(132,-454,cs),
(132,-260,ls),
(132,-210,o),
(160,-182,o),
(210,-182,cs),
(479,-182,ls),
(529,-182,o),
(557,-210,o),
(557,-260,cs),
(557,-570,l),
(644,-570,l),
(644,-254,ls),
(644,-159,o),
(588,-106,o),
(474,-106,cs),
(215,-106,ls),
(101,-106,o),
(45,-159,o),
(45,-254,cs),
(45,-465,ls),
(45,-525,o),
(65,-555,o),
(94,-580,c)
);
},
{
closed = 1;
nodes = (
(388,-570,l),
(388,-246,l),
(301,-246,l),
(301,-570,l)
);
},
{
closed = 1;
nodes = (
(588,-842,o),
(644,-782,o),
(644,-655,cs),
(644,-616,l),
(557,-616,l),
(557,-644,ls),
(557,-739,o),
(532,-781,o),
(445,-822,c),
(475,-880,l)
);
}
);
};
layerId = "5F6094AD-9326-4575-B69B-EFF8F3347E4C";
name = "18 Feb 23 17.27";
shapes = (
{
closed = 1;
nodes = (
(239,-506,l),
(193,-491,o),
(172,-477,o),
(172,-427,cs),
(172,-260,ls),
(172,-210,o),
(200,-182,o),
(250,-182,cs),
(479,-182,ls),
(529,-182,o),
(557,-210,o),
(557,-260,cs),
(557,-570,l),
(644,-570,l),
(644,-254,ls),
(644,-159,o),
(588,-106,o),
(474,-106,cs),
(255,-106,ls),
(141,-106,o),
(85,-159,o),
(85,-254,cs),
(85,-425,ls),
(85,-535,o),
(134,-563,o),
(210,-580,c)
);
},
{
closed = 1;
nodes = (
(588,-842,o),
(644,-782,o),
(644,-655,cs),
(644,-616,l),
(557,-616,l),
(557,-644,ls),
(557,-739,o),
(532,-781,o),
(445,-822,c),
(475,-880,l)
);
},
{
closed = 1;
nodes = (
(408,-570,l),
(408,-246,l),
(321,-246,l),
(321,-570,l)
);
}
);
width = 689;
},
{
anchors = (
{
name = _bottom;
pos = (549,0);
},
{
name = bottom;
pos = (549,-570);
}
);
associatedMasterId = m01;
background = {
shapes = (
{
closed = 1;
nodes = (
(187,-506,l),
(141,-491,o),
(120,-477,o),
(120,-427,cs),
(120,-260,ls),
(120,-210,o),
(148,-182,o),
(198,-182,cs),
(427,-182,ls),
(477,-182,o),
(505,-210,o),
(505,-260,cs),
(505,-570,l),
(592,-570,l),
(592,-254,ls),
(592,-159,o),
(536,-106,o),
(422,-106,cs),
(203,-106,ls),
(89,-106,o),
(33,-159,o),
(33,-254,cs),
(33,-425,ls),
(33,-535,o),
(82,-563,o),
(158,-580,c)
);
},
{
closed = 1;
nodes = (
(536,-842,o),
(592,-782,o),
(592,-655,cs),
(592,-616,l),
(505,-616,l),
(505,-644,ls),
(505,-739,o),
(480,-781,o),
(393,-822,c),
(423,-880,l)
);
},
{
closed = 1;
nodes = (
(356,-570,l),
(356,-246,l),
(269,-246,l),
(269,-570,l)
);
}
);
};
layerId = "B4EDDF7B-623D-4F49-8BCA-88F51576F709";
name = "19 Feb 23 19.42";
shapes = (
{
closed = 1;
nodes = (
(199,-506,l),
(153,-491,o),
(132,-477,o),
(132,-427,cs),
(132,-260,ls),
(132,-210,o),
(160,-182,o),
(210,-182,cs),
(427,-182,ls),
(477,-182,o),
(505,-210,o),
(505,-260,cs),
(505,-570,l),
(592,-570,l),
(592,-254,ls),
(592,-159,o),
(536,-106,o),
(422,-106,cs),
(215,-106,ls),
(101,-106,o),
(45,-159,o),
(45,-254,cs),
(45,-425,ls),
(45,-535,o),
(94,-563,o),
(170,-580,c)
);
},
{
closed = 1;
nodes = (
(369,-570,l),
(369,-370,ls),
(369,-292,o),
(354,-259,o),
(261,-229,c),
(238,-279,l),
(280,-297,o),
(282,-324,o),
(282,-370,cs),
(282,-570,l)
);
}
);
width = 637;
}
);
metricLeft = "=45";
metricRight = "=|";
script = kawi;
subCategory = Nonspacing;
},
{
glyphname = "vowelU-kawi.below";
layers = (
{
anchors = (
{
name = _bottom;
pos = (201,0);
}
);
background = {
shapes = (
{
closed = 1;
nodes = (
(170,-542,o),
(226,-482,o),
(226,-355,cs),
(226,-106,l),
(139,-106,l),
(139,-344,ls),
(139,-439,o),
(114,-481,o),
(27,-522,c),
(57,-580,l)
);
}
);
};
layerId = m01;
shapes = (
{
closed = 1;
nodes = (
(188,-332,o),
(244,-272,o),
(244,-145,cs),
(244,-106,l),
(157,-106,l),
(157,-134,ls),
(157,-229,o),
(132,-271,o),
(45,-312,c),
(75,-370,l)
);
}
);
width = 300;
},
{
anchors = (
{
name = _bottom;
pos = (213,0);
}
);
layerId = "FD202070-6699-4318-8E83-95414ED89137";
shapes = (
{
closed = 1;
nodes = (
(213,-535,o),
(286,-465,o),
(286,-315,cs),
(286,-106,l),
(139,-106,l),
(139,-304,ls),
(139,-396,o),
(113,-436,o),
(22,-476,c),
(67,-580,l)
);
}
);
width = 300;
}
);
subCategory = Nonspacing;
},
{
glyphname = "vowelEu-kawi";
layers = (
{
background = {
shapes = (
{
closed = 1;
nodes = (
(682,636,o),
(774,733,o),
(774,855,cs),
(774,975,o),
(682,1072,o),
(522,1072,cs),
(362,1072,o),
(270,975,o),
(270,855,cs),
(270,733,o),
(362,636,o),
(522,636,cs)
);
},
{
closed = 1;
nodes = (
(403,708,o),
(346,773,o),
(346,855,cs),
(346,935,o),
(403,1000,o),
(522,1000,cs),
(641,1000,o),
(698,935,o),
(698,855,cs),
(698,773,o),
(641,708,o),
(522,708,cs)
);
},
{
closed = 1;
nodes = (
(316,889,l),
(730,889,l),
(730,822,l),
(316,822,l)
);
},
{
closed = 1;
nodes = (
(489,1034,l),
(556,1034,l),
(556,680,l),
(489,680,l)
);
}
);
};
layerId = m01;
width = 819;
},
{
layerId = "FD202070-6699-4318-8E83-95414ED89137";
width = 570;
}
);
metricLeft = "=45";
metricRight = "=|";
unicode = 73536;
},
{
glyphname = "vowelUu-kawi";
layers = (
{
anchors = (
{
name = _bottom;
pos = (183,0);
}
);
background = {
shapes = (
{
closed = 1;
nodes = (
(167,-542,o),
(226,-482,o),
(226,-355,cs),
(226,-106,l),
(139,-106,l),
(139,-344,ls),
(139,-439,o),
(114,-481,o),
(7,-522,c),
(28,-580,l)
);
},
{
closed = 1;
nodes = (
(101,-429,o),
(105,-400,o),
(105,-381,cs),
(105,-321,o),
(70,-279,o),
(-3,-279,cs),
(-56,-279,o),
(-104,-300,o),
(-142,-369,c),
(-93,-403,l),
(-68,-363,o),
(-39,-345,o),
(-6,-345,cs),
(28,-345,o),
(45,-365,o),
(45,-396,cs),
(45,-406,o),
(42,-420,o),
(34,-435,c),
(74,-456,l)
);
}
);
};
layerId = m01;
shapes = (
{
closed = 1;
nodes = (
(167,-542,o),
(226,-482,o),
(226,-355,cs),
(226,-106,l),
(139,-106,l),
(139,-344,ls),
(139,-439,o),
(114,-481,o),
(7,-522,c),
(28,-580,l)
);
},
{
closed = 1;
nodes = (
(101,-429,o),
(108,-397,o),
(108,-373,cs),
(108,-312,o),
(72,-269,o),
(-3,-269,cs),
(-117,-269,l),
(-117,-345,l),
(-6,-345,ls),
(28,-345,o),
(45,-365,o),
(45,-396,cs),
(45,-406,o),
(42,-420,o),
(34,-435,c),
(74,-456,l)
);
}
);
width = 300;
},
{
layerId = "FD202070-6699-4318-8E83-95414ED89137";
width = 300;
},
{
anchors = (
{
name = _bottom;
pos = (183,0);
}
);
associatedMasterId = m01;
background = {
shapes = (
{
closed = 1;
nodes = (
(170,-542,o),
(226,-482,o),
(226,-355,cs),
(226,-106,l),
(139,-106,l),
(139,-344,ls),
(139,-439,o),
(114,-481,o),
(27,-522,c),
(57,-580,l)
);
}
);
};
layerId = "81C8EB97-DB6D-4092-AC9C-B2BEB48134E3";
name = "18 Feb 23 17.20";
shapes = (
{
closed = 1;
nodes = (
(167,-542,o),
(226,-482,o),
(226,-355,cs),
(226,-106,l),
(139,-106,l),
(139,-344,ls),
(139,-439,o),
(114,-481,o),
(7,-522,c),
(28,-580,l)
);
},
{
closed = 1;
nodes = (
(101,-429,o),
(105,-400,o),
(105,-381,cs),
(105,-321,o),
(70,-279,o),
(-3,-279,cs),
(-56,-279,o),
(-104,-300,o),
(-142,-369,c),
(-93,-403,l),
(-68,-363,o),
(-39,-345,o),
(-6,-345,cs),
(28,-345,o),
(45,-365,o),
(45,-396,cs),
(45,-406,o),
(42,-420,o),
(34,-435,c),
(74,-456,l)
);
}
);
width = 300;
}
);
unicode = 73529;
},
